<?xml version="1.0" encoding="UTF-8" standalone="no"?>
<svg
   xmlns:dc="http://purl.org/dc/elements/1.1/"
   xmlns:cc="http://creativecommons.org/ns#"
   xmlns:rdf="http://www.w3.org/1999/02/22-rdf-syntax-ns#"
   xmlns:svg="http://www.w3.org/2000/svg"
   xmlns="http://www.w3.org/2000/svg"
   xmlns:sodipodi="http://sodipodi.sourceforge.net/DTD/sodipodi-0.dtd"
   xmlns:inkscape="http://www.inkscape.org/namespaces/inkscape"
   version="1.1"
   x="0px"
   y="0px"
   width="48px"
   height="48px"
   viewBox="0 0 48 48"
   enable-background="new 0 0 48 48"
   xml:space="preserve"
   id="svg2"
   inkscape:version="0.91 r13725"
   sodipodi:docname="avatar-enfermero.svg"><metadata
     id="metadata32"><rdf:RDF><cc:Work
         rdf:about=""><dc:format>image/svg+xml</dc:format><dc:type
           rdf:resource="http://purl.org/dc/dcmitype/StillImage" /></cc:Work></rdf:RDF></metadata><defs
     id="defs30" /><sodipodi:namedview
     pagecolor="#ffffff"
     bordercolor="#666666"
     borderopacity="1"
     objecttolerance="10"
     gridtolerance="10"
     guidetolerance="10"
     inkscape:pageopacity="0"
     inkscape:pageshadow="2"
     inkscape:window-width="1855"
     inkscape:window-height="1056"
     id="namedview28"
     showgrid="false"
     inkscape:zoom="18.32"
     inkscape:cx="14.556769"
     inkscape:cy="24.426551"
     inkscape:window-x="65"
     inkscape:window-y="24"
     inkscape:window-maximized="1"
     inkscape:current-layer="g4180" /><ellipse
     style="opacity:0.96700003;fill:#00d1b2;fill-opacity:1;stroke:none;stroke-width:2.70000005;stroke-miterlimit:4;stroke-dasharray:none;stroke-opacity:0.90196078"
     id="path5981"
     cx="23.962343"
     cy="24.023159"
     rx="23.873867"
     ry="23.957504" /><g
     id="g4180"
     transform="matrix(0.80739935,0,0,0.80739935,4.6224157,4.5995647)"><polygon
       id="polygon4"
       points="29,31 24,40 19,31 19,25 29,25 "
       style="fill:#808080" /><g
       id="g6"
       style="fill:#808080"><path
         id="path8"
         d="m 17,19 c 0,1.105 -0.895,2 -2,2 -1.105,0 -2,-0.895 -2,-2 0,-1.105 0.895,-2 2,-2 1.105,0 2,0.895 2,2"
         inkscape:connector-curvature="0"
         style="fill:#808080" /><path
         id="path10"
         d="m 35,19 c 0,1.105 -0.895,2 -2,2 -1.105,0 -2,-0.895 -2,-2 0,-1.105 0.895,-2 2,-2 1.105,0 2,0.895 2,2"
         inkscape:connector-curvature="0"
         style="fill:#808080" /></g><path
       id="path12"
       d="M 33,13 C 33,5.365 15,8.029 15,13 l 0,7 c 0,4.971 4.029,9 9,9 4.971,0 9,-4.029 9,-9 l 0,-7 z"
       inkscape:connector-curvature="0"
       style="fill:#a9a9a9;fill-opacity:1" /><g
       id="g14"
       style="fill:#000000"><path
         id="path16"
         d="m 27,19 c 0,0.552 0.448,1 1,1 0.552,0 1,-0.448 1,-1 0,-0.552 -0.448,-1 -1,-1 -0.552,0 -1,0.448 -1,1"
         inkscape:connector-curvature="0"
         style="fill:#000000" /><path
         id="path18"
         d="m 19,19 c 0,0.552 0.448,1 1,1 0.552,0 1,-0.448 1,-1 0,-0.552 -0.448,-1 -1,-1 -0.552,0 -1,0.448 -1,1"
         inkscape:connector-curvature="0"
         style="fill:#000000" /></g><path
       id="path20"
       d="M 24,4 C 17.925,4 14,8.925 14,15 l 0,2.284 2,1.716 0,-5 12,-4 4,4 0,5 2,-1.741 L 34,15 C 34,10.975 32.962,6.985 28,6 L 27,4 24,4 Z"
       inkscape:connector-curvature="0"
       style="fill:#000000" /><g
       id="g22"><path
         style="fill:#ccf6f0;fill-opacity:1"
         id="path24"
         d="m 29,31 -5,9 -5,-9 C 19,31 8,32.986 8,44 l 32,0 C 40,33.025 29,31 29,31 Z"
         inkscape:connector-curvature="0" /><path
         style="fill:#ccf6f0;fill-opacity:1"
         id="path26"
         d="m 34,15 c 0,0 -5,-1 -10,-1 -5,0 -10,1 -10,1 0,-4 1,-10 1,-10 0,0 2.376,-2 9.25,-2 6.875,0 8.75,2 8.75,2 0,0 1,6 1,10 z"
         inkscape:connector-curvature="0" /></g></g></svg>