<?xml version="1.0" encoding="utf-8"?>
<!-- Generator: Adobe Illustrator 19.2.1, SVG Export Plug-In . SVG Version: 6.00 Build 0)  -->
<svg version="1.1" id="Capa_1" xmlns="http://www.w3.org/2000/svg" xmlns:xlink="http://www.w3.org/1999/xlink" x="0px" y="0px"
	 viewBox="0 0 792 612" style="enable-background:new 0 0 792 612;" xml:space="preserve">
<style type="text/css">
	.st0{fill:#19EACB;}
	.st1{fill:#00D1B2;}
	.st2{fill:#09DABB;}
	.st3{fill:#0EDFC0;}
	.st4{fill:#00C5A6;}
	.st5{fill:#AE2427;}
	.st6{fill:#F39722;}
	.st7{fill:#056634;}
	.st8{fill:#006097;}
	.st9{fill:#E4252A;}
	.st10{fill:#FDCA09;}
	.st11{fill:#05A250;}
	.st12{fill:#47A7DC;}
	.st13{fill:#FFFFFF;}
	.st14{opacity:0.5;}
</style>
<g>
	
		<image style="overflow:visible;enable-background:new    ;" width="71" height="62" xlink:href="5082AF76.jpg"  transform="matrix(0.992 0 0 0.992 17.1161 269.2469)">
	</image>
</g>
<rect y="244.1" class="st0" width="792" height="30.9"/>
<rect y="336.9" class="st1" width="792" height="30.9"/>
<rect y="306" class="st2" width="792" height="30.9"/>
<rect y="275.1" class="st3" width="792" height="30.9"/>
<g>
	<path class="st4" d="M74.3,343.1L99,367.9H49.5L74.3,343.1z"/>
	<path class="st4" d="M24.8,343.1l24.8,24.8H0L24.8,343.1z"/>
	<path class="st4" d="M123.7,343.1L99,367.9h49.5L123.7,343.1z"/>
	<path class="st4" d="M173.3,343.1l-24.8,24.8H198L173.3,343.1z"/>
	<path class="st4" d="M321.8,343.1L297,367.9h49.5L321.8,343.1z"/>
	<path class="st4" d="M371.3,343.1l-24.8,24.8H396L371.3,343.1z"/>
	<path class="st4" d="M272.3,343.1l24.8,24.8h-49.5L272.3,343.1z"/>
	<path class="st4" d="M222.7,343.1l24.8,24.8H198L222.7,343.1z"/>
</g>
<g>
	<path class="st4" d="M470.2,343.1l24.8,24.8h-49.5L470.2,343.1z"/>
	<path class="st4" d="M420.7,343.1l24.8,24.8H396L420.7,343.1z"/>
	<path class="st4" d="M519.8,343.1L495,367.9h49.5L519.8,343.1z"/>
	<path class="st4" d="M569.3,343.1l-24.8,24.8H594L569.3,343.1z"/>
	<path class="st4" d="M717.8,343.1L693,367.9h49.5L717.8,343.1z"/>
	<path class="st4" d="M767.3,343.1l-24.8,24.8H792L767.3,343.1z"/>
	<path class="st4" d="M668.3,343.1l24.8,24.8h-49.5L668.3,343.1z"/>
	<path class="st4" d="M618.8,343.1l24.8,24.8H594L618.8,343.1z"/>
</g>
<polygon class="st5" points="52.3,263.5 15.4,263.5 15.4,300.4 52.3,300.4 "/>
<polygon class="st6" points="89.2,263.5 52.3,263.5 52.3,300.4 89.2,300.4 "/>
<polygon class="st7" points="52.3,300.4 15.4,300.4 15.4,337.3 52.3,337.3 "/>
<polygon class="st8" points="89.2,300.4 52.3,300.4 52.3,337.3 89.2,337.3 "/>
<path class="st9" d="M52.3,278.3c0-8.2-6.6-14.8-14.8-14.8h-7.3c-8.2,0-14.8,6.6-14.8,14.8v7.3c0,8.2,6.6,14.8,14.8,14.8h7.3
	c8.2,0,14.8-6.6,14.8-14.8V278.3L52.3,278.3z M43.1,282c0-5.1-4.1-9.2-9.2-9.2s-9.2,4.1-9.2,9.2s4.1,9.2,9.2,9.2
	C38.9,291.2,43.1,287.1,43.1,282L43.1,282z"/>
<path class="st10" d="M89.2,278.3c0-8.2-6.6-14.8-14.8-14.8h-7.3c-8.2,0-14.8,6.6-14.8,14.8v7.3c0,8.2,6.6,14.8,14.8,14.8h7.3
	c8.2,0,14.8-6.6,14.8-14.8V278.3L89.2,278.3z M80,282c0-5.1-4.1-9.2-9.2-9.2s-9.2,4.1-9.2,9.2s4.1,9.2,9.2,9.2S80,287.1,80,282
	L80,282z"/>
<path class="st11" d="M52.3,315.2c0-8.2-6.6-14.8-14.8-14.8h-7.3c-8.2,0-14.8,6.6-14.8,14.8v7.3c0,8.2,6.6,14.8,14.8,14.8h7.3
	c8.2,0,14.8-6.6,14.8-14.8V315.2L52.3,315.2z M43.1,318.9c0-5.1-4.1-9.2-9.2-9.2s-9.2,4.1-9.2,9.2s4.1,9.2,9.2,9.2
	C38.9,328.1,43.1,324,43.1,318.9L43.1,318.9z"/>
<path class="st12" d="M89.2,315.2c0-8.2-6.6-14.8-14.8-14.8h-7.3c-8.2,0-14.8,6.6-14.8,14.8v7.3c0,8.2,6.6,14.8,14.8,14.8h7.3
	c8.2,0,14.8-6.6,14.8-14.8V315.2L89.2,315.2z M80,318.9c0-5.1-4.1-9.2-9.2-9.2s-9.2,4.1-9.2,9.2s4.1,9.2,9.2,9.2S80,324,80,318.9
	L80,318.9z"/>
<g>
	<g>
		<g>
			<path class="st13" d="M34.9,302.4c0.2,0,0.3,0,0.5-0.1c0.4-0.1,0.7-0.3,1-0.6c0.1-0.1,0.2-0.2,0.3-0.4l0.1-0.2l4.4-9.9l5.1,24.3
				c0,0.1,0,0.2,0.1,0.2c0.1,0.3,0.3,0.6,0.5,0.8c0.2,0.2,0.4,0.3,0.6,0.4c0.5,0.2,1.1,0.2,1.6,0c0.1-0.1,0.3-0.1,0.4-0.2
				c0.2-0.1,0.4-0.3,0.5-0.5c0-0.1,0.1-0.1,0.1-0.2l0.1-0.2l5.8-17.1l4.3,10.6c0,0.1,0.1,0.1,0.1,0.2c0.1,0.2,0.3,0.4,0.5,0.6
				c0.1,0.1,0.3,0.2,0.4,0.3c0.6,0.3,1.3,0.3,1.9,0c0.2-0.1,0.4-0.3,0.6-0.4c0.1-0.1,0.1-0.1,0.1-0.2l0.1-0.2l3.8-7l12.6,0.2
				c-0.3,0.6-0.7,1.3-1.1,2c-4.7,8.9-16.9,17.7-27,23.6c-10.1-5.9-22.3-14.8-27-23.6c-0.4-0.7-0.8-1.5-1.2-2.2L34.9,302.4
				L34.9,302.4z M22.4,298.4c-3.6-9.6-2.6-18.4,2.9-23.3c6.8-5.9,20.3-5.9,27,5.9c6.7-11.8,20.2-11.8,27-5.9
				c5.6,4.9,6.6,13.9,2.8,23.6l-15.6-0.2c-0.2,0-0.2,0-0.4,0c-0.4,0.1-0.7,0.3-1,0.5c-0.1,0.1-0.2,0.2-0.3,0.3l-0.1,0.2l-2.3,4.3
				l-4.7-11.6c0-0.1-0.1-0.1-0.1-0.2c-0.1-0.2-0.3-0.4-0.4-0.5c-0.2-0.2-0.4-0.3-0.6-0.4c-0.5-0.2-1.1-0.2-1.6,0
				c-0.1,0.1-0.3,0.1-0.4,0.2c-0.2,0.1-0.3,0.3-0.5,0.5c0,0.1-0.1,0.1-0.1,0.2l-0.1,0.2l-5.2,15.3l-4.8-23.2
				c-0.1-0.2-0.1-0.3-0.2-0.5c-0.2-0.4-0.6-0.8-1-1c-0.2-0.1-0.3-0.1-0.5-0.1c-0.1,0-0.2,0-0.2,0c-0.2,0-0.3,0-0.5,0
				c-0.4,0.1-0.8,0.3-1.1,0.6c-0.2,0.2-0.2,0.2-0.3,0.4l-0.1,0.2l-6.4,14.4L22.4,298.4L22.4,298.4z"/>
		</g>
	</g>
	<g class="st14">
		<g>
			<path class="st13" d="M34.9,302.4c0.2,0,0.3,0,0.5-0.1c0.4-0.1,0.7-0.3,1-0.6c0.1-0.1,0.2-0.2,0.3-0.4l0.1-0.2l4.4-9.9l5.1,24.3
				c0,0.1,0,0.2,0.1,0.2c0.1,0.3,0.3,0.6,0.5,0.8c0.2,0.2,0.4,0.3,0.6,0.4c0.5,0.2,1.1,0.2,1.6,0c0.1-0.1,0.3-0.1,0.4-0.2
				c0.2-0.1,0.4-0.3,0.5-0.5c0-0.1,0.1-0.1,0.1-0.2l0.1-0.2l5.8-17.1l4.3,10.6c0,0.1,0.1,0.1,0.1,0.2c0.1,0.2,0.3,0.4,0.5,0.6
				c0.1,0.1,0.3,0.2,0.4,0.3c0.6,0.3,1.3,0.3,1.9,0c0.2-0.1,0.4-0.3,0.6-0.4c0.1-0.1,0.1-0.1,0.1-0.2l0.1-0.2l3.8-7l12.6,0.2
				c-0.3,0.6-0.7,1.3-1.1,2c-4.7,8.9-16.9,17.7-27,23.6c-10.1-5.9-22.3-14.8-27-23.6c-0.4-0.7-0.8-1.5-1.2-2.2L34.9,302.4
				L34.9,302.4z M22.4,298.4c-3.6-9.6-2.6-18.4,2.9-23.3c6.8-5.9,20.3-5.9,27,5.9c6.7-11.8,20.2-11.8,27-5.9
				c5.6,4.9,6.6,13.9,2.8,23.6l-15.6-0.2c-0.2,0-0.2,0-0.4,0c-0.4,0.1-0.7,0.3-1,0.5c-0.1,0.1-0.2,0.2-0.3,0.3l-0.1,0.2l-2.3,4.3
				l-4.7-11.6c0-0.1-0.1-0.1-0.1-0.2c-0.1-0.2-0.3-0.4-0.4-0.5c-0.2-0.2-0.4-0.3-0.6-0.4c-0.5-0.2-1.1-0.2-1.6,0
				c-0.1,0.1-0.3,0.1-0.4,0.2c-0.2,0.1-0.3,0.3-0.5,0.5c0,0.1-0.1,0.1-0.1,0.2l-0.1,0.2l-5.2,15.3l-4.8-23.2
				c-0.1-0.2-0.1-0.3-0.2-0.5c-0.2-0.4-0.6-0.8-1-1c-0.2-0.1-0.3-0.1-0.5-0.1c-0.1,0-0.2,0-0.2,0c-0.2,0-0.3,0-0.5,0
				c-0.4,0.1-0.8,0.3-1.1,0.6c-0.2,0.2-0.2,0.2-0.3,0.4l-0.1,0.2l-6.4,14.4L22.4,298.4L22.4,298.4z"/>
		</g>
	</g>
</g>
</svg>
