<?xml version="1.0" encoding="UTF-8" standalone="no"?>
<svg
   xmlns:dc="http://purl.org/dc/elements/1.1/"
   xmlns:cc="http://creativecommons.org/ns#"
   xmlns:rdf="http://www.w3.org/1999/02/22-rdf-syntax-ns#"
   xmlns:svg="http://www.w3.org/2000/svg"
   xmlns="http://www.w3.org/2000/svg"
   xmlns:sodipodi="http://sodipodi.sourceforge.net/DTD/sodipodi-0.dtd"
   xmlns:inkscape="http://www.inkscape.org/namespaces/inkscape"
   version="1.1"
   id="Layer_1"
   x="0px"
   y="0px"
   viewBox="0 0 40 40"
   style="enable-background:new 0 0 40 40;"
   xml:space="preserve"
   inkscape:version="0.91 r13725"
   sodipodi:docname="catalogo-almacenes.svg"><metadata
     id="metadata25"><rdf:RDF><cc:Work
         rdf:about=""><dc:format>image/svg+xml</dc:format><dc:type
           rdf:resource="http://purl.org/dc/dcmitype/StillImage" /><dc:title /></cc:Work></rdf:RDF></metadata><defs
     id="defs23" /><sodipodi:namedview
     pagecolor="#ffffff"
     bordercolor="#666666"
     borderopacity="1"
     objecttolerance="10"
     gridtolerance="10"
     guidetolerance="10"
     inkscape:pageopacity="0"
     inkscape:pageshadow="2"
     inkscape:window-width="1855"
     inkscape:window-height="1056"
     id="namedview21"
     showgrid="false"
     inkscape:zoom="22.975"
     inkscape:cx="20"
     inkscape:cy="20"
     inkscape:window-x="1985"
     inkscape:window-y="24"
     inkscape:window-maximized="1"
     inkscape:current-layer="Layer_1" /><g
     id="g3"><path
       style="fill:#00d1b2;fill-opacity:1"
       d="m 6.419513,37.361353 0,-35.0000004 28.5,0 c 0.275,0 0.5,0.224 0.5,0.4999999 l 0,34.0000005 c 0,0.276 -0.225,0.5 -0.5,0.5 l -28.5,0 z"
       id="path5"
       inkscape:connector-curvature="0" /><g
       id="g7"><path
         style="fill:#696969"
         d="M35,3v34H7V3H35 M35,2H6v36h29c0.552,0,1-0.448,1-1V3C36,2.448,35.552,2,35,2L35,2z"
         id="path9" /></g></g><g
     id="g11"
     style="fill:#696969"><path
       style="fill:#696969"
       d="M9,38H5c-0.552,0-1-0.448-1-1V3c0-0.552,0.448-1,1-1h4V38z"
       id="path13" /></g><g
     id="g4177"
     transform="matrix(1.2372881,0,0,1,-59.327493,-4.4915254)"><rect
       id="rect15"
       height="10"
       width="15"
       style="fill:#ffffff"
       y="9.8644066"
       x="58.237289" /><path
       inkscape:connector-curvature="0"
       id="path17"
       d="m 70.737288,13.864407 -10,0 c -0.275,0 -0.5,-0.225 -0.5,-0.5 l 0,0 c 0,-0.275 0.225,-0.5 0.5,-0.5 l 10,0 c 0.275,0 0.5,0.225 0.5,0.5 l 0,0 c 0,0.275 -0.225,0.5 -0.5,0.5 z"
       style="fill:#696969" /><path
       inkscape:connector-curvature="0"
       id="path19"
       d="m 70.737288,16.864407 -10,0 c -0.275,0 -0.5,-0.225 -0.5,-0.5 l 0,0 c 0,-0.275 0.225,-0.5 0.5,-0.5 l 10,0 c 0.275,0 0.5,0.225 0.5,0.5 l 0,0 c 0,0.275 -0.225,0.5 -0.5,0.5 z"
       style="fill:#696969" /></g><g
     id="g4188"
     transform="matrix(0.40008923,0,0,0.40008923,12.053515,15.531381)"><path
       id="path4"
       d="m 25.084746,11.220339 -20.0000002,11.89 0,24.11 40.0000002,0 0,-24.11 -20,-11.89 z"
       style="fill:#ccf6f0;fill-opacity:1"
       inkscape:connector-curvature="0" /><path
       style="fill:#000000;fill-opacity:1"
       id="path6"
       d="m 46.084746,26.268339 -21,-12.048 -21.0000002,12.048 0,-5.048 21.0000002,-12 0,0 21,12 0,5.048 z"
       inkscape:connector-curvature="0" /><rect
       id="rect14"
       height="2"
       width="40"
       y="45.220341"
       x="5.0847459"
       style="fill:#a9a9a9" /><rect
       id="rect8"
       height="18"
       width="30"
       y="29.033895"
       x="10.491528"
       style="fill:#808080" /><polygon
       id="polygon10"
       points="9,24 9,26 9,42 11,42 11,26 37,26 37,42 39,42 39,26 39,24 37,24 11,24 "
       style="fill:#696969"
       transform="translate(1.49153,5.0338987)" /><rect
       id="rect14-7"
       height="4"
       width="6"
       y="21.050842"
       x="21.881357"
       style="fill:#696969" /><path
       id="path16"
       d="m 40.49153,37.033898 -30,0 0,-2 30,0 0,2 z m 0,2 -30,0 0,2 30,0 0,-2 z m 0,4 -30,0 0,2 30,0 0,-2 z m 0,-12 -30,0 0,2 30,0 0,-2 z"
       style="fill:#a9a9a9;fill-opacity:1"
       inkscape:connector-curvature="0" /><path
       id="path18"
       d="m 40.49153,33.033898 -2,0 0,-2 2,0 0,2 z m 0,2 -2,0 0,2 2,0 0,-2 z m 0,4 -2,0 0,2 2,0 0,-2 z m 0,4 -2,0 0,2 2,0 0,-2 z m -28,-12 -2,0 0,2 2,0 0,-2 z m 0,4 -2,0 0,2 2,0 0,-2 z m 0,4 -2,0 0,2 2,0 0,-2 z m 0,4 -2,0 0,2 2,0 0,-2 z"
       style="fill:#808080"
       inkscape:connector-curvature="0" /></g></svg>