<svg version="1.1" id="Слой_1" xmlns="http://www.w3.org/2000/svg" xmlns:xlink="http://www.w3.org/1999/xlink" x="0px" y="0px" viewBox="0 0 128 128" enable-background="new 0 0 128 128" xml:space="preserve">
<g>
	<g>
		<g>
			<path fill="#FFFFFF" d="M96,103.5H32c-5.5,0-10-4.5-10-10V43.7c0-5.5,4.5-10,10-10h64c5.5,0,10,4.5,10,10v49.8
				C106,99.1,101.5,103.5,96,103.5z"></path>
		</g>
	</g>
	<g>
		<g>
			<rect x="32" y="43.7" fill="#FFFFFF" width="64" height="49.8"></rect>
		</g>
	</g>
	<g>
		<g>
			<path fill="#454B54" d="M96,106.5H32c-7.2,0-13-5.8-13-13V43.7c0-7.2,5.8-13,13-13h64c7.2,0,13,5.8,13,13v49.8
				C109,100.7,103.2,106.5,96,106.5z M32,36.7c-3.9,0-7,3.1-7,7v49.8c0,3.9,3.1,7,7,7h64c3.9,0,7-3.1,7-7V43.7c0-3.9-3.1-7-7-7H32z"></path>
		</g>
	</g>
	<g>
		<g>
			<path fill="#454B54" d="M79,27.5c-0.4,0-0.7-0.1-1.1-0.2L64,21.7l-13.9,5.6c-1.5,0.6-3.3-0.1-3.9-1.7c-0.6-1.5,0.1-3.3,1.7-3.9
				l15-6c0.7-0.3,1.5-0.3,2.2,0l15,6c1.5,0.6,2.3,2.4,1.7,3.9C81.3,26.8,80.2,27.5,79,27.5z"></path>
		</g>
	</g>
	<g>
		<g>
			<path fill="#F37778" d="M76.2,64.8H69v-7.2c0-2.8-2.2-5-5-5s-5,2.2-5,5v7.2h-7.2c-2.8,0-5,2.2-5,5s2.2,5,5,5H59V82
				c0,2.8,2.2,5,5,5s5-2.2,5-5v-7.2h7.2c2.8,0,5-2.2,5-5S78.9,64.8,76.2,64.8z"></path>
		</g>
	</g>
</g>
</svg>