<?xml version="1.0" encoding="UTF-8" standalone="no"?>
<svg
   xmlns:dc="http://purl.org/dc/elements/1.1/"
   xmlns:cc="http://creativecommons.org/ns#"
   xmlns:rdf="http://www.w3.org/1999/02/22-rdf-syntax-ns#"
   xmlns:svg="http://www.w3.org/2000/svg"
   xmlns="http://www.w3.org/2000/svg"
   xmlns:sodipodi="http://sodipodi.sourceforge.net/DTD/sodipodi-0.dtd"
   xmlns:inkscape="http://www.inkscape.org/namespaces/inkscape"
   version="1.1"
   x="0px"
   y="0px"
   width="48px"
   height="48px"
   viewBox="0 0 48 48"
   enable-background="new 0 0 48 48"
   xml:space="preserve"
   id="svg2"
   inkscape:version="0.91 r13725"
   sodipodi:docname="hub-equipamiento.svg"><metadata
     id="metadata20"><rdf:RDF><cc:Work
         rdf:about=""><dc:format>image/svg+xml</dc:format><dc:type
           rdf:resource="http://purl.org/dc/dcmitype/StillImage" /><dc:title /></cc:Work></rdf:RDF></metadata><defs
     id="defs18" /><sodipodi:namedview
     pagecolor="#ffffff"
     bordercolor="#666666"
     borderopacity="1"
     objecttolerance="10"
     gridtolerance="10"
     guidetolerance="10"
     inkscape:pageopacity="0"
     inkscape:pageshadow="2"
     inkscape:window-width="1855"
     inkscape:window-height="1056"
     id="namedview16"
     showgrid="false"
     inkscape:zoom="6.9532167"
     inkscape:cx="16.214884"
     inkscape:cy="22.253577"
     inkscape:window-x="1985"
     inkscape:window-y="24"
     inkscape:window-maximized="1"
     inkscape:current-layer="svg2" /><g
     id="g4139"
     transform="matrix(0.93132749,0,0,0.93132749,1.7189868,1.012194)"><path
       id="path4742"
       d="m 22.08725,45.990479 c -1.019525,-0.193043 -1.852399,-0.47128 -2.829789,-0.945343 -1.354247,-0.656851 -2.36169,-1.400376 -3.816594,-2.816773 l -0.87646,-0.85326 -6.3070499,0 -6.3070504,0 0,-2.420157 0,-2.420157 13.5579683,0 13.557969,0 0.309451,-0.418873 c 0.405842,-0.549345 1.205644,-2.119443 1.639108,-3.217743 0.734257,-1.860454 1.275064,-4.194797 1.464921,-6.32326 0.05575,-0.625405 0.04379,-4.857837 -0.01453,-5.088534 -0.0172,-0.06826 -0.05018,-0.305623 -0.07325,-0.527472 -0.05852,-0.562583 -0.323408,-2.019967 -0.50254,-2.764939 C 30.731359,13.377732 28.295071,9.9064749 25.376163,8.9138122 24.995098,8.7842196 24.827511,8.766021 24.010947,8.7655636 c -1.08108,-6.203e-4 -1.501787,0.098489 -2.373197,0.5589969 -0.667205,0.3525927 -1.117653,0.7043855 -1.804351,1.4091735 -0.900545,0.924266 -1.575344,1.877679 -2.175676,3.07398 -1.014428,2.021483 -1.593411,4.01553 -2.018791,6.95282 -0.08058,0.556438 -0.165923,1.031162 -0.189644,1.05494 -0.02372,0.02378 -0.519083,0.05271 -1.100806,0.06429 l -1.057678,0.02106 0.04394,-0.548528 c 0.106609,-1.331031 0.673416,-4.073511 1.152234,-5.575007 0.627911,-1.969028 1.571832,-3.85547 2.644351,-5.284783 0.453934,-0.6049427 1.523499,-1.7196215 2.112119,-2.2012072 2.350092,-1.9227526 5.331724,-2.3036684 7.932327,-1.0133881 2.611976,1.2959245 4.702899,3.9647973 6.083244,7.7647053 0.610755,1.681307 1.106517,3.837169 1.303441,5.66807 0.0239,0.221847 0.05347,0.457636 0.06594,0.523975 0.146398,0.783102 0.145377,4.374702 -0.002,5.836693 -0.684031,6.801063 -3.597183,12.187266 -7.607821,14.066317 -0.48305,0.226318 -1.445179,0.524797 -1.92198,0.596253 -0.999436,0.149781 -2.245982,0.05729 -3.181702,-0.236058 -0.348659,-0.109305 -0.571689,-0.120966 -2.279164,-0.119148 l -1.892687,0.002 0.339403,0.309066 c 1.054025,0.959816 2.8528,1.840201 4.386773,2.147047 0.805761,0.161179 2.390278,0.146834 3.197215,-0.02894 1.905275,-0.41503 3.405014,-1.244537 4.996393,-2.76351 3.14774,-3.004515 5.225459,-7.725082 5.91797,-13.445573 0.206539,-1.706169 0.220088,-4.90572 0.02813,-6.639918 C 35.867264,14.260072 33.041117,8.6453383 29.076413,5.9941953 27.797439,5.1389618 26.610295,4.664604 25.220662,4.4535163 c -0.46315,-0.07035 -1.88197,-0.088207 -2.296046,-0.028891 -2.004922,0.2872069 -3.842224,1.2505666 -5.600209,2.9363799 -2.35098,2.2544631 -4.171106,5.6075188 -5.191777,9.5643498 -0.257183,0.997019 -0.630988,3.007626 -0.749913,4.033595 -0.03759,0.324239 -0.08319,0.666318 -0.101341,0.760177 l -0.03302,0.170653 -1.081037,0 c -0.8235299,0 -1.081005,-0.01848 -1.0809037,-0.07758 3.094e-4,-0.18233 0.323172,-2.55796 0.4364409,-3.211363 0.6828298,-3.938999 2.1281828,-7.565928 4.1533008,-10.4221642 0.948533,-1.3378143 2.810634,-3.197541 3.96912,-3.9640543 1.795778,-1.1881796 3.699932,-1.8915815 5.403447,-1.9960547 1.025898,-0.062917 8.505361,-0.058067 9.199665,0.00596 0.640285,0.05905 1.700363,0.3260143 2.563218,0.6455066 3.230439,1.1961406 6.205766,4.1401304 8.246909,8.1600536 1.445605,2.847038 2.325214,5.919157 2.807291,9.804738 0.09149,0.737578 0.111024,1.35291 0.108236,3.413042 -0.0031,2.252177 -0.01803,2.62282 -0.144615,3.568179 -0.586275,4.379835 -1.726123,7.867584 -3.566301,10.912316 -2.411266,3.989649 -5.514026,6.429653 -9.238213,7.264922 l -0.71386,0.160105 -4.708737,-0.005 -4.70873,-0.005 -0.806718,-0.15275 z"
       style="fill:#ffffff;fill-opacity:1"
       inkscape:connector-curvature="0" /><path
       id="path4740"
       d="m 23.956773,33.449617 c -1.966581,-0.398993 -3.482286,-1.777571 -4.024378,-3.66029 -0.183956,-0.638889 -0.201172,-2.060932 -0.03253,-2.686944 0.161236,-0.598516 0.626396,-1.496422 1.008626,-1.946975 1.567906,-1.848159 4.106215,-2.379216 6.267292,-1.311224 1.028817,0.508435 1.757053,1.256757 2.295095,2.358398 0.402997,0.825136 0.489466,1.214314 0.489466,2.202963 0,0.9859 -0.08542,1.372278 -0.487728,2.20638 -0.770966,1.598391 -2.283157,2.688045 -3.962831,2.855534 -0.750557,0.07485 -1.116934,0.07063 -1.553014,-0.01785 z"
       style="fill:#008eff;fill-opacity:1"
       inkscape:connector-curvature="0" /><path
       id="path4732"
       d="m 1.9503067,29.23992 0,-4.256465 6.4072092,0.02752 c 4.6666761,0.02005 6.4999261,0.04778 6.7485131,0.102093 0.487895,0.106609 1.155753,0.442993 1.651249,0.831686 0.657971,0.516147 1.080555,1.116489 1.374349,1.952453 0.150436,0.428056 0.167745,0.563754 0.167745,1.315056 0,0.751338 -0.01732,0.886986 -0.167777,1.315151 -0.468119,1.332008 -1.421694,2.286324 -2.71529,2.717396 -0.617139,0.205654 -1.415428,0.230666 -7.7103699,0.241588 l -5.7556284,0.01001 0,-4.256465 z"
       style="fill:#008eff;fill-opacity:1"
       inkscape:connector-curvature="0" /></g></svg>