<?xml version="1.0" encoding="UTF-8" standalone="no"?>
<svg
   xmlns:dc="http://purl.org/dc/elements/1.1/"
   xmlns:cc="http://creativecommons.org/ns#"
   xmlns:rdf="http://www.w3.org/1999/02/22-rdf-syntax-ns#"
   xmlns:svg="http://www.w3.org/2000/svg"
   xmlns="http://www.w3.org/2000/svg"
   xmlns:sodipodi="http://sodipodi.sourceforge.net/DTD/sodipodi-0.dtd"
   xmlns:inkscape="http://www.inkscape.org/namespaces/inkscape"
   version="1.1"
   x="0px"
   y="0px"
   width="48px"
   height="48px"
   viewBox="0 0 48 48"
   enable-background="new 0 0 48 48"
   xml:space="preserve"
   id="svg2"
   inkscape:version="0.91 r13725"
   sodipodi:docname="hub-dam.svg"><metadata
     id="metadata20"><rdf:RDF><cc:Work
         rdf:about=""><dc:format>image/svg+xml</dc:format><dc:type
           rdf:resource="http://purl.org/dc/dcmitype/StillImage" /><dc:title /></cc:Work></rdf:RDF></metadata><defs
     id="defs18" /><sodipodi:namedview
     pagecolor="#ffffff"
     bordercolor="#666666"
     borderopacity="1"
     objecttolerance="10"
     gridtolerance="10"
     guidetolerance="10"
     inkscape:pageopacity="0"
     inkscape:pageshadow="2"
     inkscape:window-width="1855"
     inkscape:window-height="1056"
     id="namedview16"
     showgrid="false"
     inkscape:zoom="9.248104"
     inkscape:cx="14.222704"
     inkscape:cy="35.861422"
     inkscape:window-x="1985"
     inkscape:window-y="24"
     inkscape:window-maximized="1"
     inkscape:current-layer="svg2"
     showguides="true"><inkscape:grid
       type="xygrid"
       id="grid4240" /></sodipodi:namedview><ellipse
     style="opacity:0.96700003;fill:#00d1b2;fill-opacity:1;stroke:none;stroke-width:2.70000005;stroke-miterlimit:4;stroke-dasharray:none;stroke-opacity:0.90196078"
     id="path5981"
     cx="24.128721"
     cy="23.923845"
     rx="24.021099"
     ry="23.974215" /><path
     style="fill:#00d1b2;fill-opacity:0.96862745"
     d="M 11.847149,37.234854 C 11.702144,37.07921 11.672321,36.932946 11.672321,36.377422 l 0,-0.669779 -0.760124,0 c -0.639166,0 -0.796077,-0.02828 -0.9860472,-0.177709 l -0.225921,-0.17771 0,-5.181241 0,-5.181241 -0.9336764,0 c -1.04735,0 -1.2539675,-0.08668 -1.3461803,-0.564779 -0.039638,-0.205501 -0.00296,-0.320523 0.1637988,-0.514459 L 7.7990217,23.66072 23.790219,23.63862 c 10.101682,-0.01397 16.071197,0.0083 16.208412,0.06048 0.488008,0.185543 0.599864,0.745481 0.224003,1.121341 -0.148057,0.148056 -0.287679,0.169305 -1.112482,0.169305 l -0.943174,0 0,5.18124 0,5.181244 -0.225922,0.177709 c -0.189971,0.14943 -0.34688,0.177708 -0.986047,0.177708 l -0.760125,0 0,0.671001 c 0,0.590524 -0.02381,0.693358 -0.198448,0.857433 -0.252569,0.237273 -0.686802,0.244357 -0.916214,0.01494 -0.142906,-0.142921 -0.171486,-0.285827 -0.171486,-0.85745 l 0,-0.685945 -1.042599,0 -1.042599,0 0.05112,-4.611592 c 0.04782,-4.315102 0.04122,-4.63369 -0.102752,-4.955264 -0.172329,-0.384913 -0.486939,-0.628794 -0.892532,-0.691883 -0.149458,-0.02325 -0.850508,0.07527 -1.55789,0.218936 -2.57295,0.522539 -3.841529,0.64388 -6.730842,0.643801 -2.843129,-7.6e-5 -3.894115,-0.09591 -5.701923,-0.519931 -0.518747,-0.121667 -1.118913,-0.261504 -1.333701,-0.310737 -0.528404,-0.121116 -0.831189,-0.02736 -1.215207,0.376333 l -0.323492,0.340061 -1.71e-4,2.632994 c -8.5e-5,1.448147 -0.02558,3.587959 -0.05661,4.755139 l -0.05644,2.122143 -0.972318,0 -0.972317,0 0,0.685945 c 0,0.571623 -0.02859,0.714529 -0.171487,0.857434 -0.235786,0.235785 -0.712748,0.227581 -0.939835,-0.01616 z m 9.814259,0.01265 c -1.562991,-0.06647 -2.889177,-0.184527 -4.330032,-0.385415 -1.158942,-0.161583 -1.520202,-0.264981 -1.627723,-0.465885 -0.136211,-0.254513 -0.115384,-9.75942 0.022,-10.030866 0.140627,-0.277895 0.438537,-0.340729 0.962662,-0.203044 2.0654,0.542579 4.43803,0.821689 6.988072,0.822062 2.557857,3.43e-4 4.273915,-0.174336 6.868973,-0.699329 1.219768,-0.246763 1.451923,-0.23671 1.616057,0.06997 0.06505,0.121555 0.08628,1.657841 0.06992,5.061349 -0.02294,4.772435 -0.02755,4.890872 -0.196687,5.059968 -0.193195,0.193144 -0.983434,0.326577 -3.306673,0.55833 -1.217969,0.121505 -4.878922,0.316282 -5.394557,0.28702 -0.117896,-0.0066 -0.870293,-0.04007 -1.671992,-0.07418 z m 2.663727,-1.461655 c 1.037459,-0.190216 2.160132,-0.998016 2.608512,-1.876915 0.859208,-1.684185 0.331225,-3.721738 -1.225044,-4.727604 -0.738496,-0.477312 -1.28449,-0.617512 -2.23754,-0.574551 -0.619038,0.02791 -0.886046,0.08366 -1.289205,0.269244 -1.038018,0.477799 -1.775517,1.338903 -2.066089,2.41236 -0.535253,1.977384 0.744119,4.029727 2.788916,4.473931 0.611824,0.132908 0.806331,0.136133 1.42045,0.02353 z m -1.387567,-0.708674 c -1.278887,-0.325067 -2.160742,-1.374163 -2.242941,-2.668307 -0.0459,-0.722733 0.0541,-1.132821 0.428507,-1.757103 0.541306,-0.902579 1.485389,-1.405809 2.623602,-1.398473 0.54616,0.0035 0.711987,0.04518 1.262057,0.317034 0.697822,0.344883 1.105885,0.76459 1.430322,1.471142 0.152644,0.33242 0.193902,0.576818 0.194562,1.152506 7.72e-4,0.653606 -0.02888,0.79096 -0.28098,1.30307 -0.174023,0.353494 -0.431567,0.704266 -0.673331,0.917077 -0.700658,0.616743 -1.840001,0.892272 -2.741798,0.663054 z m 1.424752,-1.641729 0,-0.55733 0.55733,0 0.557332,0 0,-0.685946 0,-0.685946 -0.55324,0 -0.553241,0 -0.02552,-0.535895 -0.02552,-0.535895 -0.643075,0 -0.643074,0 -0.02552,0.535895 -0.02552,0.535895 -0.55324,0 -0.553239,0 0,0.685946 0,0.685946 0.557331,0 0.557332,0 0,0.55733 0,0.557332 0.685945,0 0.685946,0 0,-0.557332 z M 18.53178,22.5212 c 0,-0.404897 0.250144,-1.231182 0.567809,-1.87561 0.591501,-1.199942 1.834284,-2.269679 3.129807,-2.694013 0.531995,-0.174247 0.802606,-0.20714 1.704207,-0.20714 0.901601,0 1.172211,0.03289 1.704208,0.20714 1.886302,0.617835 3.445467,2.462571 3.665793,4.337205 l 0.05543,0.471634 -5.413628,0 -5.413629,0 0,-0.239216 z m 4.477283,-5.297994 c -1.241663,-0.618746 -2.24796,-2.392863 -2.24796,-3.963189 0,-0.792548 0.138328,-1.251294 0.565433,-1.875199 l 0.303496,-0.443337 -0.312797,-0.72812 c -0.35022,-0.8152304 -0.358134,-1.0786094 -0.03701,-1.2319994 0.399719,-0.1909366 1.719099,-0.3685908 2.728927,-0.3674493 1.024865,0.00116 2.475632,0.2321548 2.717205,0.4326443 0.20215,0.167768 0.140322,0.433367 -0.255907,1.0993124 l -0.376499,0.63278 0.376594,0.511563 c 0.684104,0.929293 0.828113,2.077704 0.414895,3.308657 -0.739913,2.204162 -2.427213,3.346481 -3.876368,2.624337 z"
     id="path4169"
     inkscape:connector-curvature="0" /><path
     style="fill:#696969;fill-opacity:1"
     d="m 28.626294,20.717433 c -0.0047,0.0027 -0.01082,0.0033 -0.01563,0.0059 0.0061,-3.02e-4 0.01159,-0.0016 0.01758,-0.002 -6.56e-4,-0.0013 -0.0013,-0.0026 -0.002,-0.0039 z m -5.027344,2.876953 -15.9902348,0.02148 -0.214844,0.25 c -0.166799,0.193936 -0.203702,0.310124 -0.164062,0.515625 0.09221,0.478099 0.298353,0.564453 1.345703,0.564453 l 0.933594,0 0,5.181641 0,5.179688 0.226562,0.177734 c 0.18997,0.149429 0.3471618,0.177734 0.9863288,0.177734 l 0.759766,0 0,0.669922 c 0,0.555524 0.02882,0.701778 0.173828,0.857422 0.227087,0.243741 0.70562,0.253363 0.941406,0.01758 0.142897,-0.142905 0.169922,-0.287752 0.169922,-0.859375 l 0,-0.685547 0.972656,0 0.972657,0 0.05664,-2.121094 c 0.03103,-1.16718 0.05656,-3.307712 0.05664,-4.755859 l 0,-2.632812 0.324219,-0.339844 c 0.384018,-0.403693 0.686439,-0.498069 1.214843,-0.376953 0.214788,0.04923 0.815238,0.18888 1.333985,0.310547 1.807808,0.424021 2.858043,0.521408 5.701172,0.521484 2.889313,7.9e-5 4.157518,-0.121992 6.730468,-0.644531 0.707382,-0.143666 1.409136,-0.242 1.558594,-0.21875 0.405593,0.06309 0.720249,0.306493 0.892578,0.691406 0.143972,0.321574 0.149383,0.639976 0.101563,4.955078 l -0.05078,4.611328 1.042969,0 1.042969,0 0,0.685547 c 0,0.571623 0.02897,0.716454 0.171875,0.859375 0.229412,0.229417 0.663447,0.221648 0.916016,-0.01563 0.174638,-0.164075 0.197265,-0.266898 0.197265,-0.857422 l 0,-0.671875 0.761719,0 c 0.639167,0 0.794404,-0.0283 0.984375,-0.177734 l 0.226562,-0.177734 0,-5.179688 0,-5.181641 0.94336,0 c 0.824803,0 0.965224,-0.02187 1.113281,-0.169921 0.375861,-0.375862 0.263399,-0.935551 -0.224609,-1.121094 -0.137215,-0.05218 -6.107303,-0.07452 -16.208985,-0.06055 z m -7.453125,2.458984 c -0.311494,-0.02739 -0.505858,0.05916 -0.611328,0.267578 -0.137384,0.271446 -0.157695,9.776737 -0.02148,10.03125 0.107521,0.200904 0.468011,0.303261 1.626953,0.464844 1.440855,0.200888 2.767087,0.320249 4.330078,0.386719 0.801699,0.03411 1.553979,0.06762 1.671875,0.07422 0.515635,0.02926 4.176562,-0.165605 5.394531,-0.28711 2.323239,-0.231753 3.113446,-0.365451 3.306641,-0.558593 0.169137,-0.169096 0.174326,-0.288112 0.197266,-5.060547 0.01636,-3.403508 -0.0053,-4.938992 -0.07031,-5.060547 -0.164134,-0.30668 -0.395466,-0.317076 -1.615234,-0.07031 -2.595058,0.524993 -4.311284,0.699562 -6.869141,0.699219 -2.550042,-3.73e-4 -4.922881,-0.279687 -6.988281,-0.822266 -0.131031,-0.03442 -0.247731,-0.05532 -0.351563,-0.06445 z m 7.134766,2.509766 c 0.95305,-0.04296 1.497832,0.09691 2.236328,0.574219 1.556269,1.005866 2.085771,3.042377 1.226563,4.726562 -0.44838,0.878899 -1.571916,1.686737 -2.609375,1.876953 -0.614119,0.112603 -0.808098,0.109471 -1.419922,-0.02344 -2.044797,-0.444204 -3.324316,-2.495272 -2.789063,-4.472656 0.290572,-1.073457 1.028388,-1.934311 2.066407,-2.41211 0.403159,-0.185584 0.670024,-0.241621 1.289062,-0.269531 z m 0.275391,0.646484 c -1.138213,-0.0073 -2.081741,0.495859 -2.623047,1.398438 -0.374407,0.624282 -0.475588,1.033126 -0.429688,1.755859 0.0822,1.294144 0.965254,2.344855 2.244141,2.669922 0.901797,0.229218 2.039576,-0.04732 2.740234,-0.664062 0.241764,-0.212812 0.499805,-0.564475 0.673828,-0.917969 0.2521,-0.51211 0.282022,-0.649129 0.28125,-1.302735 C 26.44204,31.573385 26.40003,31.32915 26.247388,30.99673 25.922951,30.290178 25.515522,29.870909 24.8177,29.526027 24.26763,29.254172 24.102142,29.21312 23.555982,29.20962 Z m -0.712891,1.179688 0.642578,0 0.642578,0 0.02539,0.537109 0.02539,0.535156 0.554687,0 0.552734,0 0,0.685547 0,0.6875 -0.55664,0 -0.558594,0 0,0.556641 0,0.55664 -0.685547,0 -0.685547,0 0,-0.55664 0,-0.556641 -0.558593,0 -0.556641,0 0,-0.6875 0,-0.685547 0.552734,0 0.554688,0 0.02539,-0.535156 0.02539,-0.537109 z"
     id="path4169-6"
     inkscape:connector-curvature="0" /><path
     style="fill:#000000;fill-opacity:0.87812501;stroke-width:0.5;stroke-miterlimit:4;stroke-dasharray:none"
     d="m 24.00672,8.5971726 c -1.009828,-0.00114 -2.328796,0.1762505 -2.728515,0.3671875 -0.321125,0.15339 -0.313112,0.4171914 0.03711,1.2324209 l 0.3125,0.728516 -0.302735,0.443359 c -0.427105,0.623906 -0.566406,1.082452 -0.566406,1.875 0,1.570328 1.006384,3.344145 2.248047,3.962891 1.449155,0.722144 3.13704,-0.420838 3.876953,-2.625 0.413218,-1.230954 0.268089,-2.379301 -0.416015,-3.308594 l -0.375,-0.511718 0.375,-0.632813 C 26.863887,9.4624783 26.925667,9.1965811 26.723517,9.0288132 26.481944,8.828323 25.031585,8.5983726 24.00672,8.5971726 Z M 23.9325,17.728031 c -0.901601,-1e-6 -1.173083,0.03279 -1.705078,0.207032 -1.295523,0.424334 -2.537405,1.493417 -3.128906,2.693359 -0.317665,0.644428 -0.568359,1.472056 -0.568359,1.876953 l 0,0.238281 5.414062,0 5.412109,0 -0.05469,-0.470703 c -0.220326,-1.874634 -1.779714,-3.720055 -3.666016,-4.33789 -0.531998,-0.17425 -0.801523,-0.207032 -1.703125,-0.207032 z m 0.97461,5.894532 c 0.001,0.0028 0.0065,0.0088 0.0078,0.01172 0.02268,-0.0045 0.0437,-0.0066 0.06641,-0.01172 -0.02836,1.6e-5 -0.0469,-1.2e-5 -0.07422,0 z"
     id="path4169-3"
     inkscape:connector-curvature="0" /><path
     style="fill:#696969;fill-opacity:1"
     d="m 19.628485,25.188202 0,0.002 c 1.33e-4,-1.6e-5 0.0058,4e-6 0.0059,0 0.0065,-4.47e-4 0.013,-0.0015 0.01953,-0.002 -0.0085,-1.69e-4 -0.01693,1.8e-4 -0.02539,0 z m 5.63086,0.537109 c 0.01693,0.002 0.03384,0.004 0.05078,0.0059 -0.0046,-0.0019 -0.0091,-0.0039 -0.01367,-0.0059 -0.01255,-3e-6 -0.02479,2.5e-5 -0.03711,0 z m -9.097657,0.328125 c -0.311494,-0.02739 -0.505856,0.05916 -0.611328,0.267578 -0.137384,0.271446 -0.157707,9.776737 -0.02148,10.03125 0.107521,0.200904 0.468011,0.303262 1.626953,0.464844 1.440855,0.200888 2.767086,0.320249 4.330078,0.386719 0.801699,0.03411 1.553979,0.06762 1.671875,0.07422 0.515635,0.02926 4.176562,-0.165603 5.394531,-0.287109 2.32324,-0.231752 3.113446,-0.365452 3.306641,-0.558594 0.169137,-0.169096 0.174326,-0.288112 0.197266,-5.060547 0.01636,-3.403509 -0.0053,-4.938991 -0.07031,-5.060546 -0.164134,-0.306681 -0.395466,-0.317084 -1.615234,-0.07031 -2.595058,0.524993 -4.311284,0.699562 -6.869141,0.699219 -2.550043,-3.73e-4 -4.922881,-0.279687 -6.988281,-0.822266 -0.131031,-0.03442 -0.247731,-0.05532 -0.351563,-0.06445 z m 7.134766,2.509766 c 0.953048,-0.04296 1.497832,0.09691 2.236328,0.574218 1.556269,1.005866 2.085771,3.042378 1.226563,4.726563 -0.44838,0.878898 -1.571916,1.686738 -2.609375,1.876953 -0.614119,0.112604 -0.808098,0.109479 -1.419922,-0.02344 -2.044798,-0.444204 -3.324317,-2.495273 -2.789063,-4.472657 0.290572,-1.073458 1.028387,-1.934311 2.066406,-2.412109 0.403159,-0.185584 0.670025,-0.241621 1.289063,-0.269531 z m 1.875,1.160156 c 6.3e-4,0.0029 0.0033,0.0049 0.0039,0.0078 0.0015,-9.43e-4 0.0024,-0.003 0.0039,-0.0039 -0.0024,-0.0015 -0.0054,-0.0024 -0.0078,-0.0039 z"
     id="path4169-6-7"
     inkscape:connector-curvature="0" /><ellipse
     style="opacity:1;fill:#ff0000;fill-opacity:0.825;fill-rule:nonzero;stroke:none;stroke-width:0.5;stroke-miterlimit:4;stroke-dasharray:none;stroke-opacity:1"
     id="path4967"
     ry="2.0300231"
     rx="2.0813711"
     cy="32.048889"
     cx="23.62603" /><path
     style="fill:#edfff7;fill-opacity:1"
     d="m 21.529952,29.0961 c 10e-4,0.0035 0.0027,0.0079 0.0039,0.01172 0.0051,-0.0033 0.0105,-0.0064 0.01563,-0.0098 -0.0059,-4.02e-4 -0.01348,-8.95e-4 -0.01953,-0.002 z m 2.042969,0.107422 c -1.138213,-0.0073 -2.081741,0.495858 -2.623047,1.398438 -0.374407,0.62428 -0.475584,1.033126 -0.429687,1.755859 0.0822,1.294144 0.965253,2.344855 2.24414,2.669922 0.901797,0.229219 2.039576,-0.04732 2.740235,-0.664062 0.241763,-0.212812 0.499805,-0.564475 0.673828,-0.917969 0.2521,-0.51211 0.282022,-0.649129 0.28125,-1.302734 -6.6e-4,-0.575688 -0.04267,-0.819924 -0.195313,-1.152344 -0.324437,-0.706553 -0.731865,-1.125828 -1.429687,-1.470703 -0.55007,-0.271856 -0.715559,-0.312907 -1.261719,-0.316407 z m -0.712891,1.179688 0.642579,0 0.642578,0 0.02539,0.537109 0.02539,0.535157 0.554687,0 0.552735,0 0,0.685546 0,0.6875 -0.556641,0 -0.558594,0 0,0.556641 0,0.556641 -0.685546,0 -0.685547,0 0,-0.556641 0,-0.556641 -0.558594,0 -0.556641,0 0,-0.6875 0,-0.685546 0.552735,0 0.554687,0 0.02539,-0.535157 0.02539,-0.537109 z m -3.033203,0.164062 c -0.002,3.81e-4 -0.0038,0.0016 -0.0059,0.002 10e-4,0.0035 8.62e-4,0.0062 0.002,0.0098 0.0016,-0.0039 0.0021,-0.0079 0.0039,-0.01172 z"
     id="path4169-6-7-5"
     inkscape:connector-curvature="0" /></svg>