<?xml version="1.0" encoding="UTF-8" standalone="no"?>
<svg
   xmlns:dc="http://purl.org/dc/elements/1.1/"
   xmlns:cc="http://creativecommons.org/ns#"
   xmlns:rdf="http://www.w3.org/1999/02/22-rdf-syntax-ns#"
   xmlns:svg="http://www.w3.org/2000/svg"
   xmlns="http://www.w3.org/2000/svg"
   xmlns:sodipodi="http://sodipodi.sourceforge.net/DTD/sodipodi-0.dtd"
   xmlns:inkscape="http://www.inkscape.org/namespaces/inkscape"
   version="1.1"
   x="0px"
   y="0px"
   width="48px"
   height="48px"
   viewBox="0 0 48 48"
   enable-background="new 0 0 48 48"
   xml:space="preserve"
   id="svg2"
   inkscape:version="0.91 r13725"
   sodipodi:docname="hub-almacen-articulos.svg"><metadata
     id="metadata20"><rdf:RDF><cc:Work
         rdf:about=""><dc:format>image/svg+xml</dc:format><dc:type
           rdf:resource="http://purl.org/dc/dcmitype/StillImage" /><dc:title /></cc:Work></rdf:RDF></metadata><defs
     id="defs18" /><sodipodi:namedview
     pagecolor="#ffffff"
     bordercolor="#666666"
     borderopacity="1"
     objecttolerance="10"
     gridtolerance="10"
     guidetolerance="10"
     inkscape:pageopacity="0"
     inkscape:pageshadow="2"
     inkscape:window-width="1855"
     inkscape:window-height="1056"
     id="namedview16"
     showgrid="false"
     inkscape:zoom="18.32"
     inkscape:cx="24"
     inkscape:cy="24"
     inkscape:window-x="65"
     inkscape:window-y="24"
     inkscape:window-maximized="1"
     inkscape:current-layer="g4146" /><ellipse
     style="opacity:0.96700003;fill:#00d1b2;fill-opacity:1;stroke:none;stroke-width:2.70000005;stroke-miterlimit:4;stroke-dasharray:none;stroke-opacity:0.90196078"
     id="path5981"
     cx="23.962938"
     cy="24.025785"
     rx="23.890522"
     ry="23.974215" /><g
     id="g4146"
     transform="matrix(0.87359228,0,0,0.87359228,2.9993105,0.95954953)"><path
       id="path4"
       d="M 24.312418,8.3359579 6.5737274,18.881609 l 0,21.383992 35.4773806,0 0,-21.383992 -17.73869,-10.5456511 z"
       inkscape:connector-curvature="0"
       style="fill:#ffffff;fill-opacity:0.81568627" /><path
       style="fill:#000000;fill-opacity:1"
       id="path6"
       d="M 42.938043,21.682549 24.312418,10.996762 5.6867929,21.682549 l 0,-4.477246 18.6256251,-10.6432141 0,0 18.625625,10.6432141 0,4.477246 z"
       inkscape:connector-curvature="0" /><rect
       id="rect14"
       height="1.773869"
       width="35.477379"
       y="38.49173"
       x="6.5737276"
       style="fill:#a9a9a9" /><rect
       id="rect8"
       height="15.964821"
       width="26.608036"
       y="24.135416"
       x="11.369189"
       style="fill:#808080" /><polygon
       id="polygon10"
       points="39,24 37,24 11,24 9,24 9,26 9,42 11,42 11,26 37,26 37,42 39,42 39,26 "
       style="fill:#696969"
       transform="matrix(0.88693452,0,0,0.88693452,3.3867803,2.8489905)" /><rect
       id="rect14-7"
       height="3.5477381"
       width="5.3216071"
       y="17.05497"
       x="21.471222"
       style="fill:#696969" /><path
       id="path16"
       d="m 37.977226,31.230894 -26.608035,0 0,-1.773869 26.608035,0 0,1.773869 z m 0,1.77387 -26.608035,0 0,1.773869 26.608035,0 0,-1.773869 z m 0,3.547738 -26.608035,0 0,1.773869 26.608035,0 0,-1.773869 z m 0,-10.643215 -26.608035,0 0,1.773869 26.608035,0 0,-1.773869 z"
       style="fill:#a9a9a9"
       inkscape:connector-curvature="0" /><path
       id="path18"
       d="m 37.977226,27.683156 -1.773869,0 0,-1.773869 1.773869,0 0,1.773869 z m 0,1.773869 -1.773869,0 0,1.773869 1.773869,0 0,-1.773869 z m 0,3.547739 -1.773869,0 0,1.773869 1.773869,0 0,-1.773869 z m 0,3.547738 -1.773869,0 0,1.773869 1.773869,0 0,-1.773869 z M 13.14306,25.909287 l -1.773869,0 0,1.773869 1.773869,0 0,-1.773869 z m 0,3.547738 -1.773869,0 0,1.773869 1.773869,0 0,-1.773869 z m 0,3.547739 -1.773869,0 0,1.773869 1.773869,0 0,-1.773869 z m 0,3.547738 -1.773869,0 0,1.773869 1.773869,0 0,-1.773869 z"
       style="fill:#808080"
       inkscape:connector-curvature="0" /></g></svg>