<svg width="100%" height="100%" viewBox="0 0 48 48" version="1.1" xmlns="http://www.w3.org/2000/svg" xmlns:xlink="http://www.w3.org/1999/xlink" xml:space="preserve" style="fill-rule:evenodd;clip-rule:evenodd;stroke-linejoin:round;stroke-miterlimit:1.41421;"><rect x="10" y="7" width="28" height="7" style="fill:#d17a00;"/><g><path d="M10,21l-4,0l0,-8l4,-6l0,14Z" style="fill:#8a5100;fill-rule:nonzero;"/><path d="M38,21l4,0l0,-8l-4,-6l0,14Z" style="fill:#8a5100;fill-rule:nonzero;"/></g><path d="M40,41l-32,0c-1.1,0 -2,-0.9 -2,-2l0,-26l36,0l0,26c0,1.1 -0.9,2 -2,2Z" style="fill:#ff9800;fill-rule:nonzero;"/><path d="M27.5,20l-7,0c-0.8,0 -1.5,-0.7 -1.5,-1.5c0,-0.8 0.7,-1.5 1.5,-1.5l7,0c0.8,0 1.5,0.7 1.5,1.5c0,0.8 -0.7,1.5 -1.5,1.5Z" style="fill:#8a5100;fill-rule:nonzero;"/><path d="M12.647,27.64l4.417,-0.007c0,0 0.659,0.658 0.661,1.975c0.002,1.317 -0.656,1.976 -0.656,1.976l-4.416,0.006c0.933,1.555 2.859,2.63 4.697,2.628c1.699,-0.003 2.593,-0.926 2.999,-2.295c0.069,-0.232 0.267,-0.695 1.02,-0.696c3.905,-0.006 11.711,0.411 11.853,0.41c1.179,-0.002 2.133,-0.922 2.131,-2.055c-0.002,-1.133 -0.959,-2.051 -2.137,-2.049c-0.144,0 -8.116,0.45 -11.954,0.455c-0.713,0.001 -0.834,-0.401 -0.891,-0.604c-0.397,-1.422 -1.295,-2.387 -3.035,-2.384c-1.837,0.002 -3.76,1.083 -4.689,2.64Zm20.961,1.302c0.356,0.354 0.357,0.93 0.002,1.285c-0.355,0.356 -0.93,0.357 -1.285,0.002c-0.356,-0.354 -0.357,-0.93 -0.002,-1.285c0.354,-0.356 0.93,-0.357 1.285,-0.002Z" style="fill:#663c00;fill-rule:nonzero;"/></svg>