<?xml version="1.0" encoding="UTF-8" standalone="no"?>
<svg
   xmlns:dc="http://purl.org/dc/elements/1.1/"
   xmlns:cc="http://creativecommons.org/ns#"
   xmlns:rdf="http://www.w3.org/1999/02/22-rdf-syntax-ns#"
   xmlns:svg="http://www.w3.org/2000/svg"
   xmlns="http://www.w3.org/2000/svg"
   xmlns:sodipodi="http://sodipodi.sourceforge.net/DTD/sodipodi-0.dtd"
   xmlns:inkscape="http://www.inkscape.org/namespaces/inkscape"
   width="100%"
   height="100%"
   viewBox="0 0 48 48"
   version="1.1"
   xml:space="preserve"
   style="fill-rule:evenodd;clip-rule:evenodd;stroke-linejoin:round;stroke-miterlimit:1.41421;"
   id="svg2"
   inkscape:version="0.91 r13725"
   sodipodi:docname="icono-recetas.svg"><metadata
     id="metadata35"><rdf:RDF><cc:Work
         rdf:about=""><dc:format>image/svg+xml</dc:format><dc:type
           rdf:resource="http://purl.org/dc/dcmitype/StillImage" /></cc:Work></rdf:RDF></metadata><defs
     id="defs33" /><sodipodi:namedview
     pagecolor="#ffffff"
     bordercolor="#666666"
     borderopacity="1"
     objecttolerance="10"
     gridtolerance="10"
     guidetolerance="10"
     inkscape:pageopacity="0"
     inkscape:pageshadow="2"
     inkscape:window-width="1855"
     inkscape:window-height="1056"
     id="namedview31"
     showgrid="false"
     inkscape:zoom="19.145833"
     inkscape:cx="24"
     inkscape:cy="24"
     inkscape:window-x="1985"
     inkscape:window-y="24"
     inkscape:window-maximized="1"
     inkscape:current-layer="svg2" /><ellipse
     style="clip-rule:evenodd;opacity:0.96700003;fill:#00d1b2;fill-opacity:1;fill-rule:evenodd;stroke:none;stroke-width:2.70000005;stroke-linejoin:round;stroke-miterlimit:4;stroke-dasharray:none;stroke-opacity:0.90196078"
     id="path5981"
     cx="23.869425"
     cy="23.921654"
     rx="23.890522"
     ry="23.974215" /><g
     id="Capa2"
     transform="matrix(0.75038095,0,0,0.75038095,6.2853098,6.0739941)"><path
       inkscape:connector-curvature="0"
       d="m 39,31.286 c 0,0.474 -0.383,0.857 -0.857,0.857 l -34.286,0 C 3.383,32.143 3,31.76 3,31.286 L 3,10.714 C 3,10.24 3.383,9.857 3.857,9.857 l 34.286,0 c 0.474,0 0.857,0.383 0.857,0.857 l 0,20.572 z"
       style="fill:#808080;fill-rule:nonzero"
       id="path5" /><rect
       x="4.7140002"
       y="11.571"
       width="32.570999"
       height="18.857"
       style="fill:#e5f6f0;fill-opacity:1"
       id="rect7" /></g><g
     id="Capa21"
     transform="matrix(0.75038095,0,0,0.75038095,6.2853098,6.0739941)"><path
       inkscape:connector-curvature="0"
       d="m 42,34.286 c 0,0.474 -0.383,0.857 -0.857,0.857 l -34.286,0 C 6.383,35.143 6,34.76 6,34.286 L 6,13.714 C 6,13.24 6.383,12.857 6.857,12.857 l 34.286,0 c 0.474,0 0.857,0.383 0.857,0.857 l 0,20.572 z"
       style="fill:#808080;fill-rule:nonzero"
       id="path10" /><rect
       x="7.7140002"
       y="14.571"
       width="32.570999"
       height="18.857"
       style="fill:#e5f6f0;fill-opacity:1"
       id="rect12" /></g><g
     id="Capa22"
     transform="matrix(0.75038095,0,0,0.75038095,6.2853098,6.0739941)"><path
       inkscape:connector-curvature="0"
       d="m 45,37.286 c 0,0.474 -0.383,0.857 -0.857,0.857 l -34.286,0 C 9.383,38.143 9,37.76 9,37.286 L 9,16.714 C 9,16.24 9.383,15.857 9.857,15.857 l 34.286,0 c 0.474,0 0.857,0.383 0.857,0.857 l 0,20.572 z"
       style="fill:#808080;fill-rule:nonzero"
       id="path15" /><rect
       x="10.714"
       y="17.570999"
       width="32.570999"
       height="18.857"
       style="fill:#e5f6f0;fill-opacity:1"
       id="rect17" /><rect
       x="13.286"
       y="21.857"
       width="15.429"
       height="1.714"
       style="fill:#a9a9a9"
       id="rect19" /><rect
       x="13.286"
       y="25.285999"
       width="10.286"
       height="1.714"
       style="fill:#a9a9a9"
       id="rect21" /><g
       id="g23"><rect
         x="32.143002"
         y="26.143"
         width="8.5710001"
         height="3.4289999"
         style="fill:#f44336"
         id="rect25" /><rect
         x="34.714001"
         y="23.570999"
         width="3.4289999"
         height="8.5710001"
         style="fill:#f44336"
         id="rect27" /></g><path
       inkscape:connector-curvature="0"
       d="m 16.404,27 c -0.382,0 -0.874,0.281 -1.308,0.83 -0.433,0.55 -0.782,1.38 -0.782,2.513 0,0.527 0.169,1.13 0.482,1.618 0.08,0.124 0.174,0.237 0.274,0.343 -0.389,0.496 -0.708,0.873 -0.708,0.873 -0.043,0.032 -0.069,0.083 -0.069,0.137 0,0.094 0.078,0.172 0.172,0.172 0.058,0 0.112,-0.03 0.144,-0.079 0,0 0.323,-0.381 0.718,-0.884 0.247,0.183 0.531,0.306 0.857,0.306 0.532,0 1.036,-0.262 1.473,-0.633 0.08,-0.067 0.144,-0.155 0.22,-0.23 0.134,0.103 0.289,0.177 0.466,0.177 0.271,0 0.51,-0.135 0.718,-0.311 0.207,-0.175 0.393,-0.397 0.557,-0.616 0.164,-0.219 0.309,-0.431 0.428,-0.584 0.052,-0.066 0.097,-0.109 0.134,-0.144 0.011,0.106 0.006,0.275 -0.005,0.444 -0.011,0.169 -0.027,0.341 -0.027,0.482 0.001,0.071 0.005,0.133 0.022,0.199 0.008,0.032 0.016,0.067 0.048,0.107 0.032,0.039 0.102,0.08 0.166,0.08 0.209,0 0.368,-0.121 0.509,-0.262 0.14,-0.142 0.275,-0.316 0.418,-0.483 0.285,-0.333 0.593,-0.626 1.06,-0.626 0.001,0 0.002,0 0.003,0 0.094,0 0.171,-0.078 0.171,-0.172 0,-0.094 -0.077,-0.171 -0.171,-0.171 -10e-4,0 -0.002,0 -0.003,0 -0.612,0 -1.021,0.392 -1.323,0.744 -0.151,0.177 -0.281,0.345 -0.396,0.461 -0.069,0.069 -0.111,0.071 -0.161,0.097 0.001,-0.115 0.017,-0.271 0.027,-0.434 0.011,-0.174 0.016,-0.348 0,-0.499 -0.008,-0.075 -0.017,-0.148 -0.054,-0.219 -0.036,-0.071 -0.132,-0.15 -0.235,-0.15 -0.115,0 -0.19,0.058 -0.258,0.118 -0.067,0.059 -0.132,0.129 -0.198,0.214 -0.132,0.169 -0.276,0.385 -0.434,0.595 -0.157,0.209 -0.325,0.416 -0.498,0.562 -0.173,0.146 -0.341,0.225 -0.498,0.225 -0.086,0 -0.165,-0.022 -0.236,-0.07 0.243,-0.276 0.467,-0.567 0.643,-0.873 0.281,-0.486 0.464,-0.968 0.509,-1.361 0.022,-0.196 0.015,-0.378 -0.064,-0.53 -0.08,-0.152 -0.252,-0.252 -0.44,-0.252 -0.376,0 -0.723,0.247 -0.969,0.611 -0.247,0.364 -0.402,0.859 -0.402,1.414 0,0.361 0.077,0.694 0.236,0.954 0.006,0.011 0.019,0.016 0.026,0.027 -0.072,0.071 -0.139,0.156 -0.214,0.219 -0.398,0.337 -0.829,0.547 -1.248,0.547 -0.241,0 -0.455,-0.095 -0.648,-0.236 0.159,-0.211 0.297,-0.37 0.466,-0.621 0.694,-1.035 1.398,-2.36 1.398,-3.568 0,-0.137 -0.014,-0.386 -0.15,-0.622 C 17.114,27.203 16.83,27 16.404,27 Z m 0,0.343 c 0.327,0 0.459,0.118 0.546,0.268 0.087,0.15 0.107,0.346 0.107,0.45 0,1.071 -0.667,2.365 -1.344,3.375 -0.153,0.227 -0.273,0.368 -0.418,0.562 -0.069,-0.078 -0.15,-0.132 -0.209,-0.225 -0.274,-0.425 -0.429,-0.98 -0.429,-1.43 0,-1.062 0.328,-1.816 0.713,-2.304 0.385,-0.488 0.849,-0.696 1.034,-0.696 z m 2.351,1.714 c 0.091,0 0.106,0.015 0.134,0.07 0.029,0.054 0.05,0.169 0.032,0.327 -0.035,0.314 -0.207,0.775 -0.471,1.232 -0.156,0.27 -0.347,0.531 -0.557,0.777 -0.101,-0.188 -0.166,-0.44 -0.166,-0.724 0,-0.49 0.139,-0.921 0.343,-1.221 0.203,-0.3 0.462,-0.461 0.685,-0.461 z m -4.612,5.143 0,0.343 8.571,0 0,-0.343 -8.571,0 z"
       style="fill-rule:nonzero;stroke:#000000;stroke-width:0.66632819px"
       id="path29" /></g></svg>