<?xml version="1.0" encoding="UTF-8" standalone="no"?>
<svg
   xmlns:dc="http://purl.org/dc/elements/1.1/"
   xmlns:cc="http://creativecommons.org/ns#"
   xmlns:rdf="http://www.w3.org/1999/02/22-rdf-syntax-ns#"
   xmlns:svg="http://www.w3.org/2000/svg"
   xmlns="http://www.w3.org/2000/svg"
   xmlns:sodipodi="http://sodipodi.sourceforge.net/DTD/sodipodi-0.dtd"
   xmlns:inkscape="http://www.inkscape.org/namespaces/inkscape"
   version="1.1"
   id="Layer_1"
   x="0px"
   y="0px"
   viewBox="0 0 40 40"
   style="enable-background:new 0 0 40 40;"
   xml:space="preserve"
   inkscape:version="0.91 r13725"
   sodipodi:docname="icono-inventario-gral.svg"><metadata
     id="metadata25"><rdf:RDF><cc:Work
         rdf:about=""><dc:format>image/svg+xml</dc:format><dc:type
           rdf:resource="http://purl.org/dc/dcmitype/StillImage" /><dc:title></dc:title></cc:Work></rdf:RDF></metadata><defs
     id="defs23" /><sodipodi:namedview
     pagecolor="#ffffff"
     bordercolor="#666666"
     borderopacity="1"
     objecttolerance="10"
     gridtolerance="10"
     guidetolerance="10"
     inkscape:pageopacity="0"
     inkscape:pageshadow="2"
     inkscape:window-width="1855"
     inkscape:window-height="1056"
     id="namedview21"
     showgrid="false"
     inkscape:zoom="11.8"
     inkscape:cx="20.526833"
     inkscape:cy="26.250027"
     inkscape:window-x="1985"
     inkscape:window-y="24"
     inkscape:window-maximized="1"
     inkscape:current-layer="Layer_1" /><g
     id="g3"><path
       style="fill:#98CCFD;"
       d="M6.5,37.5v-35H35c0.275,0,0.5,0.224,0.5,0.5v34c0,0.276-0.225,0.5-0.5,0.5H6.5z"
       id="path5" /><g
       id="g7"><path
         style="fill:#4788C7;"
         d="M35,3v34H7V3H35 M35,2H6v36h29c0.552,0,1-0.448,1-1V3C36,2.448,35.552,2,35,2L35,2z"
         id="path9" /></g></g><g
     id="g11"><path
       style="fill:#4788C7;"
       d="M9,38H5c-0.552,0-1-0.448-1-1V3c0-0.552,0.448-1,1-1h4V38z"
       id="path13" /></g><rect
     x="14"
     y="8"
     style="fill:#ffffff"
     width="15"
     height="10"
     id="rect15" /><path
     style="fill:#4788c7"
     d="m 26.5,12 -10,0 C 16.225,12 16,11.775 16,11.5 l 0,0 C 16,11.225 16.225,11 16.5,11 l 10,0 c 0.275,0 0.5,0.225 0.5,0.5 l 0,0 c 0,0.275 -0.225,0.5 -0.5,0.5 z"
     id="path17"
     inkscape:connector-curvature="0" /><path
     style="fill:#4788c7"
     d="m 26.5,15 -10,0 C 16.225,15 16,14.775 16,14.5 l 0,0 C 16,14.225 16.225,14 16.5,14 l 10,0 c 0.275,0 0.5,0.225 0.5,0.5 l 0,0 c 0,0.275 -0.225,0.5 -0.5,0.5 z"
     id="path19"
     inkscape:connector-curvature="0" /><g
     id="g4209"
     transform="matrix(0.39736347,0,0,0.39736347,-1.9568136,20.891028)"><path
       id="path4"
       d="m 72.237288,26.525424 -26,0 c -1.105,0 -2,-0.895 -2,-2 l 0,-24.00000027 c 0,-1.105 0.895,-2.00000003 2,-2.00000003 l 26,0 c 1.105,0 2,0.89500003 2,2.00000003 l 0,24.00000027 c 0,1.105 -0.895,2 -2,2"
       style="fill:#ff9800"
       inkscape:connector-curvature="0" /><path
       id="path6"
       d="m 77.237288,8.5254237 -36,0 c -2.209,0 -4,1.7910003 -4,4.0000003 l 0,18 c 0,2.209 1.791,4 4,4 l 36,0 c 2.209,0 4,-1.791 4,-4 l 0,-18 c 0,-2.209 -1.791,-4.0000003 -4,-4.0000003"
       style="fill:#ff1744"
       inkscape:connector-curvature="0" /><path
       id="path8"
       d="m 62.737288,4.5254237 -7,0 c -0.828,0 -1.5,-0.672 -1.5,-1.5 0,-0.828 0.672,-1.5 1.5,-1.5 l 7,0 c 0.828,0 1.5,0.672 1.5,1.5 0,0.828 -0.672,1.5 -1.5,1.5"
       style="fill:#8a5100"
       inkscape:connector-curvature="0" /><path
       id="path10-3"
       d="m 77.237288,13.525424 c 0,-0.552 -0.448,-1 -1,-1 l -34,0 c -0.552,0 -1,0.448 -1,1 l 0,16 c 0,0.552 0.448,1 1,1 l 34,0 c 0.552,0 1,-0.448 1,-1 l 0,-16 z"
       style="fill:#ffcdd2"
       inkscape:connector-curvature="0" /><path
       id="path12-6"
       d="m 74.237288,24.525424 0,-12 -30,0 0,12 c 0,1.105 0.895,2 2,2 l 26,0 c 1.105,0 2,-0.895 2,-2 z"
       style="fill:#ef9a9a"
       inkscape:connector-curvature="0" /><g
       id="g14"
       transform="translate(35.237288,-7.4745763)"><g
         id="g16"><path
           id="path18-7"
           d="m 25,28 0,1 -1,0 0,-1 1,0 m 2,-2 -5,0 0,5 5,0 0,-5 0,0 z"
           inkscape:connector-curvature="0"
           style="fill:#37474f" /></g><rect
         id="rect20"
         height="4"
         width="2"
         y="21"
         x="28"
         style="fill:#37474f" /><rect
         id="rect22"
         height="2"
         width="2"
         y="23"
         x="32"
         style="fill:#37474f" /><rect
         id="rect24"
         height="4"
         width="2"
         y="25"
         x="34"
         style="fill:#37474f" /><rect
         id="rect26"
         height="4"
         width="2"
         y="27"
         x="29"
         style="fill:#37474f" /><rect
         id="rect28"
         height="2"
         width="2"
         y="25"
         x="30"
         style="fill:#37474f" /><rect
         id="rect30"
         height="2"
         width="3"
         y="28"
         x="33"
         style="fill:#37474f" /><rect
         id="rect32"
         height="2"
         width="7"
         y="23"
         x="23"
         style="fill:#37474f" /><g
         id="g34"><polygon
           id="polygon36"
           points="27,22 27,20 25,20 24,20 22,20 22,22 "
           style="fill:#37474f" /><polygon
           id="polygon38"
           points="36,22 36,20 34,20 33,20 31,20 31,22 "
           style="fill:#37474f" /></g></g></g></svg>