<svg xmlns="http://www.w3.org/2000/svg" xmlns:xlink="http://www.w3.org/1999/xlink" viewBox="0 0 24 24" version="1.1">
<g id="surface1">
<path style=" " d="M 11.25 2.0625 L 7.96875 3.5 L 8.875 5.625 C 6.527344 7.28125 5 9.976563 5 13 C 5 15.820313 6.324219 18.347656 8.375 20 L 7 20 L 7 22 L 19 22 L 19 20 L 15 20 L 18.6875 18.40625 L 17.90625 16.59375 L 11.28125 19.4375 C 10.820313 19.242188 10.402344 19.003906 10 18.71875 C 10.511719 18.421875 10.875 17.917969 10.96875 17.3125 L 17.09375 14.625 L 16.28125 12.78125 L 10.25 15.46875 C 9.90625 15.1875 9.480469 15 9 15 C 8.414063 15 7.898438 15.257813 7.53125 15.65625 C 7.191406 14.835938 7 13.941406 7 13 C 7 10.789063 8.042969 8.804688 9.6875 7.5 L 10.75 9.9375 L 14.0625 8.5 Z M 14.5 9.40625 L 11.1875 10.90625 L 12.5 12.09375 L 14.5 11.1875 Z "></path>
</g>
</svg>