<?xml version="1.0" encoding="UTF-8" standalone="no"?>
<svg xmlns="http://www.w3.org/2000/svg" width="50" height="50" viewBox="0 0 50 50">
    <path d="M 1 0 C 0.448 0 0 0.448 0 1 L 0 49 C 0 49.553 0.448 50 1 50 C 1.072 50 1.1195 49.98375 1.1875 49.96875 L 1.1875 50 L 4.5625 50 C 4.5625 50 5.0325 48.2795 5.3125 47.8125 C 5.5925 47.3475 6.0785 46.1255 8.3125 46.3125 C 10.5455 46.4985 13.54425 47.05925 15.40625 46.78125 C 17.26725 46.50125 17.7205 45.3065 17.8125 44.5625 C 17.9065 43.8185 17.34375 41.46875 17.34375 41.46875 C 17.34375 41.46875 18.445 40.889 18.75 40.75 C 19.199 40.547 19.1065 39.83475 18.6875 39.59375 C 15.7875 38.48275 14.78125 36.5 14.78125 36.5 C 14.78125 36.5 18.189 36.008 19.25 35.75 C 19.985 35.57 20.1875 35.183 20.1875 34.625 C 20.1875 34.065 19.5 31.78125 19.5 31.78125 C 19.5 31.78125 23 31.2585 23 29.9375 C 23 29.0065 22.2755 28.241 21.4375 27.125 C 20.6005 26.008 18.39975 23.11325 17.96875 22.40625 C 17.53775 21.69925 17.69225 21.05725 18.15625 20.40625 C 18.62125 19.75525 19.2725 19.48575 18.8125 17.84375 C 18.5885 17.04475 16.9375 12.0625 16.9375 12.0625 C 19.0855 10.0545 18.71225 0.46025 1.15625 0.03125 C 1.10825 0.02425 1.05 2.3129646e-18 1 0 z M 36.03125 21.96875 A 1.0001 1.0001 0 0 0 35.8125 22 A 1.0001 1.0001 0 0 0 35 22.84375 L 31.8125 41.15625 L 28.96875 29.75 A 1.0001 1.0001 0 0 0 27.0625 29.65625 L 24.3125 37 L 23 37 A 1.0001 1.0001 0 1 0 23 39 L 25 39 A 1.0001 1.0001 0 0 0 25.9375 38.34375 L 27.8125 33.34375 L 31.03125 46.25 A 1.0001 1.0001 0 0 0 33 46.15625 L 36.1875 27.84375 L 40.03125 43.25 A 1.0001 1.0001 0 0 0 41.96875 43.25 L 44.96875 32 L 48.03125 44.25 A 1.0004882 1.0004882 0 1 0 49.96875 43.75 L 45.96875 27.75 A 1.0001 1.0001 0 0 0 44.03125 27.75 L 41.03125 39 L 36.96875 22.75 A 1.0001 1.0001 0 0 0 36.03125 21.96875 z"></path>
</svg>