<?xml version="1.0" encoding="UTF-8" standalone="no"?><!DOCTYPE svg PUBLIC "-//W3C//DTD SVG 1.1//EN" "http://www.w3.org/Graphics/SVG/1.1/DTD/svg11.dtd"><svg width="100%" height="100%" viewBox="0 0 640 100" version="1.1" xmlns="http://www.w3.org/2000/svg" xmlns:xlink="http://www.w3.org/1999/xlink" xml:space="preserve" style="fill-rule:evenodd;clip-rule:evenodd;stroke-linejoin:round;stroke-miterlimit:1.41421;"><rect x="0" y="0" width="640" height="25" style="fill:#19eacb;"/><rect x="0" y="75" width="640" height="25" style="fill:#00d1b2;"/><rect x="0" y="50" width="640" height="25" style="fill:#09dabb;"/><rect x="0" y="25" width="640" height="25" style="fill:#0edfc0;"/><g><path d="M60,80l20,20l-40,0l20,-20Z" style="fill:#00c5a6;"/><path d="M20,80l20,20l-40,0l20,-20Z" style="fill:#00c5a6;"/><path d="M100,80l-20,20l40,0l-20,-20Z" style="fill:#00c5a6;"/><path d="M140,80l-20,20l40,0l-20,-20Z" style="fill:#00c5a6;"/><path d="M260,80l-20,20l40,0l-20,-20Z" style="fill:#00c5a6;"/><path d="M300,80l-20,20l40,0l-20,-20Z" style="fill:#00c5a6;"/><path d="M220,80l20,20l-40,0l20,-20Z" style="fill:#00c5a6;"/><path d="M180,80l20,20l-40,0l20,-20Z" style="fill:#00c5a6;"/></g><g><path d="M380,80l20,20l-40,0l20,-20Z" style="fill:#00c5a6;"/><path d="M340,80l20,20l-40,0l20,-20Z" style="fill:#00c5a6;"/><path d="M420,80l-20,20l40,0l-20,-20Z" style="fill:#00c5a6;"/><path d="M460,80l-20,20l40,0l-20,-20Z" style="fill:#00c5a6;"/><path d="M580,80l-20,20l40,0l-20,-20Z" style="fill:#00c5a6;"/><path d="M620,80l-20,20l40,0l-20,-20Z" style="fill:#00c5a6;"/><path d="M540,80l20,20l-40,0l20,-20Z" style="fill:#00c5a6;"/><path d="M500,80l20,20l-40,0l20,-20Z" style="fill:#00c5a6;"/></g><path d="M72,27.5c0,-8.279 -6.721,-15 -15,-15l-30,0c-8.279,0 -15,6.721 -15,15l0,30c0,8.279 6.721,15 15,15l30,0c8.279,0 15,-6.721 15,-15l0,-30Z" style="fill:#00c5a6;"/><clipPath id="_clip1"><path d="M72,27.5c0,-8.279 -6.721,-15 -15,-15l-30,0c-8.279,0 -15,6.721 -15,15l0,30c0,8.279 6.721,15 15,15l30,0c8.279,0 15,-6.721 15,-15l0,-30Z"/></clipPath><g clip-path="url(#_clip1)"><g><path d="M42,24.5c9.934,0 18,8.066 18,18c0,9.934 -8.066,18 -18,18c-9.934,0 -18,-8.066 -18,-18c0,-9.934 8.066,-18 18,-18Zm0,3c8.279,0 15,6.721 15,15c0,8.279 -6.721,15 -15,15c-8.279,0 -15,-6.721 -15,-15c0,-8.279 6.721,-15 15,-15Z" style="fill:#fff;"/><path d="M42,33.5c4.967,0 9,4.033 9,9c0,4.967 -4.033,9 -9,9c-4.967,0 -9,-4.033 -9,-9c0,-4.967 4.033,-9 9,-9Zm0,3c3.311,0 6,2.689 6,6c0,3.311 -2.689,6 -6,6c-3.311,0 -6,-2.689 -6,-6c0,-3.311 2.689,-6 6,-6Z" style="fill:#fff;"/><path d="M25.56,23.938l-2.122,2.122l35.002,35.002l2.122,-2.122l-35.002,-35.002Z" style="fill:#fff;"/><path d="M60.562,26.06l-2.122,-2.122l-35.002,35.002l2.122,2.122l35.002,-35.002Z" style="fill:#fff;"/></g></g></svg>