<?xml version="1.0" encoding="UTF-8" standalone="no"?><!DOCTYPE svg PUBLIC "-//W3C//DTD SVG 1.1//EN" "http://www.w3.org/Graphics/SVG/1.1/DTD/svg11.dtd"><svg width="100%" height="100%" viewBox="0 0 640 200" version="1.1" xmlns="http://www.w3.org/2000/svg" xmlns:xlink="http://www.w3.org/1999/xlink" xml:space="preserve" style="fill-rule:evenodd;clip-rule:evenodd;stroke-linejoin:round;stroke-miterlimit:1.41421;"><rect x="0" y="0" width="640" height="50" style="fill:#19eacb;"/><rect x="0" y="150" width="640" height="50" style="fill:#00d1b2;"/><rect x="0" y="100" width="640" height="50" style="fill:#09dabb;"/><rect x="0" y="50" width="640" height="50" style="fill:#0edfc0;"/><g><path d="M120,160l40,40l-80,0l40,-40Z" style="fill:#00c5a6;"/><path d="M40,160l40,40l-80,0l40,-40Z" style="fill:#00c5a6;"/><path d="M200,160l-40,40l80,0l-40,-40Z" style="fill:#00c5a6;"/><path d="M280,160l-40,40l80,0l-40,-40Z" style="fill:#00c5a6;"/><path d="M520,160l-40,40l80,0l-40,-40Z" style="fill:#00c5a6;"/><path d="M600,160l-40,40l80,0l-40,-40Z" style="fill:#00c5a6;"/><path d="M440,160l40,40l-80,0l40,-40Z" style="fill:#00c5a6;"/><path d="M360,160l40,40l-80,0l40,-40Z" style="fill:#00c5a6;"/></g><path d="M384,68c0,-17.661 -14.339,-32 -32,-32l-64,0c-17.661,0 -32,14.339 -32,32l0,64c0,17.661 14.339,32 32,32l64,0c17.661,0 32,-14.339 32,-32l0,-64Z" style="fill:#00c5a6;"/><clipPath id="_clip1"><path d="M384,68c0,-17.661 -14.339,-32 -32,-32l-64,0c-17.661,0 -32,14.339 -32,32l0,64c0,17.661 14.339,32 32,32l64,0c17.661,0 32,-14.339 32,-32l0,-64Z"/></clipPath><g clip-path="url(#_clip1)"><g><path d="M320,61.6c21.194,0 38.4,17.206 38.4,38.4c0,21.194 -17.206,38.4 -38.4,38.4c-21.194,0 -38.4,-17.206 -38.4,-38.4c0,-21.194 17.206,-38.4 38.4,-38.4Zm0,6.4c17.661,0 32,14.339 32,32c0,17.661 -14.339,32 -32,32c-17.661,0 -32,-14.339 -32,-32c0,-17.661 14.339,-32 32,-32Z" style="fill:#fff;"/><path d="M320,80.8c10.597,0 19.2,8.603 19.2,19.2c0,10.597 -8.603,19.2 -19.2,19.2c-10.597,0 -19.2,-8.603 -19.2,-19.2c0,-10.597 8.603,-19.2 19.2,-19.2Zm0,6.4c7.065,0 12.8,5.735 12.8,12.8c0,7.065 -5.735,12.8 -12.8,12.8c-7.065,0 -12.8,-5.735 -12.8,-12.8c0,-7.065 5.735,-12.8 12.8,-12.8Z" style="fill:#fff;"/><path d="M284.928,60.402l-4.526,4.526l74.67,74.67l4.526,-4.526l-74.67,-74.67Z" style="fill:#fff;"/><path d="M359.598,64.928l-4.526,-4.526l-74.67,74.67l4.526,4.526l74.67,-74.67Z" style="fill:#fff;"/></g></g></svg>