<?xml version="1.0" encoding="UTF-8" standalone="no"?><!DOCTYPE svg PUBLIC "-//W3C//DTD SVG 1.1//EN" "http://www.w3.org/Graphics/SVG/1.1/DTD/svg11.dtd"><svg width="100%" height="100%" viewBox="0 0 640 320" version="1.1" xmlns="http://www.w3.org/2000/svg" xmlns:xlink="http://www.w3.org/1999/xlink" xml:space="preserve" style="fill-rule:evenodd;clip-rule:evenodd;stroke-linejoin:round;stroke-miterlimit:1.41421;"><rect x="0" y="0" width="640" height="80" style="fill:#19eacb;"/><rect x="0" y="240" width="640" height="80" style="fill:#00d1b2;"/><rect x="0" y="160" width="640" height="80" style="fill:#09dabb;"/><rect x="0" y="80" width="640" height="80" style="fill:#0edfc0;"/><g><path d="M120,280l40,40l-80,0l40,-40Z" style="fill:#00c5a6;"/><path d="M40,280l40,40l-80,0l40,-40Z" style="fill:#00c5a6;"/><path d="M200,280l-40,40l80,0l-40,-40Z" style="fill:#00c5a6;"/><path d="M280,280l-40,40l80,0l-40,-40Z" style="fill:#00c5a6;"/><path d="M520,280l-40,40l80,0l-40,-40Z" style="fill:#00c5a6;"/><path d="M600,280l-40,40l80,0l-40,-40Z" style="fill:#00c5a6;"/><path d="M440,280l40,40l-80,0l40,-40Z" style="fill:#00c5a6;"/><path d="M360,280l40,40l-80,0l40,-40Z" style="fill:#00c5a6;"/></g><path d="M420,110c0,-27.596 -22.404,-50 -50,-50l-100,0c-27.596,0 -50,22.404 -50,50l0,100c0,27.596 22.404,50 50,50l100,0c27.596,0 50,-22.404 50,-50l0,-100Z" style="fill:#00c5a6;"/><g><path d="M320,100c33.115,0 60,26.885 60,60c0,33.115 -26.885,60 -60,60c-33.115,0 -60,-26.885 -60,-60c0,-33.115 26.885,-60 60,-60Zm0,10c27.596,0 50,22.404 50,50c0,27.596 -22.404,50 -50,50c-27.596,0 -50,-22.404 -50,-50c0,-27.596 22.404,-50 50,-50Z" style="fill:#fff;"/><path d="M320,130c16.557,0 30,13.443 30,30c0,16.557 -13.443,30 -30,30c-16.557,0 -30,-13.443 -30,-30c0,-16.557 13.443,-30 30,-30Zm0,10c11.038,0 20,8.962 20,20c0,11.038 -8.962,20 -20,20c-11.038,0 -20,-8.962 -20,-20c0,-11.038 8.962,-20 20,-20Z" style="fill:#fff;"/><path d="M265.199,98.128l-7.071,7.071l116.673,116.673l7.071,-7.071l-116.673,-116.673Z" style="fill:#fff;"/><path d="M381.872,105.199l-7.071,-7.071l-116.673,116.673l7.071,7.071l116.673,-116.673Z" style="fill:#fff;"/></g></svg>