<?xml version="1.0" encoding="UTF-8" standalone="no"?>
<svg
   xmlns:dc="http://purl.org/dc/elements/1.1/"
   xmlns:cc="http://creativecommons.org/ns#"
   xmlns:rdf="http://www.w3.org/1999/02/22-rdf-syntax-ns#"
   xmlns:svg="http://www.w3.org/2000/svg"
   xmlns="http://www.w3.org/2000/svg"
   xmlns:sodipodi="http://sodipodi.sourceforge.net/DTD/sodipodi-0.dtd"
   xmlns:inkscape="http://www.inkscape.org/namespaces/inkscape"
   version="1.1"
   x="0px"
   y="0px"
   width="48px"
   height="48px"
   viewBox="0 0 48 48"
   enable-background="new 0 0 48 48"
   xml:space="preserve"
   id="svg2"
   inkscape:version="0.91 r13725"
   sodipodi:docname="hub-farmacia.svg"><metadata
     id="metadata20"><rdf:RDF><cc:Work
         rdf:about=""><dc:format>image/svg+xml</dc:format><dc:type
           rdf:resource="http://purl.org/dc/dcmitype/StillImage" /></cc:Work></rdf:RDF></metadata><defs
     id="defs18" /><sodipodi:namedview
     pagecolor="#ffffff"
     bordercolor="#666666"
     borderopacity="1"
     objecttolerance="10"
     gridtolerance="10"
     guidetolerance="10"
     inkscape:pageopacity="0"
     inkscape:pageshadow="2"
     inkscape:window-width="1855"
     inkscape:window-height="1056"
     id="namedview16"
     showgrid="false"
     inkscape:zoom="17.886242"
     inkscape:cx="14.531151"
     inkscape:cy="23.79661"
     inkscape:window-x="65"
     inkscape:window-y="24"
     inkscape:window-maximized="1"
     inkscape:current-layer="g4154" /><ellipse
     style="opacity:0.96700003;fill:#00d1b2;fill-opacity:1;stroke:none;stroke-width:2.70000005;stroke-miterlimit:4;stroke-dasharray:none;stroke-opacity:0.90196078"
     id="path5981"
     cx="24.259298"
     cy="23.923845"
     rx="23.890522"
     ry="23.974215" /><g
     id="g4154"
     transform="matrix(0.72534761,0,0,0.72534761,6.718863,5.7878623)"><path
       style="fill:#000000"
       inkscape:connector-curvature="0"
       id="path4"
       d="m 7.9929089,25.640456 c -4.016,4.016 -4.106,10.438 -0.2,14.344 3.9050001,3.904 10.3260001,3.814 14.3430001,-0.201 l 8.99,-8.992 -14.141,-14.142 -8.9920001,8.991 z" /><path
       style="fill:#d3d3d3"
       inkscape:connector-curvature="0"
       id="path6"
       d="m 40.319909,7.4564555 c -3.907,-3.906 -10.326,-3.816 -14.344,0.202 l -8.991,8.9910005 14.141,14.141 8.99,-8.991 c 4.018,-4.016 4.108,-10.437 0.204,-14.3430005 z" /><rect
       style="fill:#696969"
       id="rect8"
       height="1.9999808"
       width="19.998808"
       transform="matrix(-0.70710678,-0.70710678,0.70710678,-0.70710678,0,0)"
       y="0.23738489"
       x="-43.781948" /><path
       style="fill:#e0f7fa;fill-opacity:1"
       inkscape:connector-curvature="0"
       id="path10"
       d="m 18.912909,18.577456 -9.1920001,9.191 c 0,0 -5.143,5.144 0,10.285 0.4470001,0.446 0.9450001,0.812 1.4740001,1.099 -4.0450001,-3.668 1.097,-8.812 1.097,-8.812 l 9.192,-9.192 -2.571,-2.571 z" /><path
       style="fill:#eef7fa;fill-opacity:1"
       inkscape:connector-curvature="0"
       id="path12"
       d="m 31.319909,11.313456 c 0,0 4.5,-4.4990005 8.356,-0.643 -0.287,-0.528 -0.649,-1.0280005 -1.097,-1.4750005 -5.332,-4.954 -9.832,-0.454 -9.832,-0.454 l -9.834,9.8360005 2.571,2.571 9.836,-9.835 z" /><rect
       style="fill:#808080;fill-opacity:0.73913044"
       id="rect14"
       height="1.9999808"
       width="3.6359651"
       transform="matrix(-0.70710678,-0.70710678,0.70710678,-0.70710678,0,0)"
       y="0.23661886"
       x="-30.145031" /></g></svg>