<?xml version="1.0" encoding="UTF-8" standalone="no"?>
<!-- Generator: Adobe Illustrator 16.0.0, SVG Export Plug-In . SVG Version: 6.00 Build 0)  -->

<svg
   xmlns:dc="http://purl.org/dc/elements/1.1/"
   xmlns:cc="http://creativecommons.org/ns#"
   xmlns:rdf="http://www.w3.org/1999/02/22-rdf-syntax-ns#"
   xmlns:svg="http://www.w3.org/2000/svg"
   xmlns="http://www.w3.org/2000/svg"
   xmlns:sodipodi="http://sodipodi.sourceforge.net/DTD/sodipodi-0.dtd"
   xmlns:inkscape="http://www.inkscape.org/namespaces/inkscape"
   version="1.1"
   id="Capa_1"
   x="0px"
   y="0px"
   width="47px"
   height="47px"
   viewBox="0 0 47 47"
   style="enable-background:new 0 0 47 47;"
   xml:space="preserve"
   inkscape:version="0.91 r13725"
   sodipodi:docname="hub-avance.svg"><metadata
     id="metadata50"><rdf:RDF><cc:Work
         rdf:about=""><dc:format>image/svg+xml</dc:format><dc:type
           rdf:resource="http://purl.org/dc/dcmitype/StillImage" /></cc:Work></rdf:RDF></metadata><defs
     id="defs48" /><sodipodi:namedview
     pagecolor="#ffffff"
     bordercolor="#666666"
     borderopacity="1"
     objecttolerance="10"
     gridtolerance="10"
     guidetolerance="10"
     inkscape:pageopacity="0"
     inkscape:pageshadow="2"
     inkscape:window-width="1855"
     inkscape:window-height="1056"
     id="namedview46"
     showgrid="false"
     inkscape:zoom="18.007537"
     inkscape:cx="23.500011"
     inkscape:cy="23.987691"
     inkscape:window-x="65"
     inkscape:window-y="24"
     inkscape:window-maximized="1"
     inkscape:current-layer="Capa_1" /><ellipse
     style="opacity:0.96700003;fill:#00d1b2;fill-opacity:1;stroke:none;stroke-width:2.70000005;stroke-miterlimit:4;stroke-dasharray:none;stroke-opacity:0.90196078"
     id="path5981"
     cx="23.515341"
     cy="23.49424"
     rx="23.413136"
     ry="23.417542" /><g
     id="g3"
     transform="matrix(0.67055288,0,0,0.67055288,8.4409101,7.7914401)"><g
       id="Layer_1_133_"><g
         id="g6"><path
           d="m 11.355,22.761 0,7.406 c 0,1.638 1.327,2.963 2.964,2.963 1.637,0 2.961,-1.325 2.961,-2.963 l 0,-7.406 c 0,-1.637 -1.324,-2.963 -2.961,-2.963 -1.637,0 -2.964,1.326 -2.964,2.963 z"
           id="path8"
           inkscape:connector-curvature="0"
           style="fill:#ccf6f0;fill-opacity:1" /><path
           d="m 18.763,19.797 0,10.37 c 0,1.638 1.326,2.963 2.963,2.963 1.637,0 2.963,-1.325 2.963,-2.963 l 0,-10.37 c 0,-1.637 -1.327,-2.963 -2.963,-2.963 -1.637,0 -2.963,1.326 -2.963,2.963 z"
           id="path10"
           inkscape:connector-curvature="0"
           style="fill:#ccf6f0;fill-opacity:1" /><path
           d="m 26.169,16.833 0,13.333 c 0,1.638 1.326,2.963 2.963,2.963 1.638,0 2.964,-1.325 2.964,-2.963 l 0,-13.333 c 0,-1.637 -1.326,-2.962 -2.964,-2.962 -1.637,0 -2.963,1.325 -2.963,2.962 z"
           id="path12"
           inkscape:connector-curvature="0"
           style="fill:#ccf6f0;fill-opacity:1" /><path
           d="M 46.906,20.119 C 46.743,19.771 46.394,19.55 46.013,19.55 l -2.93,0 C 41.223,9.451 32.355,1.774 21.726,1.774 9.746,1.774 0,11.521 0,23.5 c 0,11.979 9.746,21.726 21.726,21.726 7.73,0 14.941,-4.161 18.816,-10.858 0.547,-0.943 0.224,-2.152 -0.72,-2.699 -0.946,-0.545 -2.153,-0.224 -2.699,0.722 -3.172,5.479 -9.071,8.887 -15.397,8.887 C 11.924,41.275 3.95,33.303 3.95,23.5 c 0,-9.802 7.974,-17.775 17.775,-17.775 8.443,0 15.515,5.921 17.317,13.825 l -2.905,0 c -0.383,0 -0.73,0.222 -0.895,0.569 -0.163,0.347 -0.107,0.756 0.136,1.051 l 4.938,5.926 c 0.188,0.225 0.467,0.354 0.759,0.354 0.293,0 0.569,-0.13 0.758,-0.354 l 4.938,-5.926 c 0.245,-0.295 0.299,-0.704 0.135,-1.051 z"
           id="path14"
           inkscape:connector-curvature="0"
           style="fill:#ccf6f0;fill-opacity:1" /></g></g></g><g
     id="g16" /><g
     id="g18" /><g
     id="g20" /><g
     id="g22" /><g
     id="g24" /><g
     id="g26" /><g
     id="g28" /><g
     id="g30" /><g
     id="g32" /><g
     id="g34" /><g
     id="g36" /><g
     id="g38" /><g
     id="g40" /><g
     id="g42" /><g
     id="g44" /></svg>