<svg version="1.1" xmlns="http://www.w3.org/2000/svg" xmlns:xlink="http://www.w3.org/1999/xlink" x="0px" y="0px" width="48px" height="48px" viewBox="0 0 48 48" enable-background="new 0 0 48 48" xml:space="preserve">
<rect x="6" y="14" fill="#FF9800" width="28" height="28"></rect>
<rect x="17" y="14" fill="#FFB74D" width="6" height="5"></rect>
<polygon fill="#F57C00" points="34,14 42,6 42,32.875 34,42 "></polygon>
<polygon fill="#FFCC80" points="6,14 16,6 42,6 34,14 "></polygon>
<path fill="#AB5600" d="M23.5,22h-7c-0.828,0-1.5-0.672-1.5-1.5s0.672-1.5,1.5-1.5h7c0.828,0,1.5,0.672,1.5,1.5S24.328,22,23.5,22"></path>
<polygon fill="#FFE0B2" points="23,14 17,14 26,6 32,6 "></polygon>
</svg>