<?xml version="1.0" encoding="UTF-8" standalone="no"?><!DOCTYPE svg PUBLIC "-//W3C//DTD SVG 1.1//EN" "http://www.w3.org/Graphics/SVG/1.1/DTD/svg11.dtd"><svg width="100%" height="100%" viewBox="0 0 48 48" version="1.1" xmlns="http://www.w3.org/2000/svg" xmlns:xlink="http://www.w3.org/1999/xlink" xml:space="preserve" xmlns:serif="http://www.serif.com/" style="fill-rule:evenodd;clip-rule:evenodd;stroke-linejoin:round;stroke-miterlimit:1.41421;"><ellipse id="path5981--Elipse-" serif:id="path5981 (Elipse)" cx="23.962" cy="24.023" rx="23.874" ry="23.958" style="fill:#00d1b2;fill-opacity:0.967;"/><g id="surface1"><rect x="19.963" y="24.57" width="8.073" height="12.917" style="fill:#808080;fill-rule:nonzero;"/><path d="M18.349,19.726c0,0.893 -0.722,1.615 -1.615,1.615c-0.892,0 -1.614,-0.722 -1.614,-1.615c0,-0.892 0.722,-1.614 1.614,-1.614c0.893,0 1.615,0.722 1.615,1.614m14.531,0c0,-0.892 -0.722,-1.614 -1.614,-1.614c-0.893,0 -1.615,0.722 -1.615,1.614c0,0.893 0.722,1.615 1.615,1.615c0.892,0 1.614,-0.722 1.614,-1.615" style="fill:#808080;fill-rule:nonzero;"/><path d="M31.266,14.882c0,-6.165 -14.532,-4.014 -14.532,0l0,5.652c0,4.014 3.251,7.265 7.266,7.265c4.015,0 7.266,-3.251 7.266,-7.265l0,-5.652Z" style="fill:#a9a9a9;fill-rule:nonzero;"/><path d="M26.422,19.726c0,-0.444 0.363,-0.807 0.807,-0.807c0.445,0 0.808,0.363 0.808,0.807c0,0.445 -0.363,0.808 -0.808,0.808c-0.444,0 -0.807,-0.363 -0.807,-0.808m-6.459,0c0,0.445 0.363,0.808 0.808,0.808c0.444,0 0.807,-0.363 0.807,-0.808c0,-0.444 -0.363,-0.807 -0.807,-0.807c-0.445,0 -0.808,0.363 -0.808,0.807" style="fill-rule:nonzero;"/><path d="M24,7.617c-4.904,0 -8.073,3.976 -8.073,8.88l0,1.845l1.614,1.384l0,-4.036l9.688,-3.23l3.23,3.23l0,4.036l1.614,-1.406l0,-1.823c0,-3.248 -0.839,-6.471 -4.844,-7.266l-0.807,-1.614l-2.422,0Z" style="fill:#424242;fill-rule:nonzero;"/><path d="M31.266,8.424c0,0 -1.514,-1.615 -7.064,-1.615c-5.55,0 -7.468,1.615 -7.468,1.615c0,0 -0.807,4.844 -0.807,8.073c0,0 4.036,-0.807 8.073,-0.807c4.037,0 8.073,0.807 8.073,0.807c0,-3.229 -0.807,-8.073 -0.807,-8.073Zm5.651,31.485l-25.834,0c0,-8.893 8.88,-10.495 8.88,-10.495l4.037,7.266l4.037,-7.266c0,0 8.88,1.634 8.88,10.495Z" style="fill:#009a83;fill-rule:nonzero;"/><path d="M20.771,36.68c0,1.337 -1.085,2.422 -2.422,2.422c-1.337,0 -2.422,-1.085 -2.422,-2.422c0,-1.337 1.085,-2.422 2.422,-2.422c1.337,0 2.422,1.085 2.422,2.422Z" style="fill:#263238;fill-rule:nonzero;"/><path d="M17.541,36.68c0,-0.448 0.36,-0.807 0.808,-0.807c0.444,0 0.807,0.359 0.807,0.807c0,0.448 -0.363,0.807 -0.807,0.807c-0.448,0 -0.808,-0.359 -0.808,-0.807Zm10.496,1.615l-1.615,0l0,1.614l1.615,0l0,-1.614Zm4.843,0l-1.614,0l0,1.614l1.614,0l0,-1.614Z" style="fill:#cfd8dc;fill-rule:nonzero;"/><path d="M19.963,29.414l0,-2.715c-0.873,1.044 -1.447,2.081 -1.573,2.46c-0.416,1.252 -0.849,2.548 -0.849,5.906c0,0.448 0.363,0.808 0.808,0.808c0.444,0 0.807,-0.36 0.807,-0.808c0,-3.1 0.372,-4.213 0.766,-5.395c0.016,-0.048 0.045,-0.114 0.079,-0.187l-0.038,-0.069Z" style="fill:#37474f;fill-rule:nonzero;"/><path d="M30.446,34.359c-0.101,-2.961 -0.804,-5.106 -0.848,-5.235c-0.467,-1.217 -0.991,-2.208 -1.561,-2.993l0,3.283l-0.035,0.063c0.025,0.063 0.05,0.129 0.076,0.193c0.009,0.022 0.652,1.986 0.753,4.695c-1.882,0.498 -2.409,2.697 -2.409,3.93l1.615,0.003c0,-0.098 0.034,-2.425 1.614,-2.425c1.58,0 1.615,2.327 1.615,2.422l1.614,0c0,-1.24 -0.532,-3.45 -2.434,-3.936Z" style="fill:#37474f;fill-rule:nonzero;"/></g></svg>