<?xml version="1.0" encoding="UTF-8" standalone="no"?>
<svg
   xmlns:dc="http://purl.org/dc/elements/1.1/"
   xmlns:cc="http://creativecommons.org/ns#"
   xmlns:rdf="http://www.w3.org/1999/02/22-rdf-syntax-ns#"
   xmlns:svg="http://www.w3.org/2000/svg"
   xmlns="http://www.w3.org/2000/svg"
   xmlns:sodipodi="http://sodipodi.sourceforge.net/DTD/sodipodi-0.dtd"
   xmlns:inkscape="http://www.inkscape.org/namespaces/inkscape"
   version="1.1"
   x="0px"
   y="0px"
   width="48px"
   height="48px"
   viewBox="0 0 48 48"
   enable-background="new 0 0 48 48"
   xml:space="preserve"
   id="svg2"
   inkscape:version="0.91 r13725"
   sodipodi:docname="hub-laboratorio.svg"><metadata
     id="metadata20"><rdf:RDF><cc:Work
         rdf:about=""><dc:format>image/svg+xml</dc:format><dc:type
           rdf:resource="http://purl.org/dc/dcmitype/StillImage" /><dc:title /></cc:Work></rdf:RDF></metadata><defs
     id="defs18" /><sodipodi:namedview
     pagecolor="#ffffff"
     bordercolor="#666666"
     borderopacity="1"
     objecttolerance="10"
     gridtolerance="10"
     guidetolerance="10"
     inkscape:pageopacity="0"
     inkscape:pageshadow="2"
     inkscape:window-width="1855"
     inkscape:window-height="1056"
     id="namedview16"
     showgrid="false"
     inkscape:zoom="19.145833"
     inkscape:cx="24"
     inkscape:cy="24"
     inkscape:window-x="65"
     inkscape:window-y="24"
     inkscape:window-maximized="1"
     inkscape:current-layer="svg2" /><ellipse
     style="opacity:0.96700003;fill:#00d1b2;fill-opacity:1;stroke:none;stroke-width:2.70000005;stroke-miterlimit:4;stroke-dasharray:none;stroke-opacity:0.90196078"
     id="path5981"
     cx="23.946629"
     cy="23.859209"
     rx="23.890522"
     ry="23.974215" /><g
     id="g4166"
     transform="matrix(0.68872874,0,0,0.68786866,7.2967209,6.8995088)"><path
       id="path3"
       d="m 18.283306,35.036575 c -5.486788,0 -9.975978,-4.230028 -9.975978,-9.399938 l 0,-0.01993 c 0,-5.169911 4.48919,-9.399939 9.975978,-9.399939"
       style="fill:none;stroke:#000000;stroke-width:2.9057157;stroke-miterlimit:10;stroke-opacity:1"
       inkscape:connector-curvature="0" /><g
       id="g5"
       transform="matrix(1.108442,0,0,1.1070473,1.6666558,1.8251562)"><path
         id="path7"
         d="m 15.818,16.5 c -1.83,0 -3.318,-1.57 -3.318,-3.5 0,-1.93 1.489,-3.5 3.318,-3.5 l 6.364,0 c 1.83,0 3.318,1.57 3.318,3.5 0,1.93 -1.488,3.5 -3.318,3.5 l -6.364,0 z"
         style="fill:#696969"
         inkscape:connector-curvature="0" /><g
         id="g9"><path
           id="path11"
           d="m 22.182,10 c 1.554,0 2.818,1.346 2.818,3 0,1.654 -1.264,3 -2.818,3 l -6.364,0 C 14.264,16 13,14.654 13,13 c 0,-1.654 1.264,-3 2.818,-3 l 6.364,0 m 0,-1 -6.364,0 C 13.718,9 12,10.8 12,13 l 0,0 c 0,2.2 1.718,4 3.818,4 l 6.364,0 C 24.282,17 26,15.2 26,13 26,10.8 24.282,9 22.182,9 l 0,0 z"
           style="fill:#000000"
           inkscape:connector-curvature="0" /></g></g><g
       id="g13"
       transform="matrix(1.108442,0,0,1.1070473,1.6666558,1.8251562)"><rect
         id="rect15"
         height="2"
         width="15"
         style="fill:#696969"
         y="28.5"
         x="16.5" /><g
         id="g17"><path
           id="path19"
           d="m 31,29 0,1 -14,0 0,-1 14,0 m 1,-1 -16,0 0,3 16,0 0,-3 0,0 z"
           style="fill:#000000"
           inkscape:connector-curvature="0" /></g></g><g
       id="g21"
       transform="matrix(1.108442,0,0,1.1070473,1.6666558,1.8251562)"><rect
         id="rect23"
         height="23"
         width="5"
         style="fill:#ccd8f0;fill-opacity:0.82125603"
         y="1.5"
         x="23.5" /><g
         id="g25"><path
           id="path27"
           d="m 28,2 0,22 -4,0 0,-22 4,0 m 1,-1 -6,0 0,24 6,0 0,-24 0,0 z"
           style="fill:#696969"
           inkscape:connector-curvature="0" /></g></g><g
       id="g29"
       transform="matrix(1.108442,0,0,1.1070473,1.6666558,1.8251562)"><path
         id="path31"
         d="m 22,20.5 c -0.276,0 -0.5,-0.225 -0.5,-0.5 l 0,-14.5 9,0 0,14.5 c 0,0.275 -0.224,0.5 -0.5,0.5 l -8,0 z"
         style="fill:#ccf6f0;fill-opacity:1"
         inkscape:connector-curvature="0" /><path
         id="path33"
         d="m 30,6 0,14 -8,0 0,-14 8,0 m 1,-1 -10,0 0,15 c 0,0.552 0.448,1 1,1 l 8,0 c 0.552,0 1,-0.448 1,-1 l 0,-15 0,0 z"
         style="fill:#808080"
         inkscape:connector-curvature="0" /></g><rect
       id="rect35"
       height="1.1070473"
       width="11.08442"
       style="fill:#808080"
       y="2.9322042"
       x="25.062544" /><ellipse
       ry="1.1070473"
       rx="1.1084421"
       id="circle37"
       cy="16.21677"
       cx="19.40172"
       style="fill:#ccf6f0;fill-opacity:1" /><g
       id="g39"
       transform="matrix(1.108442,0,0,1.1070473,1.6666558,1.8251562)"><path
         id="path41"
         d="m 7.003,35.5 6.932,-9.199 C 14.296,25.796 14.884,25.5 15.514,25.5 l 0.252,0 c 0.63,0 1.217,0.296 1.571,0.791 l 6.94,9.209 -17.274,0 z"
         style="fill:#ccf6f0;fill-opacity:1"
         inkscape:connector-curvature="0" /><path
         id="path43"
         d="m 15.767,26 c 0.476,0 0.9,0.212 1.18,0.602 L 23.275,35 8.006,35 14.35,26.582 C 14.614,26.212 15.038,26 15.514,26 l 0.253,0 m 0,-1 -0.252,0 c -0.785,0 -1.522,0.362 -1.978,1 L 6,36 25.281,36 17.745,26 c -0.457,-0.638 -1.193,-1 -1.978,-1 l 0,0 z"
         style="fill:#808080"
         inkscape:connector-curvature="0" /></g><g
       id="g45"
       transform="matrix(1.108442,0,0,1.1070473,1.6666558,1.8251562)"><circle
         id="circle47"
         r="1"
         cy="29.5"
         cx="15.569"
         style="fill:#696969" /><path
         id="path49"
         d="m 15.569,29 c 0.276,0 0.5,0.224 0.5,0.5 0,0.276 -0.224,0.5 -0.5,0.5 -0.276,0 -0.5,-0.224 -0.5,-0.5 0,-0.276 0.224,-0.5 0.5,-0.5 m 0,-1 c -0.828,0 -1.5,0.672 -1.5,1.5 0,0.828 0.672,1.5 1.5,1.5 0.828,0 1.5,-0.672 1.5,-1.5 0,-0.828 -0.672,-1.5 -1.5,-1.5 l 0,0 z"
         style="fill:#000000"
         inkscape:connector-curvature="0" /></g><g
       id="g51"
       transform="matrix(1.108442,0,0,1.1070473,1.6666558,1.8251562)"><path
         id="path53"
         d="m 5.5,38.5 0,-1.5 c 0,-1.379 1.122,-2.5 2.5,-2.5 l 24,0 c 1.378,0 2.5,1.121 2.5,2.5 l 0,1.5 -29,0 z"
         style="fill:#a9d7e4;fill-opacity:0.99607843"
         inkscape:connector-curvature="0" /><g
         id="g55"><path
           id="path57"
           d="m 32,35 c 1.103,0 2,0.897 2,2 l 0,1 -28,0 0,-1 c 0,-1.103 0.897,-2 2,-2 l 24,0 m 0,-1 -24,0 c -1.657,0 -3,1.343 -3,3 l 0,2 30,0 0,-2 c 0,-1.657 -1.343,-3 -3,-3 l 0,0 z"
           style="fill:#696969"
           inkscape:connector-curvature="0" /></g></g></g></svg>