<?xml version="1.0" encoding="UTF-8" standalone="no"?>
<svg
   xmlns:dc="http://purl.org/dc/elements/1.1/"
   xmlns:cc="http://creativecommons.org/ns#"
   xmlns:rdf="http://www.w3.org/1999/02/22-rdf-syntax-ns#"
   xmlns:svg="http://www.w3.org/2000/svg"
   xmlns="http://www.w3.org/2000/svg"
   xmlns:sodipodi="http://sodipodi.sourceforge.net/DTD/sodipodi-0.dtd"
   xmlns:inkscape="http://www.inkscape.org/namespaces/inkscape"
   version="1.1"
   id="Layer_1"
   x="0px"
   y="0px"
   viewBox="0 0 40 40"
   style="enable-background:new 0 0 40 40;"
   xml:space="preserve"
   inkscape:version="0.91 r13725"
   sodipodi:docname="icono-entradas-gral.svg"><metadata
     id="metadata25"><rdf:RDF><cc:Work
         rdf:about=""><dc:format>image/svg+xml</dc:format><dc:type
           rdf:resource="http://purl.org/dc/dcmitype/StillImage" /></cc:Work></rdf:RDF></metadata><defs
     id="defs23" /><sodipodi:namedview
     pagecolor="#ffffff"
     bordercolor="#666666"
     borderopacity="1"
     objecttolerance="10"
     gridtolerance="10"
     guidetolerance="10"
     inkscape:pageopacity="0"
     inkscape:pageshadow="2"
     inkscape:window-width="1855"
     inkscape:window-height="1056"
     id="namedview21"
     showgrid="false"
     inkscape:zoom="11.8"
     inkscape:cx="35.103104"
     inkscape:cy="26.250027"
     inkscape:window-x="65"
     inkscape:window-y="24"
     inkscape:window-maximized="1"
     inkscape:current-layer="Layer_1" /><g
     id="g3"><path
       style="fill:#98CCFD;"
       d="M6.5,37.5v-35H35c0.275,0,0.5,0.224,0.5,0.5v34c0,0.276-0.225,0.5-0.5,0.5H6.5z"
       id="path5" /><g
       id="g7"><path
         style="fill:#4788C7;"
         d="M35,3v34H7V3H35 M35,2H6v36h29c0.552,0,1-0.448,1-1V3C36,2.448,35.552,2,35,2L35,2z"
         id="path9" /></g></g><g
     id="g11"><path
       style="fill:#4788C7;"
       d="M9,38H5c-0.552,0-1-0.448-1-1V3c0-0.552,0.448-1,1-1h4V38z"
       id="path13" /></g><rect
     x="14"
     y="8"
     style="fill:#ffffff"
     width="15"
     height="10"
     id="rect15" /><path
     style="fill:#4788c7"
     d="m 26.5,12 -10,0 C 16.225,12 16,11.775 16,11.5 l 0,0 C 16,11.225 16.225,11 16.5,11 l 10,0 c 0.275,0 0.5,0.225 0.5,0.5 l 0,0 c 0,0.275 -0.225,0.5 -0.5,0.5 z"
     id="path17"
     inkscape:connector-curvature="0" /><path
     style="fill:#4788c7"
     d="m 26.5,15 -10,0 C 16.225,15 16,14.775 16,14.5 l 0,0 C 16,14.225 16.225,14 16.5,14 l 10,0 c 0.275,0 0.5,0.225 0.5,0.5 l 0,0 c 0,0.275 -0.225,0.5 -0.5,0.5 z"
     id="path19"
     inkscape:connector-curvature="0" /><g
     id="g4173"
     transform="matrix(0.34086629,0,0,0.34086629,3.8619169,23.864072)"><g
       id="g4"
       style="clip-rule:evenodd;fill-rule:evenodd;stroke-linejoin:round;stroke-miterlimit:1.41420996"
       transform="translate(25.830509,-12.580508)"><rect
         id="rect6"
         style="fill:#d17a00"
         height="7"
         width="28"
         y="9"
         x="10" /><g
         id="g8"><path
           id="path10"
           style="fill:#8a5100;fill-rule:nonzero"
           d="m 10,23 -4,0 0,-8 4,-6 0,14 z"
           inkscape:connector-curvature="0" /><path
           id="path12"
           style="fill:#8a5100;fill-rule:nonzero"
           d="m 38,23 4,0 0,-8 -4,-6 0,14 z"
           inkscape:connector-curvature="0" /></g><path
         id="path14"
         style="fill:#ff9800;fill-rule:nonzero"
         d="M 40,43 8,43 C 6.9,43 6,42.1 6,41 l 0,-26 36,0 0,26 c 0,1.1 -0.9,2 -2,2 z"
         inkscape:connector-curvature="0" /><path
         id="path16"
         style="fill:#8a5100;fill-rule:nonzero"
         d="m 27.5,22 -7,0 C 19.7,22 19,21.3 19,20.5 19,19.7 19.7,19 20.5,19 l 7,0 c 0.8,0 1.5,0.7 1.5,1.5 0,0.8 -0.7,1.5 -1.5,1.5 z"
         inkscape:connector-curvature="0" /></g><path
       id="path18"
       style="clip-rule:evenodd;fill:#00a60b;fill-rule:evenodd;stroke-linejoin:round;stroke-miterlimit:1.41420996"
       d="m 51.830509,-5.5805085 4,0 -6,7 -6,-7 4,0 0,-4.4999995 4,0 0,4.4999995 z"
       inkscape:connector-curvature="0" /></g></svg>