<?xml version="1.0" encoding="UTF-8" standalone="no"?>
<svg
   xmlns:dc="http://purl.org/dc/elements/1.1/"
   xmlns:cc="http://creativecommons.org/ns#"
   xmlns:rdf="http://www.w3.org/1999/02/22-rdf-syntax-ns#"
   xmlns:svg="http://www.w3.org/2000/svg"
   xmlns="http://www.w3.org/2000/svg"
   xmlns:sodipodi="http://sodipodi.sourceforge.net/DTD/sodipodi-0.dtd"
   xmlns:inkscape="http://www.inkscape.org/namespaces/inkscape"
   version="1.1"
   x="0px"
   y="0px"
   width="48px"
   height="48px"
   viewBox="0 0 48 48"
   enable-background="new 0 0 48 48"
   xml:space="preserve"
   id="svg2"
   inkscape:version="0.91 r13725"
   sodipodi:docname="icono-stock-edit.svg"><metadata
     id="metadata44"><rdf:RDF><cc:Work
         rdf:about=""><dc:format>image/svg+xml</dc:format><dc:type
           rdf:resource="http://purl.org/dc/dcmitype/StillImage" /><dc:title /></cc:Work></rdf:RDF></metadata><defs
     id="defs42" /><sodipodi:namedview
     pagecolor="#ffffff"
     bordercolor="#666666"
     borderopacity="1"
     objecttolerance="10"
     gridtolerance="10"
     guidetolerance="10"
     inkscape:pageopacity="0"
     inkscape:pageshadow="2"
     inkscape:window-width="1855"
     inkscape:window-height="1056"
     id="namedview40"
     showgrid="false"
     inkscape:zoom="9.8333333"
     inkscape:cx="25.30069"
     inkscape:cy="25.521616"
     inkscape:window-x="1985"
     inkscape:window-y="24"
     inkscape:window-maximized="1"
     inkscape:current-layer="g4207" /><g
     id="g4198"
     transform="translate(-0.40677966,1.4237288)"><path
       id="path4"
       d="m 37.40678,35.016949 -26,0 c -1.105,0 -2,-0.895 -2,-2 l 0,-24.0000001 c 0,-1.105 0.895,-2 2,-2 l 26,0 c 1.105,0 2,0.895 2,2 l 0,24.0000001 c 0,1.105 -0.895,2 -2,2"
       style="fill:#ff9800"
       inkscape:connector-curvature="0" /><path
       id="path6"
       d="m 42.40678,17.016949 -36,0 c -2.209,0 -4,1.791 -4,4 l 0,18 c 0,2.209 1.791,4 4,4 l 36,0 c 2.209,0 4,-1.791 4,-4 l 0,-18 c 0,-2.209 -1.791,-4 -4,-4"
       style="fill:#ff1744"
       inkscape:connector-curvature="0" /><path
       id="path8"
       d="m 27.90678,13.016949 -7,0 c -0.828,0 -1.5,-0.672 -1.5,-1.5 0,-0.828 0.672,-1.5 1.5,-1.5 l 7,0 c 0.828,0 1.5,0.672 1.5,1.5 0,0.828 -0.672,1.5 -1.5,1.5"
       style="fill:#8a5100"
       inkscape:connector-curvature="0" /><path
       id="path10"
       d="m 42.40678,22.016949 c 0,-0.552 -0.448,-1 -1,-1 l -34,0 c -0.552,0 -1,0.448 -1,1 l 0,16 c 0,0.552 0.448,1 1,1 l 34,0 c 0.552,0 1,-0.448 1,-1 l 0,-16 z"
       style="fill:#ffcdd2"
       inkscape:connector-curvature="0" /><path
       id="path12"
       d="m 39.40678,33.016949 0,-12 -30,0 0,12 c 0,1.105 0.895,2 2,2 l 26,0 c 1.105,0 2,-0.895 2,-2 z"
       style="fill:#ef9a9a"
       inkscape:connector-curvature="0" /><g
       id="g14"
       transform="translate(0.40678002,1.0169489)"><g
         id="g16"><path
           id="path18"
           d="m 25,28 0,1 -1,0 0,-1 1,0 m 2,-2 -5,0 0,5 5,0 0,-5 0,0 z"
           inkscape:connector-curvature="0"
           style="fill:#37474f" /></g><rect
         id="rect20"
         height="4"
         width="2"
         y="21"
         x="28"
         style="fill:#37474f" /><rect
         id="rect22"
         height="2"
         width="2"
         y="23"
         x="32"
         style="fill:#37474f" /><rect
         id="rect24"
         height="4"
         width="2"
         y="25"
         x="34"
         style="fill:#37474f" /><rect
         id="rect26"
         height="4"
         width="2"
         y="27"
         x="29"
         style="fill:#37474f" /><rect
         id="rect28"
         height="2"
         width="2"
         y="25"
         x="30"
         style="fill:#37474f" /><rect
         id="rect30"
         height="2"
         width="3"
         y="28"
         x="33"
         style="fill:#37474f" /><rect
         id="rect32"
         height="2"
         width="7"
         y="23"
         x="23"
         style="fill:#37474f" /><g
         id="g34"><polygon
           id="polygon36"
           points="24,20 22,20 22,22 27,22 27,20 25,20 "
           style="fill:#37474f" /><polygon
           id="polygon38"
           points="33,20 31,20 31,22 36,22 36,20 34,20 "
           style="fill:#37474f" /></g></g></g><g
     id="g4207"
     transform="matrix(0.07346343,-0.85675491,0.85675491,0.07346343,30.962792,98.501795)"
     style="opacity:1"><g
       id="g4226"
       transform="matrix(1.3681367,-0.75848525,-0.39567591,1.5868776,-40.243329,78.528036)"><path
         inkscape:connector-curvature="0"
         d="m 112.34495,9.9921769 1.7378,-1.7642414 c 0.26445,-0.2683135 0.26391,-0.7060326 -0.001,-0.9750139 l -0.82093,-0.83187 -2.69759,2.7370066 0.82094,0.8329072 c 0.26511,0.2689816 0.69551,0.2695236 0.96099,0.00121"
         style="clip-rule:evenodd;fill:#e57373;fill-rule:nonzero"
         id="path26" /><path
         inkscape:connector-curvature="0"
         d="M 111.90943,5.0491446 99.753965,-7.283491 97.056377,-4.5464843 109.21184,7.7861511 111.90943,5.0491446 Z"
         style="clip-rule:evenodd;fill:#d6b404;fill-opacity:1;fill-rule:evenodd"
         id="path28" /><path
         sodipodi:nodetypes="ccc"
         inkscape:connector-curvature="0"
         d="m 98.404141,-5.9149889 7.679429,7.7913649 4.69919,4.7676715"
         style="clip-rule:evenodd;fill:#5b650c;fill-opacity:0.91304351;fill-rule:nonzero;stroke:#7a7900;stroke-width:1.19028103px;stroke-opacity:1"
         id="path30" /><path
         inkscape:connector-curvature="0"
         d="m 109.21082,7.7861498 1.3522,1.3719084 2.69758,-2.7390811 -1.35322,-1.3719096 -2.69656,2.7390823 z"
         style="clip-rule:evenodd;fill:#b0bec5;fill-rule:evenodd"
         id="path32" /><path
         inkscape:connector-curvature="0"
         d="m 99.752949,-7.2845295 -3.610995,-0.9256278 0.913401,3.6636717 2.697594,-2.7380439 z"
         style="clip-rule:evenodd;fill:#ffe598;fill-rule:nonzero"
         id="path34" /><path
         inkscape:connector-curvature="0"
         d="m 97.947942,-7.7608269 -1.825437,-0.4690626 0.462349,1.8520693 1.363088,-1.3830067 z"
         style="clip-rule:evenodd;fill:#37474f;fill-rule:nonzero"
         id="path36" /></g></g></svg>