<?xml version="1.0" encoding="UTF-8" standalone="no"?><!DOCTYPE svg PUBLIC "-//W3C//DTD SVG 1.1//EN" "http://www.w3.org/Graphics/SVG/1.1/DTD/svg11.dtd"><svg width="100%" height="100%" viewBox="0 0 900 338" version="1.1" xmlns="http://www.w3.org/2000/svg" xmlns:xlink="http://www.w3.org/1999/xlink" xml:space="preserve" xmlns:serif="http://www.serif.com/" style="fill-rule:evenodd;clip-rule:evenodd;stroke-linejoin:round;stroke-miterlimit:1.41421;"><g><path d="M313,222.391l0,6.319c0,37.172 14.869,81.034 80.663,81.034c53.527,0 87.725,-23.418 87.725,-79.919c0,-36.428 -16.355,-56.873 -53.899,-70.255l-28.622,-10.408c-28.251,-10.78 -39.774,-22.303 -39.774,-44.978c0,-28.25 17.471,-38.287 35.685,-38.287c26.392,0 37.172,14.126 37.172,38.287l0,5.576l42.376,0l0,-5.947c0,-27.508 -7.063,-69.883 -75.087,-69.883c-49.811,0 -82.522,26.763 -82.522,75.087c0,37.915 16.727,57.988 55.386,72.856l28.994,10.037c23.79,7.062 37.915,19.329 37.915,47.208c0,19.701 -13.381,38.659 -40.145,38.659c-29.366,0 -43.491,-16.356 -43.491,-48.695l0,-6.691l-42.376,0Z" style="fill:#fff;fill-rule:nonzero;"/><path d="M577.845,207.15l40.889,-149.43l0.744,0l40.889,149.43l-82.522,0Zm-52.04,97.39l25.277,0l21.559,-77.317l92.93,0l21.559,77.317l25.277,0l-78.432,-265.406l-29.738,0l-78.432,265.406Z" style="fill:#fff;fill-rule:nonzero;"/><path d="M513.728,39.134l42.376,0l0,122.011l-42.376,143.395l0,-265.406Z" style="fill:#fff;"/><path d="M732.852,304.54l133.818,0l0,-20.072l-110.028,0l0,-245.334l-23.79,0l0,265.406Z" style="fill:#fff;fill-rule:nonzero;"/></g><path d="M116.338,64.038c-0.533,-0.533 -0.579,-1.301 -0.107,-1.774c1.107,-1.107 2.845,0.492 1.796,1.651c-0.622,0.687 -1.092,0.721 -1.69,0.123l0.001,0Z" style="fill:#fff;"/><path d="M111.674,64.713c-0.814,-0.814 -0.157,-1.937 1.134,-1.937c0.609,0 0.834,0.166 0.972,0.716c0.103,0.411 0.03,0.897 -0.172,1.14c-0.423,0.51 -1.462,0.554 -1.934,0.081l0,0Z" style="fill:#fff;"/><path d="M120.092,67.881c-0.959,-0.558 -0.449,-2.256 0.677,-2.256c0.587,0 1.388,0.739 1.388,1.282c0,0.479 -0.779,1.285 -1.231,1.273c-0.185,0 -0.56,-0.139 -0.834,-0.299Z" style="fill:#fff;"/><path d="M115.958,68.833c-0.636,-0.22 -0.972,-1.159 -0.638,-1.784c0.583,-1.089 2.279,-0.55 2.279,0.724c0,0.636 -0.999,1.281 -1.641,1.06Z" style="fill:#fff;"/><path d="M110.912,69.05c-0.477,-0.526 -0.479,-0.608 -0.038,-1.281c0.757,-1.157 2.167,-0.791 2.167,0.562c0,1.267 -1.252,1.69 -2.13,0.719l0.001,0Z" style="fill:#fff;"/><path d="M106.703,70.161c-0.572,-0.335 -0.66,-1.412 -0.156,-1.915c0.534,-0.534 1.599,-0.403 1.943,0.238c0.322,0.603 0.137,1.699 -0.287,1.699c-0.133,0 -0.413,0.06 -0.622,0.134c-0.208,0.075 -0.603,0 -0.878,-0.156Z" style="fill:#fff;"/><path d="M123.744,71.444c-0.525,-0.525 -0.554,-0.816 -0.153,-1.565c0.541,-1.01 2.269,-0.534 2.269,0.625c0,0.587 -0.739,1.388 -1.282,1.388c-0.196,0 -0.53,-0.171 -0.834,-0.448Z" style="fill:#fff;"/><path d="M119.08,72.12c-0.81,-0.81 -0.158,-1.937 1.121,-1.937c0.859,0 1.269,0.731 0.959,1.709c-0.206,0.648 -1.515,0.792 -2.08,0.228Z" style="fill:#fff;"/><path d="M128.914,72.39c-0.07,-0.196 0.282,-0.933 0.781,-1.638c2.529,-3.571 2.444,-7.947 -0.223,-11.443c-0.906,-1.188 -0.965,-1.66 -0.208,-1.66c1.059,0 2.623,2.634 3.302,5.562c0.359,1.55 0.378,2.193 0.103,3.643c-0.363,1.917 -1.318,3.938 -2.425,5.133c-0.775,0.835 -1.137,0.945 -1.33,0.403l0,0Z" style="fill:#fff;"/><path d="M114.808,72.974c-0.576,-0.576 -0.409,-1.645 0.299,-1.912c1.219,-0.46 1.976,0.472 1.465,1.803c-0.204,0.531 -1.276,0.598 -1.764,0.109Z" style="fill:#fff;"/><path d="M110.356,73.723c-0.959,-0.959 -0.208,-2.332 1.096,-2.005c0.926,0.233 1.216,1.194 0.574,1.903c-0.603,0.667 -1.077,0.695 -1.67,0.102l0,0Z" style="fill:#fff;"/><path d="M123.011,75.88c-0.713,-0.713 -0.713,-0.996 0,-1.705c0.477,-0.477 0.678,-0.515 1.282,-0.239c0.854,0.389 0.973,1.544 0.218,2.117c-0.671,0.509 -0.831,0.491 -1.495,-0.173l-0.005,0Z" style="fill:#fff;"/><path d="M118.511,76.677c-0.609,-0.609 -0.402,-1.637 0.403,-2.004c0.658,-0.3 0.809,-0.262 1.282,0.323c0.652,0.805 0.663,1.001 0.089,1.576c-0.533,0.533 -1.301,0.578 -1.774,0.106l0,-0.001Z" style="fill:#fff;"/><path d="M114.059,77.426c-0.878,-0.877 -0.362,-2.116 0.881,-2.116c0.596,0 1.235,0.716 1.235,1.385c0,0.413 -0.832,1.179 -1.282,1.179c-0.213,0 -0.588,-0.202 -0.834,-0.448Z" style="fill:#fff;"/><path d="M117.762,81.129c-0.246,-0.246 -0.448,-0.621 -0.448,-0.834c0,-0.499 0.783,-1.282 1.282,-1.282c0.499,0 1.282,0.783 1.282,1.282c0,0.499 -0.783,1.282 -1.282,1.282c-0.213,0 -0.588,-0.202 -0.834,-0.448Z" style="fill:#fff;"/><path d="M109.224,78.471c-4.352,-4.356 -5.902,-6.08 -5.77,-6.421c0.134,-0.351 0.304,-0.399 0.682,-0.191c0.276,0.152 3.112,2.903 6.302,6.113c5.263,5.296 6.173,6.453 5.077,6.453c-0.188,0 -3.019,-2.679 -6.291,-5.954Z" style="fill:#fff;"/><path d="M78.061,98.326c-0.814,-0.814 -0.157,-1.937 1.134,-1.937c0.609,0 0.834,0.166 0.972,0.716c0.103,0.411 0.03,0.896 -0.172,1.139c-0.423,0.51 -1.461,0.554 -1.934,0.082l0,0Z" style="fill:#fff;"/><path d="M82.013,102.107c-0.325,-0.325 -0.59,-0.719 -0.59,-0.875c0,-0.157 0.265,-0.551 0.59,-0.876c0.532,-0.531 0.653,-0.549 1.211,-0.179c0.341,0.227 0.62,0.701 0.62,1.055c0,0.353 -0.279,0.828 -0.62,1.054c-0.558,0.371 -0.679,0.353 -1.211,-0.179Z" style="fill:#fff;"/><path d="M77.556,103.008c-0.63,-0.432 -0.68,-1.217 -0.115,-1.783c0.924,-0.923 1.988,-0.538 1.988,0.719c0,1.036 -1.046,1.63 -1.873,1.064Z" style="fill:#fff;"/><path d="M73.04,103.633c-0.883,-0.884 -0.361,-2.116 0.897,-2.116c0.437,0 0.777,0.252 1.001,0.745c0.3,0.658 0.262,0.809 -0.322,1.282c-0.805,0.652 -1.002,0.663 -1.576,0.089l0,0Z" style="fill:#fff;"/><path d="M103.783,93.826l8.257,-8.26l-4.837,-4.843c-2.661,-2.664 -4.968,-4.843 -5.127,-4.843c-0.16,0 -3.989,3.7 -8.51,8.223l-8.22,8.224l4.804,4.86c2.642,2.674 4.932,4.869 5.09,4.88c0.157,0.011 3.968,-3.665 8.543,-8.241Z" style="fill:#fff;"/><path d="M88.755,99.022c-3.406,-3.409 -6.193,-6.407 -6.193,-6.662c0,-0.598 18.997,-19.614 19.593,-19.614c0.533,0 12.88,12.33 12.88,12.862c0,0.522 -19.128,19.612 -19.651,19.612c-0.238,0 -3.187,-2.756 -6.629,-6.198Z" style="fill:#fff;"/><path d="M85.468,105.732c-0.758,-0.757 -0.172,-1.937 0.962,-1.937c0.852,0 1.361,0.696 1.143,1.563c-0.138,0.55 -0.363,0.716 -0.971,0.716c-0.402,0 -0.866,-0.13 -1.134,-0.342Z" style="fill:#fff;"/><path d="M87.442,100.341c-3.32,-3.319 -5.991,-6.174 -5.933,-6.346c0.056,-0.172 0.285,-0.346 0.507,-0.388c0.529,-0.1 12.326,11.739 12.168,12.211c-0.067,0.2 -0.252,0.407 -0.412,0.46c-0.16,0.053 -2.975,-2.586 -6.33,-5.937Z" style="fill:#fff;"/><path d="M81.195,106.587c-0.967,-0.967 0.17,-2.578 1.367,-1.937c0.568,0.304 0.693,0.614 0.575,1.424c-0.116,0.799 -1.235,1.12 -1.942,0.513Z" style="fill:#fff;"/><path d="M76.794,107.476c-0.572,-0.334 -0.66,-1.411 -0.157,-1.915c0.833,-0.833 2.398,0.07 2.051,1.184c-0.314,1.008 -0.978,1.264 -1.894,0.731Z" style="fill:#fff;"/><path d="M72.66,108.438c-0.64,-0.24 -0.971,-1.171 -0.637,-1.794c0.579,-1.082 2.468,-0.46 2.231,0.736c-0.116,0.586 -1.104,1.242 -1.594,1.058Z" style="fill:#fff;"/><path d="M89.294,109.46c-0.541,-0.773 -0.197,-1.786 0.65,-1.912c1.288,-0.192 1.975,1.339 0.95,2.118c-0.676,0.513 -1.079,0.488 -1.6,-0.206Z" style="fill:#fff;"/><path d="M84.898,110.29c-0.967,-0.967 0.17,-2.578 1.367,-1.937c0.7,0.375 0.784,1.851 0.119,2.106c-0.676,0.259 -1.107,0.21 -1.486,-0.169Z" style="fill:#fff;"/><path d="M80.446,111.039c-0.877,-0.878 -0.362,-2.116 0.881,-2.116c0.597,0 1.235,0.716 1.235,1.385c0,0.413 -0.832,1.178 -1.282,1.178c-0.212,0 -0.588,-0.201 -0.834,-0.447Z" style="fill:#fff;"/><path d="M76.069,111.894c-1.076,-0.754 -0.641,-2.117 0.676,-2.117c1.296,0 1.649,1.431 0.534,2.17c-0.497,0.329 -0.676,0.321 -1.21,-0.053l0,0Z" style="fill:#fff;"/><path d="M84.2,114.882c-0.959,-0.559 -0.449,-2.256 0.678,-2.256c0.587,0 1.387,0.739 1.387,1.282c0,0.479 -0.778,1.284 -1.231,1.273c-0.184,0 -0.56,-0.139 -0.834,-0.299Z" style="fill:#fff;"/><path d="M80.066,115.835c-0.197,-0.068 -0.49,-0.371 -0.65,-0.67c-0.651,-1.215 1.11,-2.338 1.994,-1.273c0.736,0.887 -0.18,2.262 -1.344,1.943Z" style="fill:#fff;"/><path d="M67.129,119.533c-0.94,-1.103 -1.624,-2.596 -2.101,-4.585c-0.42,-1.75 -0.45,-2.372 -0.184,-3.801c0.503,-2.703 2.329,-5.927 3.358,-5.927c0.65,0 0.469,0.698 -0.585,2.265c-0.544,0.807 -1.12,1.941 -1.281,2.521c-0.726,2.617 -0.037,6.395 1.545,8.47c0.398,0.522 0.723,1.085 0.723,1.252c0,0.463 -0.922,0.362 -1.475,-0.195Z" style="fill:#fff;"/><path d="M149.218,140.541l-101.123,0l0,-101.407l101.123,0l0,101.407Zm-77.48,-14.775c-6.07,-1.582 -10.255,-6.912 -10.255,-13.061c0,-2.602 0.785,-5.052 2.4,-7.485c0.87,-1.312 47.971,-48.565 50.321,-50.483c7.161,-5.846 17.973,-2.626 21.016,6.26c1.258,3.676 0.641,8.293 -1.553,11.607c-0.519,0.783 -12.198,12.648 -25.953,26.366c-27.216,27.143 -25.981,26.039 -30.137,26.939c-2.222,0.481 -3.572,0.448 -5.839,-0.143Z" style="fill:#fff;"/><path d="M266.577,258.186l-101.122,0l0,-101.408l101.122,0l0,101.408Zm-74.346,-12.114c0,-2.326 0.414,-3.657 1.414,-4.55c0.605,-0.54 1.167,-0.578 10.65,-0.734c11.012,-0.181 11.392,-0.234 15.139,-2.09c4.495,-2.228 8.022,-6.419 9.609,-11.419c0.846,-2.666 0.899,-8.236 0.102,-10.824c-0.659,-2.142 -1.664,-4.169 -2.923,-5.896l-0.976,-1.339l0.836,-0.432c1.11,-0.574 3.079,-2.84 3.515,-4.045c0.191,-0.53 0.445,-0.964 0.563,-0.964c0.502,0 3.093,3.632 4.322,6.059c3.943,7.783 3.774,17.187 -0.444,24.729c-1.033,1.847 -3.74,5.447 -4.231,5.626c-0.143,0.052 -0.261,0.212 -0.261,0.356c0,0.143 1.094,0.261 2.431,0.261c4.383,0 5.389,0.898 5.397,4.822l0.011,2.442l-22.575,0.073l-22.574,0.073l0,-2.147l-0.005,-0.001Zm12.248,-15.542c-1.018,-0.611 -1.889,-1.286 -1.936,-1.501c-0.089,-0.412 2.493,-5.025 2.813,-5.025c0.385,0 4.315,2.399 4.432,2.705c0.21,0.545 -2.47,4.989 -2.989,4.958c-0.251,-0.014 -1.249,-0.501 -2.32,-1.137Zm-8.973,-5.222c-1.196,-0.731 -1.956,-1.377 -1.9,-1.617c0.162,-0.69 2.456,-4.592 2.772,-4.716c0.372,-0.146 4.409,2.161 4.585,2.62c0.199,0.519 -2.522,4.975 -3.024,4.951l-2.433,-1.238Zm17.092,-0.078c-2.515,-1.35 -16.577,-9.581 -16.892,-9.888c-0.302,-0.294 -0.277,-0.522 0.143,-1.257c0.851,-1.49 -0.521,-2.094 12.979,5.713c3.254,1.882 5.988,3.537 6.075,3.679c0.185,0.299 -0.752,2.009 -1.168,2.129c-0.156,0.046 -0.667,-0.124 -1.137,-0.376Zm-5.84,-9.31c-3.111,-1.82 -4.952,-3.062 -4.897,-3.305c0.215,-0.953 18.445,-32.001 19.006,-32.368c0.483,-0.317 0.809,-0.342 1.424,-0.108c0.438,0.167 0.893,0.202 1.011,0.078c0.118,-0.123 1.191,-1.913 2.385,-3.979c1.677,-2.899 2.131,-3.914 1.995,-4.455c-0.193,-0.769 0.51,-2.407 1.136,-2.647c0.434,-0.167 7.55,3.838 7.765,4.369c0.246,0.611 -1.04,2.358 -1.735,2.358c-0.518,0 -1.064,0.752 -2.976,4.1l-2.342,4.1l0.863,0.863c0.474,0.474 0.863,0.976 0.863,1.113c0,0.204 -4.703,8.579 -4.964,8.84c-0.042,0.042 -0.575,-0.132 -1.185,-0.387c-1.716,-0.717 -5.319,-0.445 -6.812,0.514c-2.632,1.691 -3.83,3.83 -3.839,6.859c-0.011,2.322 0.777,4.107 2.543,5.78c0.634,0.601 1.153,1.178 1.153,1.282c0,0.534 -5.645,9.812 -5.997,9.856c-0.227,0.029 -2.655,-1.26 -5.397,-2.864l0,0.001Zm14.67,-8.341c-0.313,-0.065 -0.861,-0.182 -1.218,-0.258c-0.356,-0.076 -1.15,-0.592 -1.763,-1.146c-3.047,-2.753 -2.478,-7.514 1.13,-9.449c1.075,-0.577 1.565,-0.666 3.044,-0.555c2.167,0.164 3.54,0.951 4.492,2.576c1.476,2.519 1.105,5.563 -0.892,7.317c-1.352,1.186 -3.25,1.801 -4.793,1.515Z" style="fill:#fff;"/><path d="M88.624,203.557c0.896,-0.905 1.629,-1.717 1.629,-1.803c0,-0.086 -0.636,-0.454 -1.413,-0.818l-1.413,-0.662l-1.317,1.079c-0.724,0.593 -1.387,1.262 -1.473,1.486c-0.165,0.43 1.512,2.364 2.049,2.364c0.166,0 0.999,-0.704 1.938,-1.646Z" style="fill:#fff;"/><path d="M112.994,213.4c10.291,-9.401 10.64,-9.759 11.705,-12.02c0.978,-2.075 1.446,-4.156 1.446,-6.432c0,-8.333 -6.814,-15.008 -14.05,-13.763c-3.272,0.563 -4.279,1.252 -11.16,7.637c-1.723,1.599 -4.383,4.036 -5.911,5.415c-1.527,1.38 -2.772,2.585 -2.765,2.678c0.011,0.094 0.648,0.468 1.426,0.833c4.288,2.011 8.809,7.155 11.686,13.295c1.072,2.287 2.258,5.603 2.258,6.313c0,0.21 0.139,0.381 0.308,0.381c0.169,0 2.409,-1.921 5.057,-4.337Z" style="fill:#fff;"/><path d="M70.113,225.018c0.238,-1.468 1.723,-4.382 3.037,-5.96c0.634,-0.762 2.979,-3.306 5.211,-5.654c2.232,-2.348 4.1,-4.38 4.151,-4.517c0.125,-0.338 -1.675,-2.544 -2.076,-2.544c-0.445,0 -5.89,5.424 -7.727,7.698c-2.8,3.465 -3.882,6.858 -3.405,10.677c0.212,1.69 0.545,1.844 0.809,0.3Z" style="fill:#fff;"/><path d="M149.218,258.186l-101.123,0l0,-101.408l101.123,0l0,101.408Zm-70.541,-15.073c-8.675,-2.356 -14.124,-10.02 -14.092,-19.822c0.014,-4.744 1.558,-9.205 4.357,-12.598c0.676,-0.82 4.626,-4.59 8.778,-8.378c4.151,-3.789 8.766,-8.003 10.254,-9.365c8.24,-7.543 13.899,-12.734 14.528,-13.325c3.244,-3.051 8.371,-4.917 12.382,-4.506c7.955,0.815 14.34,6.993 16.115,15.593c0.666,3.231 0.691,4.821 0.126,8.061c-0.896,5.141 -2.747,8.25 -7.517,12.627c-1.816,1.668 -3.367,3.102 -3.445,3.189c-0.078,0.086 -0.848,0.788 -1.709,1.559c-0.862,0.771 -2.272,2.055 -3.134,2.854c-0.861,0.799 -3.169,2.919 -5.127,4.711c-1.958,1.792 -3.625,3.327 -3.703,3.412c-0.078,0.085 -0.783,0.723 -1.567,1.417c-0.783,0.695 -2.898,2.629 -4.7,4.299c-8.622,7.988 -10.15,9.141 -13.388,10.096c-2.512,0.741 -5.722,0.817 -8.158,0.176Z" style="fill:#fff;"/><path d="M295.632,284.677l-9.115,0l0,12.819l9.115,0l0,12.248l-274.632,0l0.088,-5.578l0,0c0.103,-6.509 0.046,-6.385 2.949,-6.385c0.966,0 2.544,-0.083 3.507,-0.184l1.751,-0.183l0,-12.737l-8.261,0l0,-5.254c0,-5.143 0.015,-5.27 0.687,-6.053l0.688,-0.799l136.612,-0.091l136.611,-0.091l0,12.288Zm-146.129,0l-103.687,0l0,12.819l103.687,0l0,-12.819Zm120.778,0l-104.623,0l0.183,1.751c0.101,0.963 0.183,3.847 0.183,6.409l0,4.659l104.257,0l0,-12.819Z" style="fill:#fff;"/></svg>