<?xml version="1.0" encoding="UTF-8" standalone="no"?>
<!-- Created with Inkscape (http://www.inkscape.org/) -->

<svg
   xmlns:dc="http://purl.org/dc/elements/1.1/"
   xmlns:cc="http://creativecommons.org/ns#"
   xmlns:rdf="http://www.w3.org/1999/02/22-rdf-syntax-ns#"
   xmlns:svg="http://www.w3.org/2000/svg"
   xmlns="http://www.w3.org/2000/svg"
   xmlns:sodipodi="http://sodipodi.sourceforge.net/DTD/sodipodi-0.dtd"
   xmlns:inkscape="http://www.inkscape.org/namespaces/inkscape"
   width="94.13929mm"
   height="92.760712mm"
   viewBox="0 0 333.56441 328.67969"
   id="svg2"
   version="1.1"
   inkscape:version="0.91 r13725"
   sodipodi:docname="sial-logo.svg">
  <defs
     id="defs4" />
  <sodipodi:namedview
     id="base"
     pagecolor="#ffffff"
     bordercolor="#666666"
     borderopacity="1.0"
     inkscape:pageopacity="0"
     inkscape:pageshadow="2"
     inkscape:zoom="1.4"
     inkscape:cx="135.65492"
     inkscape:cy="194.07133"
     inkscape:document-units="px"
     inkscape:current-layer="layer1"
     showgrid="false"
     fit-margin-top="0"
     fit-margin-left="0"
     fit-margin-right="0"
     fit-margin-bottom="0"
     inkscape:window-width="1855"
     inkscape:window-height="1056"
     inkscape:window-x="1985"
     inkscape:window-y="24"
     inkscape:window-maximized="1" />
  <metadata
     id="metadata7">
    <rdf:RDF>
      <cc:Work
         rdf:about="">
        <dc:format>image/svg+xml</dc:format>
        <dc:type
           rdf:resource="http://purl.org/dc/dcmitype/StillImage" />
        <dc:title></dc:title>
      </cc:Work>
    </rdf:RDF>
  </metadata>
  <g
     inkscape:label="Capa 1"
     inkscape:groupmode="layer"
     id="layer1"
     transform="translate(-1549.167,1329.1775)">
    <path
       style="fill:#ffffff"
       d="m 85.592536,877.04984 0,-10.37946 35.751484,0 35.75147,0 0,-11.3858 c 0,-8.61403 -0.2654,-11.74909 -1.0903,-12.87822 -1.03641,-1.41876 -2.50691,-1.51141 -29.7929,-1.87684 l -28.702593,-0.38442 -3.585141,-2.10757 c -7.27177,-4.27473 -8.62587,-9.59631 -8.19332,-32.19955 0.32907,-17.19191 0.81429,-19.20845 5.74945,-23.89243 5.25186,-4.98453 3.45744,-4.82384 56.580834,-5.06564 l 48.24527,-0.21958 0,10.40683 0,10.40682 -35.75148,0 -35.75147,0 0,8.80555 c 0,9.44323 0.80098,12.53431 3.39938,13.11818 0.87895,0.19752 13.71781,0.4487 28.53076,0.55818 l 26.9327,0.19913 3.81441,1.96426 c 2.70589,1.39338 4.48677,3.05087 6.12788,5.70355 l 2.31339,3.7393 0.25626,19.66846 c 0.29431,22.59032 -0.16707,26.013 -4.13049,30.6434 -4.85505,5.67202 -3.63342,5.55531 -58.15512,5.55531 l -48.300474,0 0,-10.37946 z m 185.292594,-44.97766 0,-55.35711 19.60565,0 19.60564,0 0,55.35711 0,55.35712 -19.60564,0 -19.60565,0 0,-55.35712 z m 111.12262,53.62721 c 0.28162,-0.95145 8.46445,-25.88606 18.18409,-55.41025 l 17.67206,-53.68025 16.65814,0.24526 c 16.47348,0.24265 16.70693,0.26933 21.05922,2.4065 4.99866,2.4547 8.9807,6.67384 12.11021,12.8314 1.18205,2.32576 8.80301,24.46861 16.93547,49.20632 8.13247,24.73771 14.93921,45.23715 15.1261,45.5543 0.18688,0.31715 -8.58966,0.56933 -19.50344,0.56041 l -19.84323,-0.0162 -2.72309,-8.63325 -2.72309,-8.63332 -12.50737,-0.21151 c -11.43921,-0.19337 -12.4714,-0.32469 -12.08613,-1.5377 0.23168,-0.72941 1.75227,-5.30498 3.37907,-10.16795 l 2.95783,-8.84176 5.57719,-0.22728 c 3.95118,-0.16099 5.47801,-0.49729 5.237,-1.15327 -0.18709,-0.50928 -1.8417,-5.42377 -3.67691,-10.92104 l -3.33674,-9.99503 -9.89689,30.17732 -9.8969,30.17732 -19.6073,0 -19.60731,0 0.51202,-1.72991 z m 199.87674,0.80222 c -3.6883,-1.28921 -7.18392,-4.29202 -9.04107,-7.76637 l -1.72281,-3.2231 -0.21391,-49.39854 -0.21392,-49.39853 19.62735,0 19.62735,0 0,43.26889 c 0,37.91739 0.14802,43.48025 1.19686,44.97766 l 1.19688,1.70876 34.5546,0 34.5546,0 0,10.37946 0,10.37946 -48.62969,-0.0607 c -31.78852,-0.04 -49.42848,-0.33998 -50.93624,-0.86703 z M 6.5476457,720.14132 c 0.27763,-17.57004 0.12325,-17.23574 7.9605103,-17.23574 2.60578,0 6.86443,-0.22228 9.46368,-0.49399 l 4.72588,-0.49391 0,-17.18961 0,-17.18954 -11.1483,0 -11.1483103,0 0,-14.18088 c 0,-13.88188 0.0392,-14.22625 1.8554604,-16.33804 l 1.8555399,-2.15716 368.729654,-0.24619 368.72967,-0.24626 0,16.5843 0,16.58423 -12.30158,0 -12.30158,0 0,17.2991 0,17.2991 12.30158,0 12.30158,0 0,16.53025 0,16.53025 -370.63086,0 -370.6308843,0 0.23796,-15.05591 z m 604.7453143,4.29218 125.51459,-1.6e-4 0,-5.76636 0,-5.76637 -360.20571,0 -360.205704,0 0,6.2785 0,6.27849 234.691134,-0.51197 c 129.0801,-0.28163 291.17267,-0.51206 360.20569,-0.51213 z m -548.765884,-39.59587 0,-17.2991 -11.53274,0 -11.53273,0 0,17.2991 0,17.2991 11.53273,0 11.53274,0 0,-17.2991 z m 290.624874,0 0,-17.2991 -139.93049,0 -139.930504,0 0,17.2991 0,17.2991 139.930504,0 139.93049,0 0,-17.2991 z m 33.82935,0 0,-17.2991 -11.53274,0 -11.53273,0 0,17.2991 0,17.2991 11.53273,0 11.53274,0 0,-17.2991 z m 292.16258,0 0,-17.2991 -141.1933,0 -141.1933,0 0.49395,4.72588 c 0.27167,2.59925 0.49395,10.38384 0.49395,17.2991 l 0,12.57322 140.69935,0 140.69935,0 0,-17.2991 z m 33.82935,0 0,-17.2991 -11.91716,0 -11.91716,0 0,17.2991 0,17.2991 11.91716,0 11.91716,0 0,-17.2991 z m 23.83432,-33.44493 0,-6.15079 -360.20571,0 -360.205704,0 0,6.15079 0,6.15079 360.205704,0 360.20571,0 0,-6.15079 z M 79.441746,459.18046 l 0,-136.8551 136.470684,0 136.47067,0 0,136.8551 0,136.85512 -136.47067,0 -136.470684,0 0,-136.85512 z m 256.026674,0 0,-119.94043 -119.55599,0 -119.556004,0 0,119.94043 0,119.94044 119.556004,0 119.55599,0 0,-119.94044 z m -173.48151,96.17202 c -23.41568,-6.35915 -38.12253,-27.04447 -38.03811,-53.50091 0.0408,-12.80471 4.20599,-24.84659 11.76208,-34.00522 1.82417,-2.21107 12.48519,-12.38654 23.69116,-22.61216 11.20597,-10.22563 23.66132,-21.60091 27.67856,-25.27843 22.23949,-20.35879 37.51367,-34.36849 39.21129,-35.96516 8.75535,-8.23475 22.59478,-13.27088 33.42079,-12.16172 21.47095,2.19976 38.70539,18.87675 43.49478,42.0878 1.79964,8.72206 1.86715,13.01202 0.34214,21.75691 -2.41972,13.87607 -7.41494,22.26717 -20.28962,34.08329 -4.90325,4.50014 -9.08802,8.37268 -9.29946,8.60565 -0.21143,0.23296 -2.28732,2.12653 -4.61309,4.20792 -2.32577,2.0814 -6.13157,5.54819 -8.45734,7.704 -2.32576,2.1558 -8.55344,7.87711 -13.83928,12.71404 -5.28583,4.83691 -9.7836,8.98172 -9.99503,9.21067 -0.21144,0.22897 -2.11434,1.95043 -4.22867,3.82547 -2.11434,1.87506 -7.82304,7.09563 -12.68601,11.60129 -23.27136,21.56147 -27.39708,24.67269 -36.1359,27.25026 -6.85367,2.02153 -15.62946,2.21136 -22.01829,0.4763 z m -23.11598,-48.84037 c 0.64314,-3.96364 4.65015,-11.82845 8.19585,-16.08672 1.71177,-2.05573 8.04178,-8.92296 14.06678,-15.26052 6.02493,-6.33756 11.06612,-11.82371 11.20259,-12.19144 0.33845,-0.912 -4.51998,-6.86837 -5.60237,-6.86837 -1.20163,0 -15.89656,14.64045 -20.85618,20.77882 -7.55655,9.35264 -10.47687,18.51111 -9.18913,28.8181 0.58094,4.64946 1.50379,4.99205 2.18246,0.81013 z m 115.73936,-31.35885 c 27.77743,-25.37305 28.71912,-26.34003 31.59492,-32.44329 2.63861,-5.59973 3.90114,-11.21774 3.90114,-17.35886 0,-22.49328 -18.39133,-40.50948 -37.92309,-37.14952 -8.82992,1.51898 -11.54795,3.37903 -30.12004,20.6125 -4.65153,4.31627 -11.83066,10.89439 -15.95361,14.61804 -4.12295,3.72366 -7.48213,6.97617 -7.46475,7.22782 0.0177,0.25163 1.74905,1.2631 3.84824,2.2477 11.57433,5.4288 23.77765,19.31071 31.54425,35.88342 2.89318,6.17372 6.09382,15.1243 6.09382,17.04166 0,0.56446 0.37443,1.02629 0.83205,1.02629 0.45762,0 6.5988,-5.26759 13.64707,-11.70576 z m -65.77572,-26.56677 c 2.41826,-2.44375 4.39682,-4.63348 4.39682,-4.86609 0,-0.23261 -1.71638,-1.22681 -3.81411,-2.20935 l -3.8141,-1.78644 -3.554,2.91221 c -1.95465,1.60171 -3.74391,3.40722 -3.97611,4.01223 -0.44493,1.15956 4.08036,6.38062 5.53041,6.38062 0.45885,0 2.81283,-1.99943 5.23109,-4.44318 z m 207.37291,10.59397 0,-136.8551 136.47068,0 136.47068,0 0,136.8551 0,136.85512 -136.47068,0 -136.47068,0 0,-136.85512 z m 256.02669,0 0,-119.94043 -119.55601,0 -119.556,0 0,119.94043 0,119.94044 119.556,0 119.55601,0 0,-119.94044 z M 468.47928,563.33943 c 0,-6.27811 1.11694,-9.87156 3.81737,-12.28151 1.63207,-1.45651 3.15014,-1.56115 28.74574,-1.98179 29.72189,-0.48837 30.74675,-0.62991 40.86196,-5.64184 12.13164,-6.01107 21.65155,-17.32387 25.93456,-30.81883 2.28437,-7.19758 2.42639,-22.22964 0.27605,-29.21626 -1.77908,-5.78035 -4.49146,-11.2515 -7.88993,-15.91476 l -2.63319,-3.61317 2.25547,-1.16635 c 2.99642,-1.54951 8.31219,-7.66576 9.4876,-10.91629 0.51773,-1.43177 1.2021,-2.60321 1.52082,-2.60321 1.35438,0 8.34673,9.80285 11.66553,16.35435 10.64115,21.00629 10.1852,46.39047 -1.19891,66.74718 -2.78726,4.98408 -10.09584,14.70114 -11.41972,15.18298 -0.38728,0.14101 -0.70414,0.57349 -0.70414,0.96106 0,0.38766 2.95195,0.70481 6.55991,0.70481 11.83044,0 14.54546,2.42533 14.56886,13.01438 l 0.0146,6.59126 -60.93128,0.19683 -60.93127,0.19682 0,-5.79566 z m 33.0605,-41.95127 c -2.74863,-1.64866 -5.10016,-3.47066 -5.22562,-4.04886 -0.24132,-1.11223 6.72782,-13.5656 7.59156,-13.5656 1.03807,0 11.64631,6.47577 11.96387,7.30332 0.56429,1.47051 -6.66698,13.46364 -8.06879,13.38216 -0.69492,-0.0404 -3.51238,-1.42235 -6.26102,-3.07102 z m -24.21874,-14.09379 c -3.2289,-1.97151 -5.28072,-3.71751 -5.12893,-4.36446 0.43697,-1.86232 6.62692,-12.3942 7.48105,-12.72861 1.00382,-0.39301 11.90027,5.83288 12.37533,7.07088 0.53773,1.40129 -6.80713,13.42924 -8.16116,13.36473 -0.65139,-0.0311 -3.60622,-1.53518 -6.56629,-3.34254 z m 46.13094,-0.21086 c -6.78613,-3.64252 -44.74118,-25.85921 -45.59166,-26.68673 -0.81724,-0.79518 -0.74748,-1.41093 0.38443,-3.39337 2.29724,-4.02338 -1.40633,-5.65349 35.03322,15.41969 8.78177,5.07855 16.16018,9.54654 16.39647,9.92886 0.50009,0.80916 -2.03099,5.42199 -3.15412,5.74829 -0.41898,0.12172 -1.79974,-0.33581 -3.06834,-1.01674 z m -15.76141,-25.1286 c -8.39807,-4.91175 -13.3659,-8.26421 -13.21816,-8.92009 0.57943,-2.5724 49.78458,-86.3728 51.29776,-87.36427 1.30561,-0.85547 2.18518,-0.92215 3.84409,-0.29144 1.1831,0.44981 2.41119,0.5455 2.72907,0.21264 0.31789,-0.33287 3.21504,-5.16538 6.43811,-10.73891 4.52562,-7.82599 5.75194,-10.56476 5.38505,-12.02656 -0.52077,-2.0749 1.376,-6.49704 3.0647,-7.14505 1.17271,-0.45001 20.38049,10.35911 20.95875,11.79448 0.66406,1.64838 -2.80512,6.36252 -4.68225,6.36252 -1.39699,0 -2.87203,2.03209 -8.03288,11.06649 l -6.32169,11.06649 2.32923,2.32922 c 1.28108,1.28108 2.32923,2.63371 2.32923,3.00586 0,0.55039 -12.69143,23.15325 -13.39619,23.85802 -0.11385,0.11384 -1.55343,-0.35559 -3.19908,-1.04319 -4.63221,-1.93546 -14.35826,-1.20212 -18.38736,1.38642 -7.10467,4.56446 -10.3361,10.33771 -10.36257,18.51371 -0.0203,6.26743 2.09993,11.08608 6.86447,15.60094 1.71252,1.62278 3.11368,3.18026 3.11368,3.46106 0,1.44129 -15.23802,26.48211 -16.18766,26.60137 -0.61129,0.0767 -7.16613,-3.4016 -14.5663,-7.72971 z m 39.59572,-22.51133 c -0.84573,-0.17765 -2.32488,-0.49129 -3.28699,-0.69699 -0.96211,-0.20571 -3.10429,-1.59816 -4.76038,-3.09435 -8.22398,-7.42987 -6.68721,-20.2808 3.04985,-25.50368 2.90248,-1.55686 4.22618,-1.798 8.2171,-1.49691 5.84797,0.44121 9.55362,2.56647 12.12449,6.95362 3.9839,6.79851 2.98174,15.01353 -2.40893,19.7466 -3.7183,3.26471 -8.96739,4.92513 -12.93514,4.09171 z M 79.441746,141.64586 l 0,-136.8550949 136.470684,0 136.47067,0 0,136.8550949 0,136.85511 -136.47067,0 -136.470684,0 0,-136.85511 z m 256.026674,0 0,-119.940423 -119.55599,0 -119.556004,0 0,119.940423 0,119.94043 119.556004,0 119.55599,0 0,-119.94043 z m -192.21221,96.97495 c -16.38248,-4.2693 -27.67856,-18.65687 -27.67856,-35.25361 0,-7.02264 2.11987,-13.63539 6.47663,-20.20349 2.3486,-3.54069 129.48015,-131.080183 135.82177,-136.257603 19.32825,-15.78003 48.51137,-7.0871 56.72454,16.89687 3.39759,9.92155 1.73006,22.38349 -4.19194,31.32753 -1.39992,2.11434 -32.9218,34.138673 -70.04859,71.165183 -73.45944,73.26115 -70.12556,70.28109 -81.34245,72.70993 -5.99817,1.2988 -9.64228,1.20984 -15.7614,-0.38481 z m 15.11034,-5.9321 c 7.58693,-1.16756 8.79471,-2.27548 79.13562,-72.59047 77.27572,-77.247273 72.19015,-71.262303 72.19015,-84.957803 0,-7.0911 -0.19183,-8.08211 -2.46916,-12.75452 -7.3329,-15.04497 -24.97045,-21.202 -40.18228,-14.02709 -3.60151,1.69872 -14.12552,11.87116 -70.96252,68.591913 -36.70362,36.62857 -67.76381,68.13963 -69.02264,70.0246 -2.7664,4.14255 -5.32728,12.07627 -5.32728,16.5043 0,6.51832 3.50372,15.27427 8.18586,20.45685 5.1489,5.69919 16.59168,10.47029 22.95252,9.57006 1.2686,-0.17954 3.74345,-0.54758 5.49973,-0.81784 z m -27.55039,-10.89035 c -2.53659,-2.97904 -4.38306,-7.00899 -5.67026,-12.3756 -1.13306,-4.72361 -1.2144,-6.4032 -0.49699,-10.26079 1.35679,-7.29585 6.2878,-15.99826 9.06504,-15.99826 1.75213,0 1.26468,1.88487 -1.58098,6.11347 -1.4662,2.17881 -3.0212,5.24092 -3.45552,6.80469 -1.96179,7.06371 -0.10195,17.26248 4.16931,22.8624 1.0737,1.4076 1.95211,2.92835 1.95211,3.37943 0,1.30835 -2.72772,0.94855 -3.98271,-0.52534 z m 34.92004,-9.98202 c -0.53343,-0.18658 -1.32403,-1.00105 -1.75697,-1.80993 -1.75452,-3.27839 2.99643,-6.31038 5.38271,-3.43513 2.03891,2.45672 -0.61623,6.2977 -3.62574,5.24506 z m 11.15715,-2.57336 c -2.58802,-1.50739 -1.21201,-6.0892 1.82879,-6.0892 1.58505,0 3.74537,1.99555 3.74537,3.45982 0,1.29424 -2.10165,3.46794 -3.32251,3.43644 -0.49844,-0.0128 -1.51163,-0.37603 -2.25165,-0.80706 z m -21.94787,-8.06509 c -2.90379,-2.03388 -1.72837,-5.7126 1.82517,-5.7126 3.49934,0 4.45072,3.86281 1.44244,5.85654 -1.34064,0.88855 -1.82394,0.86726 -3.26761,-0.14394 z m 11.81552,-2.3077 c -2.36836,-2.36841 -0.97629,-5.71145 2.37836,-5.71145 1.60958,0 3.33311,1.93327 3.33311,3.73878 0,1.11554 -2.24642,3.18086 -3.45982,3.18086 -0.57387,0 -1.58713,-0.54368 -2.25165,-1.20819 z m 12.01603,-2.02097 c -2.6097,-2.6097 0.45931,-6.95745 3.69048,-5.22818 1.88967,1.01134 2.1151,4.99586 0.32153,5.68411 -1.82525,0.7004 -2.98783,0.56828 -4.01201,-0.45593 z m 11.86457,-2.24158 c -1.46012,-2.08471 -0.52997,-4.82002 1.75474,-5.15995 3.47697,-0.51733 5.33166,3.61594 2.56496,5.71617 -1.91059,1.45035 -3.01373,1.3083 -4.3197,-0.55622 z m -44.89547,-2.75627 c -1.72814,-0.64919 -2.62101,-3.16192 -1.72107,-4.84342 1.5633,-2.92106 6.66115,-1.24024 6.02209,1.98554 -0.31369,1.58312 -2.97937,3.35438 -4.30102,2.85788 z m 11.15715,-2.59846 c -1.54454,-0.89959 -1.7825,-3.80699 -0.42287,-5.16659 2.24842,-2.24845 6.47217,0.18949 5.53502,3.19486 -0.84858,2.72166 -2.63899,3.4122 -5.11215,1.97173 z m 11.87872,-2.39873 c -2.60971,-2.6097 0.45931,-6.95744 3.69047,-5.22817 1.5327,0.82028 1.87046,1.65691 1.55192,3.84424 -0.32491,2.23159 -3.54478,3.08157 -5.24239,1.38393 z m 16.86293,-16.85786 c -8.96324,-8.95762 -16.17059,-16.66557 -16.01643,-17.12879 0.15423,-0.46321 0.77069,-0.935 1.37001,-1.04841 1.42744,-0.27015 33.26786,31.68443 32.84261,32.96033 -0.17953,0.53852 -0.68035,1.0971 -1.11291,1.24129 -0.43255,0.14419 -8.12004,-7.0668 -17.08328,-16.02442 z m -5.3302,14.55131 c -2.04499,-2.04497 -0.46392,-5.22817 2.59679,-5.22817 2.30147,0 3.67479,1.87681 3.087,4.21868 -0.37251,1.48416 -0.98067,1.93211 -2.62308,1.93211 -1.17595,0 -2.55327,-0.41518 -3.06071,-0.92262 z m 8.87367,-18.1128 c -9.19382,-9.20088 -16.71593,-17.29225 -16.71593,-17.98083 0,-1.61275 51.2733,-52.939063 52.88435,-52.939063 1.4379,0 34.76442,33.278783 34.76442,34.714583 0,1.40946 -51.62966,52.93419 -53.04196,52.93419 -0.64629,0 -8.69714,-7.528 -17.89088,-16.72888 z m 40.56154,-14.02333 22.28494,-22.29485 -13.05521,-13.07219 c -7.18044,-7.1897 -13.40727,-13.07219 -13.83751,-13.07219 -0.43033,0 -10.76627,9.98838 -22.96883,22.19639 l -22.18652,22.1964 12.96526,13.11854 c 7.13092,7.2152 13.31354,13.142 13.73917,13.17065 0.42556,0.0287 10.80202,-9.98057 23.0587,-22.24275 z m -82.97901,26.46862 c -2.38397,-2.384 -0.97298,-5.71145 2.42187,-5.71145 1.17911,0 2.09604,0.68301 2.70181,2.01244 0.80922,1.77616 0.70704,2.18238 -0.87056,3.45982 -2.17323,1.75979 -2.70274,1.78956 -4.25312,0.23919 z m 12.19056,-1.68676 c -1.7007,-1.16457 -1.8377,-3.28417 -0.31085,-4.81098 2.49207,-2.4921 5.36449,-1.45357 5.36449,1.93956 0,2.79654 -2.8216,4.39976 -5.05364,2.87142 z m 12.02964,-2.43064 c -0.87672,-0.87672 -1.59406,-1.94003 -1.59406,-2.3629 0,-0.42287 0.71734,-1.48618 1.59406,-2.3629 1.43506,-1.4351 1.76097,-1.48324 3.26761,-0.48286 0.92046,0.61116 1.67355,1.89175 1.67355,2.84576 0,0.95401 -0.75309,2.23461 -1.67355,2.84576 -1.50664,1.00038 -1.83255,0.95224 -3.26761,-0.48286 z m -10.66647,-10.20516 c -2.19814,-2.19809 -0.42418,-5.22817 3.06071,-5.22817 1.64241,0 2.25057,0.44795 2.62308,1.93211 0.27809,1.10815 0.0803,2.41966 -0.46392,3.07539 -1.14259,1.37676 -3.94535,1.49524 -5.21987,0.22067 z m 84.10968,-53.5911 c -11.74609,-11.756033 -15.9277,-16.409863 -15.57372,-17.332263 0.3632,-0.94649 0.82228,-1.07489 1.8407,-0.51488 0.74632,0.41035 8.40129,7.835063 17.01109,16.499333 14.20617,14.29609 16.6628,17.41909 13.70204,17.41909 -0.50737,0 -8.14842,-7.23208 -16.98011,-16.07128 z m 23.04586,7.1746 c -0.66451,-0.6645 -1.20816,-1.67774 -1.20816,-2.25163 0,-1.34618 2.11364,-3.45982 3.45982,-3.45982 1.34617,0 3.45982,2.11364 3.45982,3.45982 0,1.34618 -2.11365,3.45982 -3.45982,3.45982 -0.57387,0 -1.58714,-0.54368 -2.25166,-1.20819 z m -9.99503,-9.99504 c -2.36836,-2.36841 -0.97629,-5.71144 2.37836,-5.71144 1.60958,0 3.33311,1.93327 3.33311,3.73878 0,1.11554 -2.24642,3.18086 -3.45982,3.18086 -0.57387,0 -1.58713,-0.54369 -2.25165,-1.2082 z m 12.01603,-2.02097 c -1.64334,-1.64331 -1.08415,-4.41869 1.08984,-5.40922 1.77612,-0.809273 2.18238,-0.70706 3.45982,0.87051 1.75975,2.17325 1.7895,2.70276 0.23919,4.25314 -1.43897,1.43891 -3.51187,1.56253 -4.78885,0.28557 z m 12.14781,-2.15278 c -1.92489,-1.92487 -1.92673,-2.68634 -0.0115,-4.601763 1.28752,-1.2875 1.82894,-1.38851 3.45982,-0.64544 2.30555,1.0505 2.62623,4.167323 0.58794,5.714623 -1.81118,1.3749 -2.24427,1.32475 -4.03646,-0.46742 z m -34.15888,-5.821283 c -2.58833,-2.58835 -0.56141,-6.29472 2.95923,-5.41109 2.50052,0.62757 3.28267,3.22113 1.54907,5.13668 -1.6275,1.79839 -2.90648,1.87624 -4.5083,0.27441 z m 12.01604,-2.02097 c -1.55416,-1.55418 -1.10276,-4.44087 0.80729,-5.1621 3.28967,-1.2422 5.3335,1.2742 3.95419,4.86856 -0.55004,1.43331 -3.44337,1.61168 -4.76148,0.29354 z m 38.07439,-1.57614 c -0.18829,-0.52859 0.76047,-2.51798 2.10826,-4.42088 6.82684,-9.63816 6.5968,-21.4501 -0.60162,-30.88767 -2.44463,-3.20508 -2.60471,-4.47938 -0.56265,-4.47938 2.8592,0 7.0808,7.11046 8.9135,15.0132 0.97013,4.18283 1.01926,5.91792 0.27871,9.83326 -0.97852,5.17376 -3.55616,10.62852 -6.54613,13.85311 -2.08958,2.25354 -3.06917,2.5505 -3.59007,1.08836 z m -26.54166,-0.73041 c -2.18638,-2.18636 -0.42725,-5.22817 3.02357,-5.22817 2.31901,0 3.42669,1.97372 2.58903,4.61309 -0.55557,1.75044 -4.0899,2.13776 -5.6126,0.61508 z m 12.58713,-1.82327 c -1.41676,-1.41678 -1.49356,-2.20385 -0.41226,-4.22429 1.4592,-2.7266 6.12373,-1.44153 6.12373,1.68709 0,1.58513 -1.99554,3.74539 -3.45982,3.74539 -0.57387,0 -1.58713,-0.54368 -2.25165,-1.20819 z m -45.99362,-3.46379 c -1.54454,-0.90271 -1.78234,-3.80979 -0.42286,-5.16928 1.4409,-1.44094 4.31685,-1.08767 5.2437,0.64411 0.86995,1.62551 0.37082,4.58406 -0.77331,4.58406 -0.35982,0 -1.11491,0.16369 -1.67809,0.36374 -0.56318,0.20006 -1.62942,0.01 -2.36944,-0.42263 z m 11.35836,-2.99681 c -1.28644,-1.42149 -1.29289,-1.64145 -0.10149,-3.45982 2.04522,-3.12135 5.85002,-2.13405 5.85002,1.518 0,3.41884 -3.37893,4.56022 -5.74853,1.94182 z m 13.62039,-0.58773 c -1.71776,-0.59303 -2.62377,-3.1272 -1.72107,-4.81391 1.57291,-2.93906 6.15079,-1.48589 6.15079,1.95248 0,1.71771 -2.69673,3.4597 -4.42972,2.86143 z m 11.15715,-2.56895 c -2.58802,-1.50739 -1.21201,-6.0892 1.82879,-6.0892 1.58506,0 3.74537,1.99555 3.74537,3.45982 0,1.29424 -2.10165,3.46794 -3.32251,3.43644 -0.49844,-0.0128 -1.51163,-0.37603 -2.25165,-0.80706 z m -22.71948,-8.54952 c -2.19814,-2.19809 -0.42418,-5.22817 3.06071,-5.22817 1.64241,0 2.25057,0.44795 2.62308,1.93211 0.27809,1.10815 0.0803,2.41966 -0.46392,3.07539 -1.14259,1.37676 -3.94535,1.49524 -5.21987,0.22067 z m 12.58713,-1.82327 c -1.4389,-1.43892 -1.56253,-3.51187 -0.28555,-4.78883 2.98621,-2.98621 7.67788,1.3276 4.84659,4.4562 -1.6787,1.8549 -2.9463,1.94734 -4.56104,0.33263 z"
       id="path4301"
       inkscape:connector-curvature="0" />
    <path
       id="path4943"
       style="fill:#ffffff"
       d="m 1664.9626,-1298.9291 c -0.6475,-0.6476 -0.7031,-1.5804 -0.129,-2.155 1.3438,-1.3437 3.4551,0.5974 2.1809,2.0053 -0.7553,0.8347 -1.3258,0.8763 -2.0524,0.1497 z m -5.6641,0.8204 c -0.9891,-0.9891 -0.1909,-2.3527 1.3773,-2.3527 0.739,0 1.0128,0.2016 1.1803,0.8695 0.1251,0.4987 0.036,1.0889 -0.2087,1.3839 -0.5142,0.6196 -1.7753,0.6729 -2.3489,0.099 z m 10.2236,3.8473 c -1.1646,-0.6783 -0.5453,-2.7402 0.823,-2.7402 0.7132,0 1.6854,0.8981 1.6854,1.557 0,0.5824 -0.9457,1.5606 -1.4952,1.5464 -0.2242,0 -0.6801,-0.1693 -1.0132,-0.3632 z m -5.0206,1.156 c -0.773,-0.2668 -1.1807,-1.4072 -0.7745,-2.1662 0.7077,-1.3227 2.7678,-0.6687 2.7678,0.8786 0,0.7729 -1.2135,1.5568 -1.9933,1.2876 z m -6.1292,0.2644 c -0.5789,-0.6396 -0.5817,-0.7385 -0.046,-1.5568 0.9203,-1.4046 2.6325,-0.9603 2.6325,0.683 0,1.5385 -1.5205,2.0521 -2.5869,0.8738 z m -5.1112,1.3486 c -0.695,-0.4062 -0.802,-1.7143 -0.1902,-2.3261 0.6483,-0.6485 1.9426,-0.4895 2.3596,0.2898 0.3915,0.7315 0.1669,2.0629 -0.3479,2.0629 -0.162,0 -0.5018,0.073 -0.7553,0.1636 -0.2534,0.09 -0.7331,0 -1.0662,-0.1902 z m 20.6969,1.5588 c -0.6374,-0.6376 -0.6721,-0.9919 -0.1854,-1.901 0.6566,-1.227 2.7555,-0.6487 2.7555,0.7591 0,0.7134 -0.8978,1.6855 -1.5568,1.6855 -0.2582,0 -0.7143,-0.2446 -1.0133,-0.5436 z m -5.6641,0.8203 c -0.9839,-0.9837 -0.1922,-2.3525 1.3606,-2.3525 1.0436,0 1.5421,0.8881 1.165,2.0758 -0.2499,0.7876 -1.8403,0.962 -2.5256,0.2767 z m 11.9437,0.3288 c -0.085,-0.238 0.3422,-1.1331 0.9487,-1.9894 3.0719,-4.3372 2.9685,-9.6524 -0.2707,-13.8994 -1.1002,-1.4423 -1.1722,-2.0157 -0.2532,-2.0157 1.2866,0 3.1863,3.1997 4.011,6.756 0.4365,1.8821 0.4586,2.663 0.1251,4.4248 -0.4405,2.3283 -1.6004,4.7829 -2.9458,6.2339 -0.9404,1.0141 -1.3811,1.1476 -1.6155,0.4898 z m -17.1333,0.7092 c -0.6995,-0.6993 -0.4963,-1.9984 0.3632,-2.323 1.4804,-0.5588 2.4,0.5735 1.7794,2.1908 -0.2476,0.645 -1.5495,0.7253 -2.1426,0.1322 z m -5.4072,0.9095 c -1.1647,-1.1648 -0.2526,-2.8326 1.3317,-2.4351 1.1251,0.2825 1.477,1.4496 0.6971,2.3115 -0.7324,0.8093 -1.308,0.8444 -2.0288,0.1238 z m 15.3714,2.6195 c -0.8663,-0.8662 -0.8671,-1.2088 0,-2.0709 0.5793,-0.5793 0.8229,-0.6247 1.5569,-0.2904 1.0374,0.4729 1.1818,1.8754 0.2645,2.5716 -0.815,0.6188 -1.0099,0.5962 -1.8164,-0.2103 z m -5.4666,0.9687 c -0.7394,-0.7395 -0.4878,-1.9884 0.4905,-2.4341 0.7992,-0.3641 0.982,-0.3181 1.5569,0.3917 0.7918,0.978 0.8052,1.2162 0.1081,1.914 -0.6474,0.6474 -1.5802,0.7031 -2.155,0.129 z m -5.4071,0.9094 c -1.0657,-1.0657 -0.4394,-2.57 1.0703,-2.57 0.7243,0 1.4998,0.8699 1.4998,1.6824 0,0.5019 -1.0108,1.4313 -1.5569,1.4313 -0.2583,0 -0.7142,-0.2447 -1.0132,-0.5437 z m 4.4978,4.4978 c -0.2991,-0.2991 -0.5438,-0.755 -0.5438,-1.0132 0,-0.6058 0.9512,-1.557 1.557,-1.557 0.6057,0 1.5569,0.9512 1.5569,1.557 0,0.6057 -0.9512,1.5569 -1.5569,1.5569 -0.2583,0 -0.7142,-0.2447 -1.0132,-0.5437 z m -10.3706,-3.2286 c -5.2857,-5.2901 -7.1674,-7.3844 -7.0082,-7.7994 0.1636,-0.4259 0.3701,-0.4836 0.8284,-0.2318 0.3359,0.1848 3.7806,3.5259 7.6549,7.4247 6.3927,6.4332 7.4981,7.8385 6.1658,7.8385 -0.2283,0 -3.6667,-3.2543 -7.6409,-7.232 z m -37.849,24.1158 c -0.9891,-0.9891 -0.1909,-2.3526 1.3773,-2.3526 0.7391,0 1.0127,0.2015 1.1804,0.8694 0.1251,0.4987 0.036,1.0888 -0.2087,1.3839 -0.5142,0.6195 -1.7755,0.6729 -2.349,0.099 z m 4.7999,4.5923 c -0.3946,-0.3946 -0.7173,-0.873 -0.7173,-1.0634 0,-0.1902 0.3227,-0.6687 0.7173,-1.0632 0.6458,-0.6458 0.7923,-0.6675 1.4704,-0.2172 0.4142,0.2749 0.753,0.8512 0.753,1.2804 0,0.4293 -0.3388,1.0057 -0.753,1.2806 -0.6781,0.4502 -0.8246,0.4285 -1.4704,-0.2172 z m -5.4133,1.0937 c -0.7653,-0.5241 -0.827,-1.4778 -0.1399,-2.1649 1.1215,-1.1214 2.414,-0.6541 2.414,0.8729 0,1.2584 -1.2697,1.9797 -2.2741,1.292 z m -5.4857,0.7591 c -1.0728,-1.0729 -0.4379,-2.5701 1.0899,-2.5701 0.5305,0 0.9432,0.3072 1.2158,0.9056 0.3642,0.7992 0.318,0.982 -0.3918,1.5569 -0.9779,0.7918 -1.2162,0.8052 -1.9139,0.1081 z m 37.3402,-11.9108 10.0281,-10.0325 -5.8748,-5.8825 c -3.2312,-3.2353 -6.0332,-5.8824 -6.2268,-5.8824 -0.1937,0 -4.8448,4.4948 -10.3359,9.9883 l -9.9838,9.9883 5.8344,5.9033 c 3.2088,3.2468 5.991,5.9137 6.1825,5.9266 0.1914,0.013 4.8608,-4.4911 10.3763,-10.0091 z m -18.2526,6.3105 c -4.1371,-4.1404 -7.522,-7.7815 -7.522,-8.0913 0,-0.7258 23.0728,-23.8224 23.7977,-23.8224 0.647,0 15.6438,14.9754 15.6438,15.6214 0,0.6343 -23.233,23.8201 -23.8686,23.8201 -0.2908,0 -3.9137,-3.3875 -8.0509,-7.5278 z m -3.993,8.1507 c -0.9203,-0.9203 -0.2089,-2.3527 1.1685,-2.3527 1.0356,0 1.6536,0.8446 1.3891,1.8983 -0.1677,0.6679 -0.4413,0.8695 -1.1803,0.8695 -0.5292,0 -1.149,-0.1869 -1.3773,-0.4151 z m 2.3985,-6.5481 c -4.0333,-4.0309 -7.2767,-7.4994 -7.2073,-7.7079 0.069,-0.2085 0.3469,-0.4207 0.6165,-0.4717 0.6423,-0.1212 14.9703,14.2578 14.7791,14.8319 -0.081,0.2424 -0.3062,0.4937 -0.5009,0.5586 -0.1947,0.065 -3.654,-3.1799 -7.6874,-7.2109 z m -7.5883,7.586 c -1.1742,-1.1744 0.2068,-3.1308 1.6608,-2.3527 0.6897,0.3692 0.8416,0.7456 0.6983,1.7299 -0.1462,1.0042 -1.5951,1.3866 -2.3591,0.6228 z m -5.3454,1.0794 c -0.6948,-0.4048 -0.8019,-1.7132 -0.1902,-2.3249 1.0118,-1.0118 2.9124,0.085 2.4908,1.4376 -0.3819,1.2248 -1.1875,1.5354 -2.3006,0.8873 z m -5.0206,1.1693 c -0.7776,-0.2921 -1.1794,-1.4228 -0.7744,-2.1795 0.7035,-1.3144 2.9975,-0.5582 2.7098,0.8935 -0.1411,0.7123 -1.3406,1.5093 -1.9354,1.286 z m 20.2028,1.2403 c -0.6571,-0.9381 -0.2385,-2.1689 0.7896,-2.322 1.5646,-0.2327 2.3993,1.6271 1.1543,2.5723 -0.8598,0.6526 -1.3561,0.5887 -1.9439,-0.2503 z m -5.339,1.0087 c -1.1744,-1.1744 0.2066,-3.1308 1.6606,-2.3527 0.8504,0.4551 0.9519,2.2482 0.1448,2.5579 -0.8214,0.3152 -1.3445,0.2556 -1.8054,-0.2052 z m -5.4071,0.9094 c -1.0659,-1.0658 -0.4394,-2.5701 1.0702,-2.5701 0.7242,0 1.4999,0.87 1.4999,1.6824 0,0.5019 -1.0109,1.4314 -1.5569,1.4314 -0.2583,0 -0.7142,-0.2446 -1.0132,-0.5437 z m -5.317,1.0385 c -1.3066,-0.9153 -0.7778,-2.5706 0.8214,-2.5706 1.5747,0 2.0027,1.7382 0.649,2.6354 -0.6033,0.3997 -0.8207,0.3902 -1.4704,-0.065 z m 9.8765,3.6292 c -1.1646,-0.6783 -0.5454,-2.7401 0.8228,-2.7401 0.7134,0 1.6854,0.898 1.6854,1.5569 0,0.5824 -0.9457,1.5606 -1.495,1.5464 -0.2242,0 -0.6803,-0.1691 -1.0132,-0.3632 z m -5.0207,1.158 c -0.2401,-0.083 -0.5958,-0.4504 -0.7906,-0.8145 -0.7896,-1.4752 1.3483,-2.8396 2.4221,-1.5457 0.9176,1.1056 -0.2773,2.834 -1.6315,2.3602 z m -15.7138,4.4919 c -1.1416,-1.3406 -1.9724,-3.154 -2.5517,-5.5689 -0.5098,-2.1256 -0.5465,-2.8815 -0.2236,-4.6173 0.6105,-3.2831 2.8295,-7.1993 4.0792,-7.1993 0.7885,0 0.5691,0.8483 -0.7113,2.7512 -0.6599,0.9803 -1.3597,2.3582 -1.555,3.062 -0.8829,3.1786 -0.046,7.768 1.8761,10.288 0.4832,0.6333 0.8784,1.3177 0.8784,1.5207 0,0.5888 -1.2274,0.4268 -1.7921,-0.2364 z m 12.3975,4.9007 c 3.4141,-0.5255 3.9575,-1.024 35.6106,-32.6655 34.7738,-34.7609 32.4854,-32.0677 32.4854,-38.2306 0,-3.1909 -0.086,-3.6369 -1.1112,-5.7394 -3.2998,-6.7702 -11.2366,-9.5409 -18.0819,-6.3122 -1.6207,0.7644 -6.3564,5.342 -31.9328,30.866 -16.5164,16.4828 -30.4934,30.6625 -31.0598,31.5108 -1.2449,1.8642 -2.3973,5.4342 -2.3973,7.4269 0,2.9331 1.5766,6.8734 3.6836,9.2054 2.3169,2.5647 7.4662,4.7116 10.3285,4.3065 0.5708,-0.081 1.6845,-0.2464 2.4749,-0.3679 z m -6.7997,2.6693 c -7.372,-1.9212 -12.4552,-8.3954 -12.4552,-15.8639 0,-3.1602 0.954,-6.1359 2.9145,-9.0916 1.0569,-1.5933 58.2655,-58.9854 61.1192,-61.3152 8.6977,-7.1009 21.8299,-3.1892 25.5259,7.6035 1.5288,4.4646 0.7784,10.0725 -1.8865,14.0972 -0.63,0.9514 -14.8147,15.3623 -31.5214,32.024 -33.0565,32.9672 -31.5563,31.6262 -36.6039,32.7191 -2.6991,0.5846 -4.339,0.5446 -7.0926,-0.1731 z m 86.4947,-43.6382 0,-53.9727 -53.7996,0 -53.7997,0 0,53.9727 0,53.9725 53.7997,0 53.7996,0 0,-53.9725 z m -115.2108,0 0,-61.5842 61.4112,0 61.4111,0 0,61.5842 0,61.5841 -61.4111,0 -61.4112,0 0,-61.5841 z m 210.5279,143.0074 c -0.3806,-0.08 -1.0462,-0.221 -1.4792,-0.3136 -0.4329,-0.092 -1.3969,-0.7191 -2.1421,-1.3924 -3.7007,-3.3435 -3.0092,-9.1262 1.3725,-11.4766 1.3061,-0.7006 1.9017,-0.809 3.6976,-0.6736 2.6316,0.1986 4.2991,1.155 5.456,3.1291 1.7926,3.0593 1.3418,6.7561 -1.0841,8.886 -1.6732,1.469 -4.0352,2.2162 -5.8207,1.8411 z m -17.8179,10.1301 c -3.7791,-2.2103 -6.0146,-3.7189 -5.948,-4.014 0.2607,-1.1576 22.4027,-38.8674 23.0837,-39.3136 0.5875,-0.3849 0.9833,-0.4148 1.7298,-0.1311 0.5324,0.2024 1.085,0.2455 1.2281,0.095 0.143,-0.1499 1.4467,-2.3244 2.897,-4.8326 2.0366,-3.5215 2.5884,-4.754 2.4233,-5.4118 -0.2344,-0.9337 0.6192,-2.9236 1.3791,-3.2152 0.5277,-0.2025 9.1711,4.6615 9.4314,5.3074 0.2988,0.7418 -1.2623,2.8631 -2.1071,2.8631 -0.6285,0 -1.2924,0.9144 -3.6147,4.9799 l -2.8447,4.9798 1.0481,1.0482 c 0.5765,0.5765 1.0482,1.1852 1.0482,1.3526 0,0.2477 -5.7112,10.4189 -6.0283,10.7361 -0.051,0.051 -0.6991,-0.1602 -1.4395,-0.4695 -2.0846,-0.8709 -6.4612,-0.541 -8.2743,0.6239 -3.1971,2.054 -4.6511,4.6519 -4.6631,8.331 -0.013,2.8203 0.9449,4.9888 3.089,7.0204 0.7706,0.7303 1.4011,1.4312 1.4011,1.5576 0,0.6485 -6.857,11.9167 -7.2843,11.9704 -0.2751,0.035 -3.2248,-1.5308 -6.5548,-3.4784 z m 7.0926,11.3077 c -3.0538,-1.6391 -20.1333,-11.6365 -20.5161,-12.0089 -0.3677,-0.3578 -0.3363,-0.6349 0.173,-1.5269 1.0338,-1.8105 -0.6329,-2.5441 15.7648,6.9387 3.9517,2.2854 7.272,4.2959 7.3783,4.468 0.225,0.364 -0.9139,2.4398 -1.4193,2.5867 -0.1886,0.055 -0.8098,-0.1512 -1.3807,-0.4576 z m -20.7588,0.095 c -1.4529,-0.8872 -2.3762,-1.6729 -2.3079,-1.964 0.1966,-0.8381 2.9821,-5.5773 3.3664,-5.7279 0.4517,-0.1768 5.3551,2.6248 5.5688,3.1819 0.242,0.6306 -3.0632,6.0431 -3.6725,6.014 -0.293,-0.014 -1.6227,-0.6907 -2.9548,-1.504 z m 10.8984,6.3421 c -1.2368,-0.7419 -2.2951,-1.5619 -2.3515,-1.8221 -0.1082,-0.5004 3.0274,-6.1043 3.4161,-6.1043 0.4671,0 5.2409,2.914 5.3837,3.2864 0.254,0.6618 -3.0001,6.0586 -3.6309,6.022 -0.3127,-0.018 -1.5805,-0.6402 -2.8174,-1.382 z m -14.8772,18.8778 c 0,-2.8251 0.5027,-4.4421 1.7179,-5.5266 0.7344,-0.6554 1.4175,-0.7024 12.9354,-0.8918 13.3748,-0.2198 13.836,-0.2835 18.3877,-2.5387 5.4593,-2.705 9.7431,-7.7958 11.6705,-13.8685 1.0279,-3.2388 1.0919,-10.0031 0.1238,-13.1471 -0.8006,-2.6011 -2.0211,-5.0631 -3.5504,-7.1616 l -1.1849,-1.6258 1.0149,-0.5249 c 1.3484,-0.6973 3.7404,-3.4496 4.2693,-4.9122 0.233,-0.6444 0.541,-1.1716 0.6845,-1.1716 0.6094,0 3.756,4.4113 5.2493,7.3594 4.7886,9.4528 4.5834,20.8756 -0.5394,30.0359 -1.2543,2.2429 -4.5431,6.6156 -5.1389,6.8324 -0.1742,0.064 -0.3168,0.258 -0.3168,0.4324 0,0.1745 1.3283,0.3172 2.9519,0.3172 5.3237,0 6.5454,1.0914 6.5559,5.8564 l 0.013,2.966 -27.4189,0.089 -27.4187,0.089 0,-2.6081 z m 82.689,-46.871 0,-53.9727 -53.7997,0 -53.7996,0 0,53.9727 0,53.9727 53.7996,0 53.7997,0 0,-53.9727 z m -115.2108,0 0,-61.5842 61.4111,0 61.4112,0 0,61.5842 0,61.5842 -61.4112,0 -61.4111,0 0,-61.5842 z m -93.317,-4.7672 c 1.0882,-1.0997 1.9786,-2.0851 1.9786,-2.1898 0,-0.1043 -0.7724,-0.552 -1.7163,-0.9942 l -1.7163,-0.8038 -1.5993,1.3104 c -0.8796,0.7208 -1.6848,1.5332 -1.7893,1.8056 -0.2002,0.5217 1.8362,2.8712 2.4886,2.8712 0.2065,0 1.2659,-0.8998 2.354,-1.9994 z m 29.5989,11.9549 c 12.4996,-11.4178 12.9234,-11.8529 14.2175,-14.5993 1.1873,-2.5199 1.7555,-5.0479 1.7555,-7.8114 0,-10.1219 -8.276,-18.2292 -17.0652,-16.7172 -3.9734,0.6835 -5.1966,1.5206 -13.5539,9.2756 -2.0931,1.9422 -5.3238,4.9023 -7.1791,6.578 -1.8553,1.6756 -3.3669,3.1392 -3.3591,3.2525 0.013,0.1133 0.787,0.5685 1.7317,1.0115 5.2084,2.4428 10.6999,8.6897 14.1947,16.1474 1.302,2.7781 2.7423,6.8058 2.7423,7.6686 0,0.254 0.1685,0.4619 0.3743,0.4619 0.206,0 2.9695,-2.3704 6.1413,-5.2676 z m -52.0823,14.1113 c 0.2895,-1.7836 2.0926,-5.3227 3.6882,-7.239 0.7702,-0.925 3.6187,-4.0153 6.3299,-6.8671 2.7113,-2.8519 4.9798,-5.3206 5.0411,-5.4861 0.1523,-0.4104 -2.0339,-3.0907 -2.521,-3.0907 -0.5407,0 -7.1534,6.588 -9.3851,9.3504 -3.4006,4.2086 -4.7146,8.3298 -4.1352,12.9679 0.2614,2.0922 0.6768,2.2465 0.9821,0.3646 z m 10.4021,21.978 c -10.537,-2.8616 -17.155,-12.1699 -17.1169,-24.0751 0.018,-5.7621 1.8925,-11.181 5.2928,-15.3023 0.8209,-0.995 5.6182,-5.5739 10.6609,-10.1754 5.0427,-4.6015 10.6475,-9.7203 12.4553,-11.3751 10.0077,-9.1614 16.8809,-15.4658 17.6449,-16.1842 3.9398,-3.7056 10.1676,-5.9719 15.0392,-5.4727 9.6617,0.9899 17.4172,8.4944 19.5724,18.9393 0.8099,3.9248 0.8403,5.8553 0.154,9.7905 -1.0889,6.2442 -3.3367,10.0201 -9.1303,15.3373 -2.2063,2.0251 -4.0895,3.7677 -4.1847,3.8726 -0.095,0.1042 -1.0292,0.9569 -2.0759,1.8935 -1.0465,0.9366 -2.7592,2.4967 -3.8057,3.4667 -1.0466,0.9701 -3.8491,3.5447 -6.2277,5.7213 -2.3786,2.1767 -4.4025,4.0417 -4.4976,4.1448 -0.095,0.1029 -0.9514,0.8777 -1.9029,1.7214 -0.9514,0.8438 -3.5204,3.193 -5.7086,5.2205 -10.4721,9.7026 -12.3286,11.1026 -16.261,12.2626 -3.0842,0.9096 -7.0332,0.9951 -9.9082,0.2143 z m 78.0659,-43.277 0,-53.9727 -53.7996,0 -53.7997,0 0,53.9727 0,53.9727 53.7997,0 53.7996,0 0,-53.9727 z m -115.2108,0 0,-61.5842 61.4112,0 61.4111,0 0,61.5842 0,61.5842 -61.4111,0 -61.4112,0 0,-61.5842 z m 295.8116,86.4946 0,-2.7678 -162.0909,0 -162.091,0 0,2.7678 0,2.7679 162.091,0 162.0909,0 0,-2.7679 z m -10.7253,15.0501 0,-7.7845 -5.3627,0 -5.3627,0 0,7.7845 0,7.7846 5.3627,0 5.3627,0 0,-7.7846 z m -15.223,0 0,-7.7845 -63.5365,0 -63.5363,0 0.2223,2.1266 c 0.1224,1.1696 0.2223,4.6727 0.2223,7.7845 l 0,5.658 63.314,0 63.3142,0 0,-7.7846 z m -131.472,0 0,-7.7845 -5.1896,0 -5.1897,0 0,7.7845 0,7.7846 5.1897,0 5.1896,0 0,-7.7846 z m -15.223,0 0,-7.7845 -62.9681,0 -62.9681,0 0,7.7845 0,7.7846 62.9681,0 62.9681,0 0,-7.7846 z m -130.7799,0 0,-7.7845 -5.1897,0 -5.1897,0 0,7.7845 0,7.7846 5.1897,0 5.1897,0 0,-7.7846 z m 246.9423,17.818 56.4809,0 0,-2.5949 0,-2.5949 -162.0909,0 -162.091,0 0,2.8254 0,2.8252 105.61,-0.2304 c 58.0855,-0.1263 131.0263,-0.2304 162.091,-0.2304 z m -272.1327,-1.9315 c 0.1251,-7.9064 0.056,-7.756 3.5822,-7.756 1.1725,0 3.089,-0.1003 4.2585,-0.2223 l 2.1266,-0.2223 0,-7.7351 0,-7.7353 -5.0166,0 -5.0168,0 0,-6.3813 c 0,-6.2469 0.018,-6.4018 0.835,-7.3521 l 0.8351,-0.9707 165.9266,-0.1108 165.9267,-0.1107 0,7.4628 0,7.4629 -5.5356,0 -5.5357,0 0,7.7845 0,7.7846 5.5357,0 5.5356,0 0,7.4385 0,7.4385 -166.7822,0 -166.7822,0 0.1068,-6.775 z"
       inkscape:connector-curvature="0" />
  </g>
</svg>
