<?xml version="1.0" encoding="utf-8"?>
<!-- Generator: Adobe Illustrator 19.2.1, SVG Export Plug-In . SVG Version: 6.00 Build 0)  -->
<svg version="1.1" id="Capa_1" xmlns="http://www.w3.org/2000/svg" xmlns:xlink="http://www.w3.org/1999/xlink" x="0px" y="0px"
	 viewBox="0 0 792 612" style="enable-background:new 0 0 792 612;" xml:space="preserve">
<style type="text/css">
	.st0{fill:#19EACB;}
	.st1{fill:#00D1B2;}
	.st2{fill:#09DABB;}
	.st3{fill:#0EDFC0;}
	.st4{fill:#00C5A6;}
	.st5{fill:#AE2427;}
	.st6{fill:#F39722;}
	.st7{fill:#056634;}
	.st8{fill:#006097;}
	.st9{fill:#E4252A;}
	.st10{fill:#FDCA09;}
	.st11{fill:#05A250;}
	.st12{fill:#47A7DC;}
	.st13{fill:#FFFFFF;}
	.st14{opacity:0.5;}
</style>
<g>
	
		<image style="overflow:visible;enable-background:new    ;" width="142" height="127" xlink:href="ABE0C3CC.jpg"  transform="matrix(1 0 0 1 325 241)">
	</image>
</g>
<rect y="182.3" class="st0" width="792" height="61.9"/>
<rect y="367.9" class="st1" width="792" height="61.9"/>
<rect y="306" class="st2" width="792" height="61.9"/>
<rect y="244.1" class="st3" width="792" height="61.9"/>
<g>
	<path class="st4" d="M148.5,380.3l49.5,49.5H99L148.5,380.3z"/>
	<path class="st4" d="M49.5,380.3L99,429.8H0L49.5,380.3z"/>
	<path class="st4" d="M247.5,380.3L198,429.8h99L247.5,380.3z"/>
	<path class="st4" d="M346.5,380.3L297,429.8h99L346.5,380.3z"/>
	<path class="st4" d="M643.5,380.3L594,429.8h99L643.5,380.3z"/>
	<path class="st4" d="M742.5,380.3L693,429.8h99L742.5,380.3z"/>
	<path class="st4" d="M544.5,380.3l49.5,49.5h-99L544.5,380.3z"/>
	<path class="st4" d="M445.5,380.3l49.5,49.5h-99L445.5,380.3z"/>
</g>
<path class="st4" d="M475.2,266.4c0-21.9-17.7-39.6-39.6-39.6h-79.2c-21.9,0-39.6,17.7-39.6,39.6v79.2c0,21.9,17.7,39.6,39.6,39.6
	h79.2c21.9,0,39.6-17.7,39.6-39.6L475.2,266.4L475.2,266.4z"/>
<polygon class="st5" points="396,227.5 317.5,227.5 317.5,306 396,306 "/>
<polygon class="st6" points="474.5,227.5 396,227.5 396,306 474.5,306 "/>
<polygon class="st7" points="396,306 317.5,306 317.5,384.5 396,384.5 "/>
<polygon class="st8" points="474.5,306 396,306 396,384.5 474.5,384.5 "/>
<path class="st9" d="M396,258.9c0-17.4-14.1-31.4-31.4-31.4H349c-17.4,0-31.4,14.1-31.4,31.4v15.6c0,17.4,14.1,31.4,31.4,31.4h15.6
	c17.4,0,31.4-14.1,31.4-31.4V258.9L396,258.9z M376.4,266.7c0-10.8-8.8-19.6-19.6-19.6s-19.6,8.8-19.6,19.6
	c0,10.8,8.8,19.6,19.6,19.6S376.4,277.6,376.4,266.7L376.4,266.7z"/>
<path class="st10" d="M474.5,258.9c0-17.4-14.1-31.4-31.4-31.4h-15.6c-17.4,0-31.4,14.1-31.4,31.4v15.6c0,17.4,14.1,31.4,31.4,31.4
	h15.6c17.4,0,31.4-14.1,31.4-31.4V258.9L474.5,258.9z M454.9,266.7c0-10.8-8.8-19.6-19.6-19.6s-19.6,8.8-19.6,19.6
	c0,10.8,8.8,19.6,19.6,19.6S454.9,277.6,454.9,266.7L454.9,266.7z"/>
<path class="st11" d="M396,337.4c0-17.4-14.1-31.4-31.4-31.4H349c-17.4,0-31.4,14.1-31.4,31.4V353c0,17.4,14.1,31.4,31.4,31.4h15.6
	c17.4,0,31.4-14.1,31.4-31.4V337.4L396,337.4z M376.4,345.2c0-10.8-8.8-19.6-19.6-19.6s-19.6,8.8-19.6,19.6
	c0,10.8,8.8,19.6,19.6,19.6S376.4,356.1,376.4,345.2L376.4,345.2z"/>
<path class="st12" d="M474.5,337.4c0-17.4-14.1-31.4-31.4-31.4h-15.6c-17.4,0-31.4,14.1-31.4,31.4V353c0,17.4,14.1,31.4,31.4,31.4
	h15.6c17.4,0,31.4-14.1,31.4-31.4V337.4L474.5,337.4z M454.9,345.2c0-10.8-8.8-19.6-19.6-19.6s-19.6,8.8-19.6,19.6
	c0,10.8,8.8,19.6,19.6,19.6S454.9,356.1,454.9,345.2L454.9,345.2z"/>
<g>
	<g>
		<g>
			<path class="st13" d="M359.1,310.3c0.4,0,0.6,0,1-0.1c0.8-0.2,1.5-0.6,2.1-1.2c0.3-0.3,0.4-0.4,0.6-0.8l0.2-0.4l9.4-21.1
				l10.8,51.7c0,0.2,0.1,0.3,0.1,0.5c0.2,0.6,0.6,1.2,1.1,1.7c0.4,0.4,0.8,0.6,1.3,0.9c1.1,0.5,2.4,0.5,3.5,0
				c0.3-0.1,0.6-0.3,0.9-0.5c0.4-0.3,0.8-0.7,1-1.1c0.1-0.1,0.2-0.3,0.2-0.4l0.2-0.5l12.4-36.4L413,325c0.1,0.2,0.1,0.3,0.2,0.5
				c0.2,0.4,0.6,0.9,1,1.2c0.3,0.2,0.5,0.4,0.8,0.6c1.2,0.6,2.7,0.6,4,0c0.5-0.2,0.9-0.6,1.2-0.9c0.1-0.1,0.2-0.3,0.3-0.4l0.3-0.4
				l8-14.9l26.9,0.3c-0.7,1.4-1.4,2.8-2.2,4.1c-10,18.9-35.9,37.7-57.4,50.3c-21.5-12.6-47.4-31.4-57.4-50.3
				c-0.9-1.6-1.7-3.1-2.5-4.7L359.1,310.3L359.1,310.3z M332.3,301.7c-7.6-20.4-5.5-39.2,6.3-49.6c14.4-12.6,43.1-12.6,57.4,12.6
				c14.3-25.1,43.1-25.1,57.4-12.6c11.9,10.4,13.9,29.5,6.1,50.1l-33.2-0.4c-0.4,0-0.5,0-0.9,0.1c-0.8,0.2-1.5,0.5-2.1,1.1
				c-0.3,0.3-0.4,0.4-0.6,0.7l-0.2,0.4l-4.9,9.1l-10-24.8c-0.1-0.2-0.1-0.3-0.2-0.4c-0.2-0.4-0.6-0.8-0.9-1.2
				c-0.4-0.3-0.8-0.6-1.3-0.8c-1.1-0.4-2.3-0.4-3.4,0.1c-0.3,0.1-0.6,0.3-0.8,0.5c-0.4,0.3-0.7,0.7-1,1.1c-0.1,0.1-0.2,0.3-0.2,0.4
				l-0.2,0.5l-11,32.5l-10.3-49.2c-0.1-0.4-0.1-0.6-0.3-1c-0.4-0.9-1.2-1.7-2.2-2.1c-0.4-0.2-0.5-0.2-1-0.3c-0.2,0-0.3,0-0.5-0.1
				c-0.5,0-0.6,0-1,0.1c-0.8,0.2-1.6,0.6-2.2,1.2c-0.3,0.3-0.4,0.4-0.6,0.8L370,271l-13.7,30.7H332.3L332.3,301.7z"/>
		</g>
	</g>
	<g class="st14">
		<g>
			<path class="st13" d="M359.1,310.3c0.4,0,0.6,0,1-0.1c0.8-0.2,1.5-0.6,2.1-1.2c0.3-0.3,0.4-0.4,0.6-0.8l0.2-0.4l9.4-21.1
				l10.8,51.7c0,0.2,0.1,0.3,0.1,0.5c0.2,0.6,0.6,1.2,1.1,1.7c0.4,0.4,0.8,0.6,1.3,0.9c1.1,0.5,2.4,0.5,3.5,0
				c0.3-0.1,0.6-0.3,0.9-0.5c0.4-0.3,0.8-0.7,1-1.1c0.1-0.1,0.2-0.3,0.2-0.4l0.2-0.5l12.4-36.4L413,325c0.1,0.2,0.1,0.3,0.2,0.5
				c0.2,0.4,0.6,0.9,1,1.2c0.3,0.2,0.5,0.4,0.8,0.6c1.2,0.6,2.7,0.6,4,0c0.5-0.2,0.9-0.6,1.2-0.9c0.1-0.1,0.2-0.3,0.3-0.4l0.3-0.4
				l8-14.9l26.9,0.3c-0.7,1.4-1.4,2.8-2.2,4.1c-10,18.9-35.9,37.7-57.4,50.3c-21.5-12.6-47.4-31.4-57.4-50.3
				c-0.9-1.6-1.7-3.1-2.5-4.7L359.1,310.3L359.1,310.3z M332.3,301.7c-7.6-20.4-5.5-39.2,6.3-49.6c14.4-12.6,43.1-12.6,57.4,12.6
				c14.3-25.1,43.1-25.1,57.4-12.6c11.9,10.4,13.9,29.5,6.1,50.1l-33.2-0.4c-0.4,0-0.5,0-0.9,0.1c-0.8,0.2-1.5,0.5-2.1,1.1
				c-0.3,0.3-0.4,0.4-0.6,0.7l-0.2,0.4l-4.9,9.1l-10-24.8c-0.1-0.2-0.1-0.3-0.2-0.4c-0.2-0.4-0.6-0.8-0.9-1.2
				c-0.4-0.3-0.8-0.6-1.3-0.8c-1.1-0.4-2.3-0.4-3.4,0.1c-0.3,0.1-0.6,0.3-0.8,0.5c-0.4,0.3-0.7,0.7-1,1.1c-0.1,0.1-0.2,0.3-0.2,0.4
				l-0.2,0.5l-11,32.5l-10.3-49.2c-0.1-0.4-0.1-0.6-0.3-1c-0.4-0.9-1.2-1.7-2.2-2.1c-0.4-0.2-0.5-0.2-1-0.3c-0.2,0-0.3,0-0.5-0.1
				c-0.5,0-0.6,0-1,0.1c-0.8,0.2-1.6,0.6-2.2,1.2c-0.3,0.3-0.4,0.4-0.6,0.8L370,271l-13.7,30.7H332.3L332.3,301.7z"/>
		</g>
	</g>
</g>
</svg>
