<?xml version="1.0" encoding="UTF-8" standalone="no"?>
<!-- Generator: Adobe Illustrator 19.2.1, SVG Export Plug-In . SVG Version: 6.00 Build 0)  -->

<svg
   xmlns:dc="http://purl.org/dc/elements/1.1/"
   xmlns:cc="http://creativecommons.org/ns#"
   xmlns:rdf="http://www.w3.org/1999/02/22-rdf-syntax-ns#"
   xmlns:svg="http://www.w3.org/2000/svg"
   xmlns="http://www.w3.org/2000/svg"
   xmlns:xlink="http://www.w3.org/1999/xlink"
   xmlns:sodipodi="http://sodipodi.sourceforge.net/DTD/sodipodi-0.dtd"
   xmlns:inkscape="http://www.inkscape.org/namespaces/inkscape"
   version="1.1"
   id="Capa_1"
   x="0px"
   y="0px"
   viewBox="0 0 792 123.8"
   xml:space="preserve"
   sodipodi:docname="bg-lockscreen_salud.svg"
   width="792"
   height="123.8"
   inkscape:version="0.92.1 r15371"><metadata
     id="metadata87"><rdf:RDF><cc:Work
         rdf:about=""><dc:format>image/svg+xml</dc:format><dc:type
           rdf:resource="http://purl.org/dc/dcmitype/StillImage" /><dc:title></dc:title></cc:Work></rdf:RDF></metadata><defs
     id="defs85" /><sodipodi:namedview
     pagecolor="#ffffff"
     bordercolor="#666666"
     borderopacity="1"
     objecttolerance="10"
     gridtolerance="10"
     guidetolerance="10"
     inkscape:pageopacity="0"
     inkscape:pageshadow="2"
     inkscape:window-width="640"
     inkscape:window-height="480"
     id="namedview83"
     showgrid="false"
     inkscape:zoom="0.38562092"
     inkscape:cx="396"
     inkscape:cy="61.9"
     inkscape:window-x="0"
     inkscape:window-y="0"
     inkscape:window-maximized="0"
     inkscape:current-layer="Capa_1" /><style
     type="text/css"
     id="style2">
	.st0{fill:#19EACB;}
	.st1{fill:#00D1B2;}
	.st2{fill:#09DABB;}
	.st3{fill:#0EDFC0;}
	.st4{fill:#00C5A6;}
	.st5{fill:#AE2427;}
	.st6{fill:#F39722;}
	.st7{fill:#056634;}
	.st8{fill:#006097;}
	.st9{fill:#E4252A;}
	.st10{fill:#FDCA09;}
	.st11{fill:#05A250;}
	.st12{fill:#47A7DC;}
	.st13{fill:#FFFFFF;}
	.st14{opacity:0.5;}
</style><g
     id="g6"
     transform="translate(0,-244.10001)"><image
       sodipodi:absref="C:\xampp\htdocs\ssa\sial\src\assets\5082AF76.jpg"
       xlink:href="5082AF76.jpg"
       id="image4"
       transform="matrix(0.992,0,0,0.992,17.1161,269.2469)"
       height="62"
       width="71"
       style="overflow:visible;enable-background:new" /></g><rect
     y="0"
     class="st0"
     width="792"
     height="30.9"
     id="rect8"
     x="0"
     style="fill:#19eacb" /><rect
     y="92.799988"
     class="st1"
     width="792"
     height="30.9"
     id="rect10"
     x="0"
     style="fill:#00d1b2" /><rect
     y="61.899994"
     class="st2"
     width="792"
     height="30.9"
     id="rect12"
     x="0"
     style="fill:#09dabb" /><rect
     y="31"
     class="st3"
     width="792"
     height="30.9"
     id="rect14"
     x="0"
     style="fill:#0edfc0" /><g
     id="g32"
     transform="translate(0,-244.10001)"><path
       class="st4"
       d="M 74.3,343.1 99,367.9 H 49.5 Z"
       id="path16"
       inkscape:connector-curvature="0"
       style="fill:#00c5a6" /><path
       class="st4"
       d="m 24.8,343.1 24.8,24.8 H 0 Z"
       id="path18"
       inkscape:connector-curvature="0"
       style="fill:#00c5a6" /><path
       class="st4"
       d="M 123.7,343.1 99,367.9 h 49.5 z"
       id="path20"
       inkscape:connector-curvature="0"
       style="fill:#00c5a6" /><path
       class="st4"
       d="m 173.3,343.1 -24.8,24.8 H 198 Z"
       id="path22"
       inkscape:connector-curvature="0"
       style="fill:#00c5a6" /><path
       class="st4"
       d="M 321.8,343.1 297,367.9 h 49.5 z"
       id="path24"
       inkscape:connector-curvature="0"
       style="fill:#00c5a6" /><path
       class="st4"
       d="m 371.3,343.1 -24.8,24.8 H 396 Z"
       id="path26"
       inkscape:connector-curvature="0"
       style="fill:#00c5a6" /><path
       class="st4"
       d="m 272.3,343.1 24.8,24.8 h -49.5 z"
       id="path28"
       inkscape:connector-curvature="0"
       style="fill:#00c5a6" /><path
       class="st4"
       d="m 222.7,343.1 24.8,24.8 H 198 Z"
       id="path30"
       inkscape:connector-curvature="0"
       style="fill:#00c5a6" /></g><g
     id="g50"
     transform="translate(0,-244.10001)"><path
       class="st4"
       d="M 470.2,343.1 495,367.9 H 445.5 Z"
       id="path34"
       inkscape:connector-curvature="0"
       style="fill:#00c5a6" /><path
       class="st4"
       d="m 420.7,343.1 24.8,24.8 H 396 Z"
       id="path36"
       inkscape:connector-curvature="0"
       style="fill:#00c5a6" /><path
       class="st4"
       d="M 519.8,343.1 495,367.9 h 49.5 z"
       id="path38"
       inkscape:connector-curvature="0"
       style="fill:#00c5a6" /><path
       class="st4"
       d="m 569.3,343.1 -24.8,24.8 H 594 Z"
       id="path40"
       inkscape:connector-curvature="0"
       style="fill:#00c5a6" /><path
       class="st4"
       d="M 717.8,343.1 693,367.9 h 49.5 z"
       id="path42"
       inkscape:connector-curvature="0"
       style="fill:#00c5a6" /><path
       class="st4"
       d="m 767.3,343.1 -24.8,24.8 H 792 Z"
       id="path44"
       inkscape:connector-curvature="0"
       style="fill:#00c5a6" /><path
       class="st4"
       d="m 668.3,343.1 24.8,24.8 h -49.5 z"
       id="path46"
       inkscape:connector-curvature="0"
       style="fill:#00c5a6" /><path
       class="st4"
       d="m 618.8,343.1 24.8,24.8 H 594 Z"
       id="path48"
       inkscape:connector-curvature="0"
       style="fill:#00c5a6" /></g><polygon
     class="st5"
     points="15.4,300.4 52.3,300.4 52.3,263.5 15.4,263.5 "
     id="polygon52"
     style="fill:#ae2427"
     transform="translate(0,-244.10001)" /><polygon
     class="st6"
     points="52.3,300.4 89.2,300.4 89.2,263.5 52.3,263.5 "
     id="polygon54"
     style="fill:#f39722"
     transform="translate(0,-244.10001)" /><polygon
     class="st7"
     points="15.4,337.3 52.3,337.3 52.3,300.4 15.4,300.4 "
     id="polygon56"
     style="fill:#056634"
     transform="translate(0,-244.10001)" /><polygon
     class="st8"
     points="52.3,337.3 89.2,337.3 89.2,300.4 52.3,300.4 "
     id="polygon58"
     style="fill:#006097"
     transform="translate(0,-244.10001)" /><path
     class="st9"
     d="m 52.3,34.199994 c 0,-8.2 -6.6,-14.8 -14.8,-14.8 h -7.3 c -8.2,0 -14.8,6.6 -14.8,14.8 v 7.3 c 0,8.2 6.6,14.8 14.8,14.8 h 7.3 c 8.2,0 14.8,-6.6 14.8,-14.8 z m -9.2,3.7 c 0,-5.1 -4.1,-9.2 -9.2,-9.2 -5.1,0 -9.2,4.1 -9.2,9.2 0,5.1 4.1,9.2 9.2,9.2 5,0 9.2,-4.1 9.2,-9.2 z"
     id="path60"
     inkscape:connector-curvature="0"
     style="fill:#e4252a" /><path
     class="st10"
     d="m 89.2,34.199994 c 0,-8.2 -6.6,-14.8 -14.8,-14.8 h -7.3 c -8.2,0 -14.8,6.6 -14.8,14.8 v 7.3 c 0,8.2 6.6,14.8 14.8,14.8 h 7.3 c 8.2,0 14.8,-6.6 14.8,-14.8 z m -9.2,3.7 c 0,-5.1 -4.1,-9.2 -9.2,-9.2 -5.1,0 -9.2,4.1 -9.2,9.2 0,5.1 4.1,9.2 9.2,9.2 5.1,0 9.2,-4.1 9.2,-9.2 z"
     id="path62"
     inkscape:connector-curvature="0"
     style="fill:#fdca09" /><path
     class="st11"
     d="m 52.3,71.099994 c 0,-8.2 -6.6,-14.8 -14.8,-14.8 h -7.3 c -8.2,0 -14.8,6.6 -14.8,14.8 v 7.3 c 0,8.2 6.6,14.8 14.8,14.8 h 7.3 c 8.2,0 14.8,-6.6 14.8,-14.8 z m -9.2,3.7 c 0,-5.1 -4.1,-9.2 -9.2,-9.2 -5.1,0 -9.2,4.1 -9.2,9.2 0,5.1 4.1,9.2 9.2,9.2 5,0 9.2,-4.1 9.2,-9.2 z"
     id="path64"
     inkscape:connector-curvature="0"
     style="fill:#05a250" /><path
     class="st12"
     d="m 89.2,71.099994 c 0,-8.2 -6.6,-14.8 -14.8,-14.8 h -7.3 c -8.2,0 -14.8,6.6 -14.8,14.8 v 7.3 c 0,8.2 6.6,14.8 14.8,14.8 h 7.3 c 8.2,0 14.8,-6.6 14.8,-14.8 z m -9.2,3.7 c 0,-5.1 -4.1,-9.2 -9.2,-9.2 -5.1,0 -9.2,4.1 -9.2,9.2 0,5.1 4.1,9.2 9.2,9.2 5.1,0 9.2,-4.1 9.2,-9.2 z"
     id="path66"
     inkscape:connector-curvature="0"
     style="fill:#47a7dc" /><g
     id="g80"
     transform="translate(0,-244.10001)"><g
       id="g72"><g
         id="g70"><path
           class="st13"
           d="m 34.9,302.4 c 0.2,0 0.3,0 0.5,-0.1 0.4,-0.1 0.7,-0.3 1,-0.6 0.1,-0.1 0.2,-0.2 0.3,-0.4 l 0.1,-0.2 4.4,-9.9 5.1,24.3 c 0,0.1 0,0.2 0.1,0.2 0.1,0.3 0.3,0.6 0.5,0.8 0.2,0.2 0.4,0.3 0.6,0.4 0.5,0.2 1.1,0.2 1.6,0 0.1,-0.1 0.3,-0.1 0.4,-0.2 0.2,-0.1 0.4,-0.3 0.5,-0.5 0,-0.1 0.1,-0.1 0.1,-0.2 l 0.1,-0.2 5.8,-17.1 4.3,10.6 c 0,0.1 0.1,0.1 0.1,0.2 0.1,0.2 0.3,0.4 0.5,0.6 0.1,0.1 0.3,0.2 0.4,0.3 0.6,0.3 1.3,0.3 1.9,0 0.2,-0.1 0.4,-0.3 0.6,-0.4 0.1,-0.1 0.1,-0.1 0.1,-0.2 l 0.1,-0.2 3.8,-7 12.6,0.2 c -0.3,0.6 -0.7,1.3 -1.1,2 -4.7,8.9 -16.9,17.7 -27,23.6 -10.1,-5.9 -22.3,-14.8 -27,-23.6 -0.4,-0.7 -0.8,-1.5 -1.2,-2.2 z m -12.5,-4 c -3.6,-9.6 -2.6,-18.4 2.9,-23.3 6.8,-5.9 20.3,-5.9 27,5.9 6.7,-11.8 20.2,-11.8 27,-5.9 5.6,4.9 6.6,13.9 2.8,23.6 l -15.6,-0.2 c -0.2,0 -0.2,0 -0.4,0 -0.4,0.1 -0.7,0.3 -1,0.5 -0.1,0.1 -0.2,0.2 -0.3,0.3 l -0.1,0.2 -2.3,4.3 -4.7,-11.6 c 0,-0.1 -0.1,-0.1 -0.1,-0.2 -0.1,-0.2 -0.3,-0.4 -0.4,-0.5 -0.2,-0.2 -0.4,-0.3 -0.6,-0.4 -0.5,-0.2 -1.1,-0.2 -1.6,0 -0.1,0.1 -0.3,0.1 -0.4,0.2 -0.2,0.1 -0.3,0.3 -0.5,0.5 0,0.1 -0.1,0.1 -0.1,0.2 l -0.1,0.2 -5.2,15.3 -4.8,-23.2 c -0.1,-0.2 -0.1,-0.3 -0.2,-0.5 -0.2,-0.4 -0.6,-0.8 -1,-1 -0.2,-0.1 -0.3,-0.1 -0.5,-0.1 -0.1,0 -0.2,0 -0.2,0 -0.2,0 -0.3,0 -0.5,0 -0.4,0.1 -0.8,0.3 -1.1,0.6 -0.2,0.2 -0.2,0.2 -0.3,0.4 l -0.1,0.2 -6.4,14.4 z"
           id="path68"
           inkscape:connector-curvature="0"
           style="fill:#ffffff" /></g></g><g
       class="st14"
       id="g78"
       style="opacity:0.5"><g
         id="g76"><path
           class="st13"
           d="m 34.9,302.4 c 0.2,0 0.3,0 0.5,-0.1 0.4,-0.1 0.7,-0.3 1,-0.6 0.1,-0.1 0.2,-0.2 0.3,-0.4 l 0.1,-0.2 4.4,-9.9 5.1,24.3 c 0,0.1 0,0.2 0.1,0.2 0.1,0.3 0.3,0.6 0.5,0.8 0.2,0.2 0.4,0.3 0.6,0.4 0.5,0.2 1.1,0.2 1.6,0 0.1,-0.1 0.3,-0.1 0.4,-0.2 0.2,-0.1 0.4,-0.3 0.5,-0.5 0,-0.1 0.1,-0.1 0.1,-0.2 l 0.1,-0.2 5.8,-17.1 4.3,10.6 c 0,0.1 0.1,0.1 0.1,0.2 0.1,0.2 0.3,0.4 0.5,0.6 0.1,0.1 0.3,0.2 0.4,0.3 0.6,0.3 1.3,0.3 1.9,0 0.2,-0.1 0.4,-0.3 0.6,-0.4 0.1,-0.1 0.1,-0.1 0.1,-0.2 l 0.1,-0.2 3.8,-7 12.6,0.2 c -0.3,0.6 -0.7,1.3 -1.1,2 -4.7,8.9 -16.9,17.7 -27,23.6 -10.1,-5.9 -22.3,-14.8 -27,-23.6 -0.4,-0.7 -0.8,-1.5 -1.2,-2.2 z m -12.5,-4 c -3.6,-9.6 -2.6,-18.4 2.9,-23.3 6.8,-5.9 20.3,-5.9 27,5.9 6.7,-11.8 20.2,-11.8 27,-5.9 5.6,4.9 6.6,13.9 2.8,23.6 l -15.6,-0.2 c -0.2,0 -0.2,0 -0.4,0 -0.4,0.1 -0.7,0.3 -1,0.5 -0.1,0.1 -0.2,0.2 -0.3,0.3 l -0.1,0.2 -2.3,4.3 -4.7,-11.6 c 0,-0.1 -0.1,-0.1 -0.1,-0.2 -0.1,-0.2 -0.3,-0.4 -0.4,-0.5 -0.2,-0.2 -0.4,-0.3 -0.6,-0.4 -0.5,-0.2 -1.1,-0.2 -1.6,0 -0.1,0.1 -0.3,0.1 -0.4,0.2 -0.2,0.1 -0.3,0.3 -0.5,0.5 0,0.1 -0.1,0.1 -0.1,0.2 l -0.1,0.2 -5.2,15.3 -4.8,-23.2 c -0.1,-0.2 -0.1,-0.3 -0.2,-0.5 -0.2,-0.4 -0.6,-0.8 -1,-1 -0.2,-0.1 -0.3,-0.1 -0.5,-0.1 -0.1,0 -0.2,0 -0.2,0 -0.2,0 -0.3,0 -0.5,0 -0.4,0.1 -0.8,0.3 -1.1,0.6 -0.2,0.2 -0.2,0.2 -0.3,0.4 l -0.1,0.2 -6.4,14.4 z"
           id="path74"
           inkscape:connector-curvature="0"
           style="fill:#ffffff" /></g></g></g></svg>