<?xml version="1.0" encoding="UTF-8" standalone="no"?>
<!-- Generator: Adobe Illustrator 19.2.1, SVG Export Plug-In . SVG Version: 6.00 Build 0)  -->

<svg
   xmlns:dc="http://purl.org/dc/elements/1.1/"
   xmlns:cc="http://creativecommons.org/ns#"
   xmlns:rdf="http://www.w3.org/1999/02/22-rdf-syntax-ns#"
   xmlns:svg="http://www.w3.org/2000/svg"
   xmlns="http://www.w3.org/2000/svg"
   xmlns:xlink="http://www.w3.org/1999/xlink"
   xmlns:sodipodi="http://sodipodi.sourceforge.net/DTD/sodipodi-0.dtd"
   xmlns:inkscape="http://www.inkscape.org/namespaces/inkscape"
   version="1.1"
   id="Capa_1"
   x="0px"
   y="0px"
   viewBox="0 0 792 247.5"
   xml:space="preserve"
   sodipodi:docname="bg-login_A-012.svg"
   width="792"
   height="247.5"
   inkscape:version="0.92.1 r15371"><metadata
     id="metadata71"><rdf:RDF><cc:Work
         rdf:about=""><dc:format>image/svg+xml</dc:format><dc:type
           rdf:resource="http://purl.org/dc/dcmitype/StillImage" /><dc:title></dc:title></cc:Work></rdf:RDF></metadata><defs
     id="defs69" /><sodipodi:namedview
     pagecolor="#ffffff"
     bordercolor="#666666"
     borderopacity="1"
     objecttolerance="10"
     gridtolerance="10"
     guidetolerance="10"
     inkscape:pageopacity="0"
     inkscape:pageshadow="2"
     inkscape:window-width="1920"
     inkscape:window-height="1027"
     id="namedview67"
     showgrid="false"
     inkscape:zoom="0.38562092"
     inkscape:cx="396"
     inkscape:cy="123.8"
     inkscape:window-x="-8"
     inkscape:window-y="-8"
     inkscape:window-maximized="1"
     inkscape:current-layer="Capa_1" /><style
     type="text/css"
     id="style2">
	.st0{fill:#19EACB;}
	.st1{fill:#00D1B2;}
	.st2{fill:#09DABB;}
	.st3{fill:#0EDFC0;}
	.st4{fill:#00C5A6;}
	.st5{fill:#AE2427;}
	.st6{fill:#F39722;}
	.st7{fill:#056634;}
	.st8{fill:#006097;}
	.st9{fill:#E4252A;}
	.st10{fill:#FDCA09;}
	.st11{fill:#05A250;}
	.st12{fill:#47A7DC;}
	.st13{fill:#FFFFFF;}
	.st14{opacity:0.5;}
</style><g
     id="g6"
     transform="translate(0,-182.3)"><image
       sodipodi:absref="C:\xampp\htdocs\ssa\sial\src\assets\ABE0C3CC.jpg"
       xlink:href="ABE0C3CC.jpg"
       id="image4"
       transform="translate(325,241)"
       height="127"
       width="142"
       style="overflow:visible;enable-background:new" /></g><rect
     y="0"
     class="st0"
     width="792"
     height="61.900002"
     id="rect8"
     x="0"
     style="fill:#19eacb" /><rect
     y="185.59999"
     class="st1"
     width="792"
     height="61.900002"
     id="rect10"
     x="0"
     style="fill:#00d1b2" /><rect
     y="123.7"
     class="st2"
     width="792"
     height="61.900002"
     id="rect12"
     x="0"
     style="fill:#09dabb" /><rect
     y="61.800003"
     class="st3"
     width="792"
     height="61.900002"
     id="rect14"
     x="0"
     style="fill:#0edfc0" /><g
     id="g32"
     transform="translate(0,-182.3)"><path
       class="st4"
       d="M 148.5,380.3 198,429.8 H 99 Z"
       id="path16"
       inkscape:connector-curvature="0"
       style="fill:#00c5a6" /><path
       class="st4"
       d="M 49.5,380.3 99,429.8 H 0 Z"
       id="path18"
       inkscape:connector-curvature="0"
       style="fill:#00c5a6" /><path
       class="st4"
       d="M 247.5,380.3 198,429.8 h 99 z"
       id="path20"
       inkscape:connector-curvature="0"
       style="fill:#00c5a6" /><path
       class="st4"
       d="M 346.5,380.3 297,429.8 h 99 z"
       id="path22"
       inkscape:connector-curvature="0"
       style="fill:#00c5a6" /><path
       class="st4"
       d="M 643.5,380.3 594,429.8 h 99 z"
       id="path24"
       inkscape:connector-curvature="0"
       style="fill:#00c5a6" /><path
       class="st4"
       d="M 742.5,380.3 693,429.8 h 99 z"
       id="path26"
       inkscape:connector-curvature="0"
       style="fill:#00c5a6" /><path
       class="st4"
       d="M 544.5,380.3 594,429.8 H 495 Z"
       id="path28"
       inkscape:connector-curvature="0"
       style="fill:#00c5a6" /><path
       class="st4"
       d="M 445.5,380.3 495,429.8 H 396 Z"
       id="path30"
       inkscape:connector-curvature="0"
       style="fill:#00c5a6" /></g><path
     class="st4"
     d="m 475.2,84.099997 c 0,-21.9 -17.7,-39.6 -39.6,-39.6 h -79.2 c -21.9,0 -39.6,17.7 -39.6,39.6 V 163.3 c 0,21.9 17.7,39.6 39.6,39.6 h 79.2 c 21.9,0 39.6,-17.7 39.6,-39.6 z"
     id="path34"
     inkscape:connector-curvature="0"
     style="fill:#00c5a6" /><polygon
     class="st5"
     points="317.5,306 396,306 396,227.5 317.5,227.5 "
     id="polygon36"
     style="fill:#ae2427"
     transform="translate(0,-182.3)" /><polygon
     class="st6"
     points="396,306 474.5,306 474.5,227.5 396,227.5 "
     id="polygon38"
     style="fill:#f39722"
     transform="translate(0,-182.3)" /><polygon
     class="st7"
     points="317.5,384.5 396,384.5 396,306 317.5,306 "
     id="polygon40"
     style="fill:#056634"
     transform="translate(0,-182.3)" /><polygon
     class="st8"
     points="396,384.5 474.5,384.5 474.5,306 396,306 "
     id="polygon42"
     style="fill:#006097"
     transform="translate(0,-182.3)" /><path
     class="st9"
     d="m 396,76.599997 c 0,-17.4 -14.1,-31.4 -31.4,-31.4 H 349 c -17.4,0 -31.4,14.1 -31.4,31.4 v 15.6 C 317.6,109.6 331.7,123.6 349,123.6 h 15.6 c 17.4,0 31.4,-14.1 31.4,-31.400003 z m -19.6,7.8 c 0,-10.8 -8.8,-19.6 -19.6,-19.6 -10.8,0 -19.6,8.8 -19.6,19.6 0,10.8 8.8,19.600003 19.6,19.600003 10.8,0 19.6,-8.700003 19.6,-19.600003 z"
     id="path44"
     inkscape:connector-curvature="0"
     style="fill:#e4252a" /><path
     class="st10"
     d="m 474.5,76.599997 c 0,-17.4 -14.1,-31.4 -31.4,-31.4 h -15.6 c -17.4,0 -31.4,14.1 -31.4,31.4 v 15.6 C 396.1,109.6 410.2,123.6 427.5,123.6 h 15.6 c 17.4,0 31.4,-14.1 31.4,-31.400003 z m -19.6,7.8 c 0,-10.8 -8.8,-19.6 -19.6,-19.6 -10.8,0 -19.6,8.8 -19.6,19.6 0,10.8 8.8,19.600003 19.6,19.600003 10.8,0 19.6,-8.700003 19.6,-19.600003 z"
     id="path46"
     inkscape:connector-curvature="0"
     style="fill:#fdca09" /><path
     class="st11"
     d="m 396,155.1 c 0,-17.4 -14.1,-31.4 -31.4,-31.4 H 349 c -17.4,0 -31.4,14.1 -31.4,31.4 v 15.6 c 0,17.4 14.1,31.4 31.4,31.4 h 15.6 C 382,202.1 396,188 396,170.7 Z m -19.6,7.8 c 0,-10.8 -8.8,-19.6 -19.6,-19.6 -10.8,0 -19.6,8.8 -19.6,19.6 0,10.8 8.8,19.6 19.6,19.6 10.8,0 19.6,-8.7 19.6,-19.6 z"
     id="path48"
     inkscape:connector-curvature="0"
     style="fill:#05a250" /><path
     class="st12"
     d="m 474.5,155.1 c 0,-17.4 -14.1,-31.4 -31.4,-31.4 h -15.6 c -17.4,0 -31.4,14.1 -31.4,31.4 v 15.6 c 0,17.4 14.1,31.4 31.4,31.4 h 15.6 c 17.4,0 31.4,-14.1 31.4,-31.4 z m -19.6,7.8 c 0,-10.8 -8.8,-19.6 -19.6,-19.6 -10.8,0 -19.6,8.8 -19.6,19.6 0,10.8 8.8,19.6 19.6,19.6 10.8,0 19.6,-8.7 19.6,-19.6 z"
     id="path50"
     inkscape:connector-curvature="0"
     style="fill:#47a7dc" /><g
     id="g64"
     transform="translate(0,-182.3)"><g
       id="g56"><g
         id="g54"><path
           class="st13"
           d="m 359.1,310.3 c 0.4,0 0.6,0 1,-0.1 0.8,-0.2 1.5,-0.6 2.1,-1.2 0.3,-0.3 0.4,-0.4 0.6,-0.8 l 0.2,-0.4 9.4,-21.1 10.8,51.7 c 0,0.2 0.1,0.3 0.1,0.5 0.2,0.6 0.6,1.2 1.1,1.7 0.4,0.4 0.8,0.6 1.3,0.9 1.1,0.5 2.4,0.5 3.5,0 0.3,-0.1 0.6,-0.3 0.9,-0.5 0.4,-0.3 0.8,-0.7 1,-1.1 0.1,-0.1 0.2,-0.3 0.2,-0.4 l 0.2,-0.5 12.4,-36.4 9.1,22.4 c 0.1,0.2 0.1,0.3 0.2,0.5 0.2,0.4 0.6,0.9 1,1.2 0.3,0.2 0.5,0.4 0.8,0.6 1.2,0.6 2.7,0.6 4,0 0.5,-0.2 0.9,-0.6 1.2,-0.9 0.1,-0.1 0.2,-0.3 0.3,-0.4 l 0.3,-0.4 8,-14.9 26.9,0.3 c -0.7,1.4 -1.4,2.8 -2.2,4.1 -10,18.9 -35.9,37.7 -57.4,50.3 -21.5,-12.6 -47.4,-31.4 -57.4,-50.3 -0.9,-1.6 -1.7,-3.1 -2.5,-4.7 z m -26.8,-8.6 c -7.6,-20.4 -5.5,-39.2 6.3,-49.6 14.4,-12.6 43.1,-12.6 57.4,12.6 14.3,-25.1 43.1,-25.1 57.4,-12.6 11.9,10.4 13.9,29.5 6.1,50.1 l -33.2,-0.4 c -0.4,0 -0.5,0 -0.9,0.1 -0.8,0.2 -1.5,0.5 -2.1,1.1 -0.3,0.3 -0.4,0.4 -0.6,0.7 l -0.2,0.4 -4.9,9.1 -10,-24.8 c -0.1,-0.2 -0.1,-0.3 -0.2,-0.4 -0.2,-0.4 -0.6,-0.8 -0.9,-1.2 -0.4,-0.3 -0.8,-0.6 -1.3,-0.8 -1.1,-0.4 -2.3,-0.4 -3.4,0.1 -0.3,0.1 -0.6,0.3 -0.8,0.5 -0.4,0.3 -0.7,0.7 -1,1.1 -0.1,0.1 -0.2,0.3 -0.2,0.4 l -0.2,0.5 -11,32.5 -10.3,-49.2 c -0.1,-0.4 -0.1,-0.6 -0.3,-1 -0.4,-0.9 -1.2,-1.7 -2.2,-2.1 -0.4,-0.2 -0.5,-0.2 -1,-0.3 -0.2,0 -0.3,0 -0.5,-0.1 -0.5,0 -0.6,0 -1,0.1 -0.8,0.2 -1.6,0.6 -2.2,1.2 -0.3,0.3 -0.4,0.4 -0.6,0.8 l -0.5,0.5 -13.7,30.7 z"
           id="path52"
           inkscape:connector-curvature="0"
           style="fill:#ffffff" /></g></g><g
       class="st14"
       id="g62"
       style="opacity:0.5"><g
         id="g60"><path
           class="st13"
           d="m 359.1,310.3 c 0.4,0 0.6,0 1,-0.1 0.8,-0.2 1.5,-0.6 2.1,-1.2 0.3,-0.3 0.4,-0.4 0.6,-0.8 l 0.2,-0.4 9.4,-21.1 10.8,51.7 c 0,0.2 0.1,0.3 0.1,0.5 0.2,0.6 0.6,1.2 1.1,1.7 0.4,0.4 0.8,0.6 1.3,0.9 1.1,0.5 2.4,0.5 3.5,0 0.3,-0.1 0.6,-0.3 0.9,-0.5 0.4,-0.3 0.8,-0.7 1,-1.1 0.1,-0.1 0.2,-0.3 0.2,-0.4 l 0.2,-0.5 12.4,-36.4 9.1,22.4 c 0.1,0.2 0.1,0.3 0.2,0.5 0.2,0.4 0.6,0.9 1,1.2 0.3,0.2 0.5,0.4 0.8,0.6 1.2,0.6 2.7,0.6 4,0 0.5,-0.2 0.9,-0.6 1.2,-0.9 0.1,-0.1 0.2,-0.3 0.3,-0.4 l 0.3,-0.4 8,-14.9 26.9,0.3 c -0.7,1.4 -1.4,2.8 -2.2,4.1 -10,18.9 -35.9,37.7 -57.4,50.3 -21.5,-12.6 -47.4,-31.4 -57.4,-50.3 -0.9,-1.6 -1.7,-3.1 -2.5,-4.7 z m -26.8,-8.6 c -7.6,-20.4 -5.5,-39.2 6.3,-49.6 14.4,-12.6 43.1,-12.6 57.4,12.6 14.3,-25.1 43.1,-25.1 57.4,-12.6 11.9,10.4 13.9,29.5 6.1,50.1 l -33.2,-0.4 c -0.4,0 -0.5,0 -0.9,0.1 -0.8,0.2 -1.5,0.5 -2.1,1.1 -0.3,0.3 -0.4,0.4 -0.6,0.7 l -0.2,0.4 -4.9,9.1 -10,-24.8 c -0.1,-0.2 -0.1,-0.3 -0.2,-0.4 -0.2,-0.4 -0.6,-0.8 -0.9,-1.2 -0.4,-0.3 -0.8,-0.6 -1.3,-0.8 -1.1,-0.4 -2.3,-0.4 -3.4,0.1 -0.3,0.1 -0.6,0.3 -0.8,0.5 -0.4,0.3 -0.7,0.7 -1,1.1 -0.1,0.1 -0.2,0.3 -0.2,0.4 l -0.2,0.5 -11,32.5 -10.3,-49.2 c -0.1,-0.4 -0.1,-0.6 -0.3,-1 -0.4,-0.9 -1.2,-1.7 -2.2,-2.1 -0.4,-0.2 -0.5,-0.2 -1,-0.3 -0.2,0 -0.3,0 -0.5,-0.1 -0.5,0 -0.6,0 -1,0.1 -0.8,0.2 -1.6,0.6 -2.2,1.2 -0.3,0.3 -0.4,0.4 -0.6,0.8 l -0.5,0.5 -13.7,30.7 z"
           id="path58"
           inkscape:connector-curvature="0"
           style="fill:#ffffff" /></g></g></g></svg>