<?xml version="1.0" encoding="UTF-8" standalone="no"?>
<svg
   xmlns:osb="http://www.openswatchbook.org/uri/2009/osb"
   xmlns:dc="http://purl.org/dc/elements/1.1/"
   xmlns:cc="http://creativecommons.org/ns#"
   xmlns:rdf="http://www.w3.org/1999/02/22-rdf-syntax-ns#"
   xmlns:svg="http://www.w3.org/2000/svg"
   xmlns="http://www.w3.org/2000/svg"
   xmlns:sodipodi="http://sodipodi.sourceforge.net/DTD/sodipodi-0.dtd"
   xmlns:inkscape="http://www.inkscape.org/namespaces/inkscape"
   version="1.1"
   x="0px"
   y="0px"
   width="48px"
   height="48px"
   viewBox="0 0 48 48"
   enable-background="new 0 0 48 48"
   xml:space="preserve"
   id="svg2"
   inkscape:version="0.91 r13725"
   sodipodi:docname="catalogo-servidores.svg"><metadata
     id="metadata22"><rdf:RDF><cc:Work
         rdf:about=""><dc:format>image/svg+xml</dc:format><dc:type
           rdf:resource="http://purl.org/dc/dcmitype/StillImage" /></cc:Work></rdf:RDF></metadata><defs
     id="defs20"><linearGradient
       id="linearGradient4197"
       osb:paint="solid"><stop
         style="stop-color:#d9b679;stop-opacity:1;"
         offset="0"
         id="stop4199" /></linearGradient><linearGradient
       id="linearGradient4203"
       osb:paint="solid"><stop
         style="stop-color:#00d000;stop-opacity:1;"
         offset="0"
         id="stop4205" /></linearGradient></defs><sodipodi:namedview
     pagecolor="#ffffff"
     bordercolor="#666666"
     borderopacity="1"
     objecttolerance="10"
     gridtolerance="10"
     guidetolerance="10"
     inkscape:pageopacity="0"
     inkscape:pageshadow="2"
     inkscape:window-width="1855"
     inkscape:window-height="1056"
     id="namedview18"
     showgrid="false"
     inkscape:zoom="9.8333333"
     inkscape:cx="15.707611"
     inkscape:cy="27.647766"
     inkscape:window-x="65"
     inkscape:window-y="24"
     inkscape:window-maximized="1"
     inkscape:current-layer="g3" /><g
     transform="translate(3.898305,4)"
     id="g3"><path
       style="fill:#dbe4e5;fill-opacity:1;opacity:0.679"
       d="m 6.419513,37.361353 0,-35.0000004 28.5,0 c 0.275,0 0.5,0.224 0.5,0.4999999 l 0,34.0000005 c 0,0.276 -0.225,0.5 -0.5,0.5 l -28.5,0 z"
       id="path5"
       inkscape:connector-curvature="0" /><g
       id="g7"><path
         inkscape:connector-curvature="0"
         style="fill:#4788c7"
         d="M 35,3 35,37 7,37 7,3 35,3 M 35,2 6,2 6,38 35,38 c 0.552,0 1,-0.448 1,-1 L 36,3 C 36,2.448 35.552,2 35,2 l 0,0 z"
         id="path9" /></g></g><g
     transform="translate(3.898305,4)"
     id="g11"><path
       inkscape:connector-curvature="0"
       style="fill:#4788c7"
       d="M 9,38 5,38 C 4.448,38 4,37.552 4,37 L 4,3 C 4,2.448 4.448,2 5,2 l 4,0 0,36 z"
       id="path13" /></g><g
     id="g4177"
     transform="matrix(1.2372881,0,0,1,-55.429188,-0.491525)"><rect
       id="rect15"
       height="10"
       width="15"
       style="fill:#ffffff"
       y="9.8644066"
       x="58.237289" /><path
       inkscape:connector-curvature="0"
       id="path17"
       d="m 70.737288,13.864407 -10,0 c -0.275,0 -0.5,-0.225 -0.5,-0.5 l 0,0 c 0,-0.275 0.225,-0.5 0.5,-0.5 l 10,0 c 0.275,0 0.5,0.225 0.5,0.5 l 0,0 c 0,0.275 -0.225,0.5 -0.5,0.5 z"
       style="fill:#4788c7" /><path
       inkscape:connector-curvature="0"
       id="path19"
       d="m 70.737288,16.864407 -10,0 c -0.275,0 -0.5,-0.225 -0.5,-0.5 l 0,0 c 0,-0.275 0.225,-0.5 0.5,-0.5 l 10,0 c 0.275,0 0.5,0.225 0.5,0.5 l 0,0 c 0,0.275 -0.225,0.5 -0.5,0.5 z"
       style="fill:#4788c7" /></g><path
     d="m 26.045198,20.664408 -9.536723,5.669581 0,11.49652 19.073445,0 0,-11.49652 -9.536722,-5.669581 z"
     id="path4"
     inkscape:connector-curvature="0"
     style="fill:#bbc4fb;fill-opacity:1" /><g
     id="g6"
     transform="matrix(0.49661014,0,0,0.49661014,14.216949,17.583052)"><path
       d="m 40,27 c 0,0.553 -0.447,1 -1,1 L 9,28 C 8.448,28 8,27.553 8,27 l 0,-6 c 0,-0.553 0.448,-1 1,-1 l 30,0 c 0.553,0 1,0.447 1,1 l 0,6 z"
       id="path8"
       inkscape:connector-curvature="0"
       style="fill:#455a64" /><path
       d="m 40,37 c 0,0.553 -0.447,1 -1,1 L 9,38 C 8.448,38 8,37.553 8,37 l 0,-6 c 0,-0.553 0.448,-1 1,-1 l 30,0 c 0.553,0 1,0.447 1,1 l 0,6 z"
       id="path10"
       inkscape:connector-curvature="0"
       style="fill:#455a64" /></g><g
     id="g12"
     transform="matrix(0.49661014,0,0,0.49661014,14.216949,17.583052)"><circle
       cx="35"
       cy="24"
       r="2"
       id="circle14"
       style="fill:#64dd17" /><circle
       cx="35"
       cy="34"
       r="2"
       id="circle16"
       style="fill:#64dd17" /></g></svg>