<?xml version="1.0" encoding="UTF-8" standalone="no"?>
<svg
   xmlns:dc="http://purl.org/dc/elements/1.1/"
   xmlns:cc="http://creativecommons.org/ns#"
   xmlns:rdf="http://www.w3.org/1999/02/22-rdf-syntax-ns#"
   xmlns:svg="http://www.w3.org/2000/svg"
   xmlns="http://www.w3.org/2000/svg"
   xmlns:sodipodi="http://sodipodi.sourceforge.net/DTD/sodipodi-0.dtd"
   xmlns:inkscape="http://www.inkscape.org/namespaces/inkscape"
   version="1.1"
   x="0px"
   y="0px"
   width="48px"
   height="48px"
   viewBox="0 0 48 48"
   enable-background="new 0 0 48 48"
   xml:space="preserve"
   id="svg2"
   inkscape:version="0.91 r13725"
   sodipodi:docname="icono-unidades-medicas.svg"><metadata
     id="metadata38"><rdf:RDF><cc:Work
         rdf:about=""><dc:format>image/svg+xml</dc:format><dc:type
           rdf:resource="http://purl.org/dc/dcmitype/StillImage" /></cc:Work></rdf:RDF></metadata><defs
     id="defs36" /><sodipodi:namedview
     pagecolor="#ffffff"
     bordercolor="#666666"
     borderopacity="1"
     objecttolerance="10"
     gridtolerance="10"
     guidetolerance="10"
     inkscape:pageopacity="0"
     inkscape:pageshadow="2"
     inkscape:window-width="1855"
     inkscape:window-height="1056"
     id="namedview34"
     showgrid="false"
     inkscape:zoom="13.906433"
     inkscape:cx="22.145974"
     inkscape:cy="29.750602"
     inkscape:window-x="1985"
     inkscape:window-y="24"
     inkscape:window-maximized="1"
     inkscape:current-layer="svg2" /><g
     id="g4"><circle
       fill="#6D4C41"
       cx="11.5"
       cy="38.5"
       r="3.5"
       id="circle6" /><circle
       fill="#6D4C41"
       cx="18.5"
       cy="38.5"
       r="3.5"
       id="circle8" /></g><path
     fill="#E8EAF6"
     d="M41,36H7V15l17-6l17,6V36z"
     id="path10"
     style="fill:#d5eaf6;fill-opacity:1" /><rect
     x="11.406779"
     y="22.033899"
     width="14"
     height="7"
     id="rect12"
     style="fill:#017b9b;fill-opacity:1" /><path
     fill="#D32F2F"
     d="M43,18l-19-7L5,18v-5l19-7l19,7V18z"
     id="path14"
     style="fill:#462c00;fill-opacity:1" /><rect
     x="30"
     y="36"
     fill="#9FA8DA"
     width="8"
     height="3"
     id="rect16"
     style="fill:#aacae9;fill-opacity:1" /><g
     id="g18"
     style="fill:#d5def6;fill-opacity:1"><rect
       x="7"
       y="31"
       width="34"
       height="5"
       id="rect20"
       style="fill:#d5def6;fill-opacity:1"
       fill="#C5CAE9" /><rect
       x="30"
       y="39"
       width="8"
       height="3"
       id="rect22"
       fill="#C5CAE9"
       style="fill:#d5def6;fill-opacity:1" /></g><g
     id="g24"><circle
       fill="#A1887F"
       cx="11.5"
       cy="38.5"
       r="1.5"
       id="circle26" /><circle
       fill="#A1887F"
       cx="18.5"
       cy="38.5"
       r="1.5"
       id="circle28" /></g><rect
     x="30"
     y="22"
     fill="#D84315"
     width="8"
     height="14"
     id="rect30" /><path
     fill="#FF8A65"
     d="M35.5,28c-0.275,0-0.5,0.225-0.5,0.5v2c0,0.275,0.225,0.5,0.5,0.5s0.5-0.225,0.5-0.5v-2  C36,28.225,35.775,28,35.5,28"
     id="path32" /><path
     inkscape:connector-curvature="0"
     style="fill:#d32f2f"
     d="m 26.348583,16.132189 -2.290767,0.05401 -2.340343,-0.05401 0,-1.566137 2.303161,-0.0324 2.327949,0.0324 z"
     id="path14-3"
     sodipodi:nodetypes="ccccccc" /><path
     inkscape:connector-curvature="0"
     style="fill:#d32f2f"
     d="m 23.30559,17.484799 -0.05235,-2.214574 0.05235,-2.262498 1.517946,0 0.0314,2.226554 -0.0314,2.250518 z"
     id="path14-3-6"
     sodipodi:nodetypes="ccccccc" /></svg>