<?xml version="1.0" encoding="UTF-8" standalone="no"?>
<svg
   xmlns:dc="http://purl.org/dc/elements/1.1/"
   xmlns:cc="http://creativecommons.org/ns#"
   xmlns:rdf="http://www.w3.org/1999/02/22-rdf-syntax-ns#"
   xmlns:svg="http://www.w3.org/2000/svg"
   xmlns="http://www.w3.org/2000/svg"
   xmlns:sodipodi="http://sodipodi.sourceforge.net/DTD/sodipodi-0.dtd"
   xmlns:inkscape="http://www.inkscape.org/namespaces/inkscape"
   version="1.1"
   x="0px"
   y="0px"
   width="100%"
   height="100%"
   viewBox="0 0 48 48"
   enable-background="new 0 0 48 48"
   xml:space="preserve"
   id="svg2"
   inkscape:version="0.91 r13725"
   sodipodi:docname="hub-dashboard.svg"><metadata
     id="metadata40"><rdf:RDF><cc:Work
         rdf:about=""><dc:format>image/svg+xml</dc:format><dc:type
           rdf:resource="http://purl.org/dc/dcmitype/StillImage" /></cc:Work></rdf:RDF></metadata><defs
     id="defs38" /><sodipodi:namedview
     pagecolor="#ffffff"
     bordercolor="#666666"
     borderopacity="1"
     objecttolerance="10"
     gridtolerance="10"
     guidetolerance="10"
     inkscape:pageopacity="0"
     inkscape:pageshadow="2"
     inkscape:window-width="1855"
     inkscape:window-height="1056"
     id="namedview36"
     showgrid="false"
     inkscape:zoom="19.166426"
     inkscape:cx="24"
     inkscape:cy="24"
     inkscape:window-x="65"
     inkscape:window-y="24"
     inkscape:window-maximized="1"
     inkscape:current-layer="svg2" /><ellipse
     style="opacity:0.96700003;fill:#00d1b2;fill-opacity:1;stroke:none;stroke-width:2.70000005;stroke-miterlimit:4;stroke-dasharray:none;stroke-opacity:0.90196078"
     id="path5981"
     cx="24"
     cy="24"
     rx="23.890522"
     ry="23.974215" /><g
     id="g4174"
     transform="matrix(0.88329373,0,0,0.88329373,3.1922598,2.931387)"><circle
       style="fill:#ccf6f0;fill-opacity:1"
       id="circle4"
       r="15"
       cy="24"
       cx="24" /><g
       style="fill:#696969"
       id="g6"><path
         style="fill:#696969"
         id="path8"
         d="m 22.485,21.415 c -1.438,0.837 -1.912,2.678 -1.058,4.111 0.853,1.437 2.707,1.919 4.146,1.082 1.438,-0.836 1.911,-2.677 1.056,-4.112 -0.853,-1.434 -2.708,-1.92 -4.144,-1.081"
         inkscape:connector-curvature="0" /><polygon
         style="fill:#696969"
         id="polygon10"
         points="35.299,17.444 25.925,25.238 23.866,21.776 " /></g><g
       id="g12"><path
         id="path14"
         d="M 12.004,23 7.05,23 C 7.031,23.333 7,23.663 7,24 c 0,0.344 0.031,0.681 0.052,1.02 l 4.952,0 0,-2.02 z"
         inkscape:connector-curvature="0"
         style="fill:#ff1744" /><path
         id="path16"
         d="m 13.891,30.54 -0.949,-1.782 -4.378,2.331 c 0.283,0.614 0.603,1.207 0.954,1.78 l 4.373,-2.329 z"
         inkscape:connector-curvature="0"
         style="fill:#ff1744" /></g><g
       style="fill:#808080"
       id="g18"><path
         style="fill:#808080"
         id="path20"
         d="m 17.176,14.081 1.755,-1 -2.454,-4.309 c -0.606,0.3 -1.195,0.627 -1.758,0.995 l 2.457,4.314 z"
         inkscape:connector-curvature="0" /><path
         style="fill:#808080"
         id="path22"
         d="m 8.807,16.406 4.294,2.479 1.01,-1.749 -4.302,-2.484 c -0.371,0.56 -0.7,1.149 -1.002,1.754 z"
         inkscape:connector-curvature="0" /><path
         style="fill:#808080"
         id="path24"
         d="m 35.996,25 4.953,0 C 40.969,24.667 41,24.337 41,24 41,23.656 40.969,23.319 40.948,22.98 l -4.952,0 0,2.02 z"
         inkscape:connector-curvature="0" /><path
         style="fill:#808080"
         id="path26"
         d="m 39.56,30.835 -4.419,-2.268 -0.922,1.797 4.41,2.264 c 0.342,-0.578 0.657,-1.174 0.931,-1.793 z"
         inkscape:connector-curvature="0" /><path
         style="fill:#808080"
         id="path28"
         d="M 33.466,9.88 C 32.908,9.505 32.32,9.174 31.719,8.867 l -2.516,4.276 1.741,1.024 2.522,-4.287 z"
         inkscape:connector-curvature="0" /><path
         style="fill:#808080"
         id="path30"
         d="M 25,7.05 C 24.667,7.031 24.337,7 24,7 23.656,7 23.319,7.031 22.98,7.052 l 0,4.952 2.02,0 0,-4.954 z"
         inkscape:connector-curvature="0" /></g><path
       style="fill:#000000"
       id="path32"
       d="M 24,5 C 13.507,5 5,13.507 5,24 5,34.493 13.507,43 24,43 34.493,43 43,34.493 43,24 43,13.507 34.493,5 24,5 Z m 0,34 C 15.716,39 9,32.284 9,24 9,15.716 15.716,9 24,9 c 8.284,0 15,6.716 15,15 0,8.284 -6.716,15 -15,15 z"
       inkscape:connector-curvature="0" /><path
       id="path34"
       d="m 23.512,23.146 c -0.477,0.277 -0.634,0.894 -0.35,1.371 0.283,0.478 0.904,0.639 1.382,0.359 0.479,-0.277 0.637,-0.893 0.353,-1.372 -0.285,-0.476 -0.906,-0.637 -1.385,-0.358"
       inkscape:connector-curvature="0"
       style="fill:#4dd0e1" /></g></svg>