<?xml version="1.0" encoding="UTF-8" standalone="no"?>
<svg
   xmlns:dc="http://purl.org/dc/elements/1.1/"
   xmlns:cc="http://creativecommons.org/ns#"
   xmlns:rdf="http://www.w3.org/1999/02/22-rdf-syntax-ns#"
   xmlns:svg="http://www.w3.org/2000/svg"
   xmlns="http://www.w3.org/2000/svg"
   xmlns:sodipodi="http://sodipodi.sourceforge.net/DTD/sodipodi-0.dtd"
   xmlns:inkscape="http://www.inkscape.org/namespaces/inkscape"
   version="1.1"
   x="0px"
   y="0px"
   width="48px"
   height="48px"
   viewBox="0 0 48 48"
   enable-background="new 0 0 48 48"
   xml:space="preserve"
   id="svg2"
   inkscape:version="0.91 r13725"
   sodipodi:docname="hub-estandar.svg"><metadata
     id="metadata20"><rdf:RDF><cc:Work
         rdf:about=""><dc:format>image/svg+xml</dc:format><dc:type
           rdf:resource="http://purl.org/dc/dcmitype/StillImage" /></cc:Work></rdf:RDF></metadata><defs
     id="defs18" /><sodipodi:namedview
     pagecolor="#ffffff"
     bordercolor="#666666"
     borderopacity="1"
     objecttolerance="10"
     gridtolerance="10"
     guidetolerance="10"
     inkscape:pageopacity="0"
     inkscape:pageshadow="2"
     inkscape:window-width="1855"
     inkscape:window-height="1056"
     id="namedview16"
     showgrid="true"
     inkscape:zoom="12.414376"
     inkscape:cx="14.283978"
     inkscape:cy="25.916705"
     inkscape:window-x="1985"
     inkscape:window-y="24"
     inkscape:window-maximized="1"
     inkscape:current-layer="svg2"><inkscape:grid
       type="xygrid"
       id="grid4240" /></sodipodi:namedview><ellipse
     style="opacity:0.96700003;fill:#00d1b2;fill-opacity:1;stroke:none;stroke-width:2.70000005;stroke-miterlimit:4;stroke-dasharray:none;stroke-opacity:0.90196078"
     id="path5981"
     cx="24.128721"
     cy="23.923845"
     rx="24.021099"
     ry="23.974215" /><g
     transform="matrix(0.09822611,0,0,0.09822611,-0.00299404,-0.57667284)"
     id="g4184"><path
       inkscape:connector-curvature="0"
       id="path5"
       d="m 123,248.082 c 0,-69.086 56,-125.081 125.077,-125.081 69.08,0 125.081,55.995 125.081,125.081 0,69.074 -56.001,125.075 -125.081,125.075 C 179,373.157 123,317.156 123,248.082 Z"
       style="fill:#c5d6d4;fill-opacity:1" /><path
       inkscape:connector-curvature="0"
       id="path7"
       d="m 135,248.082 c 0,-62.458 50.627,-113.081 113.077,-113.081 62.453,0 113.081,50.623 113.081,113.081 0,62.447 -50.628,113.075 -113.081,113.075 C 185.627,361.157 135,310.529 135,248.082 Z"
       style="fill:#daf6f0;fill-opacity:1" /><path
       inkscape:connector-curvature="0"
       id="path9"
       d="m 173.524,163.715 c -2.672,1.354 -4.705,3.386 -6.059,6.058 l 158.92,158.918 c 2.672,-1.354 4.705,-3.387 6.059,-6.06 L 173.524,163.715 Z"
       style="fill:#c0bec0;fill-opacity:1" /><path
       inkscape:connector-curvature="0"
       id="path11"
       d="m 159.716,177.522 158.922,158.916 c 3.23,-2.583 6.314,-5.341 9.241,-8.257 L 167.975,168.278 c -2.916,2.928 -5.675,6.013 -8.259,9.244 z"
       style="fill:#c0bec0;fill-opacity:0.559375" /></g></svg>