<?xml version="1.0" encoding="UTF-8" standalone="no"?>
<svg
   xmlns:dc="http://purl.org/dc/elements/1.1/"
   xmlns:cc="http://creativecommons.org/ns#"
   xmlns:rdf="http://www.w3.org/1999/02/22-rdf-syntax-ns#"
   xmlns:svg="http://www.w3.org/2000/svg"
   xmlns="http://www.w3.org/2000/svg"
   xmlns:sodipodi="http://sodipodi.sourceforge.net/DTD/sodipodi-0.dtd"
   xmlns:inkscape="http://www.inkscape.org/namespaces/inkscape"
   version="1.1"
   x="0px"
   y="0px"
   width="48px"
   height="48px"
   viewBox="0 0 48 48"
   enable-background="new 0 0 48 48"
   xml:space="preserve"
   id="svg2"
   inkscape:version="0.91 r13725"
   sodipodi:docname="hub-tercerizado.svg"><metadata
     id="metadata20"><rdf:RDF><cc:Work
         rdf:about=""><dc:format>image/svg+xml</dc:format><dc:type
           rdf:resource="http://purl.org/dc/dcmitype/StillImage" /></cc:Work></rdf:RDF></metadata><defs
     id="defs18"><clipPath
       clipPathUnits="userSpaceOnUse"
       id="clipPath4173"><rect
         style="opacity:1;fill:none;fill-opacity:1;fill-rule:nonzero;stroke:#cae500;stroke-width:0.2;stroke-miterlimit:4;stroke-dasharray:none;stroke-opacity:0.3899371"
         id="rect4175"
         width="265.90912"
         height="237.66235"
         x="439.28571"
         y="149.80519" /></clipPath></defs><sodipodi:namedview
     pagecolor="#ffffff"
     bordercolor="#666666"
     borderopacity="1"
     objecttolerance="10"
     gridtolerance="10"
     guidetolerance="10"
     inkscape:pageopacity="0"
     inkscape:pageshadow="2"
     inkscape:window-width="1855"
     inkscape:window-height="1056"
     id="namedview16"
     showgrid="false"
     inkscape:zoom="19.145833"
     inkscape:cx="24"
     inkscape:cy="24"
     inkscape:window-x="1985"
     inkscape:window-y="24"
     inkscape:window-maximized="1"
     inkscape:current-layer="svg2" /><ellipse
     style="opacity:0.96700003;fill:#00d1b2;fill-opacity:1;stroke:none;stroke-width:2.70000005;stroke-miterlimit:4;stroke-dasharray:none;stroke-opacity:0.90196078"
     id="path5981"
     cx="24.246082"
     cy="23.995573"
     rx="23.890522"
     ry="23.974215" /><g
     id="g4180"
     transform="matrix(0.84986195,0,0,0.84986195,3.05963,-1.9495111)"><path
       inkscape:connector-curvature="0"
       id="path4162"
       d="m 17.138572,17.475579 0.724923,-0.942401 -2.682216,-0.01208 0.737005,0.990729 -2.283508,5.642319 2.500985,2.670134 0.76117,0.02416 2.464739,-2.682216 z"
       style="fill:#ffffff;fill-rule:evenodd;stroke:#ffffff;stroke-width:1.17666173px;stroke-linecap:butt;stroke-linejoin:miter;stroke-opacity:1" /><path
       clip-path="url(#clipPath4173)"
       style="fill:#000000;fill-opacity:0.84276727;stroke:#d3d3d3;stroke-width:1.17666173;stroke-opacity:1"
       d="m 335.28758,605.9719 c -0.2949,-0.7683 -0.3936,-3.13173 -0.2194,-5.25207 l 0.3166,-3.85516 7.4553,-0.29795 c 4.1004,-0.16388 8.0379,-0.78148 8.75,-1.37245 0.7659,-0.63561 1.2947,-3.27097 1.2947,-6.45204 l 0,-5.37756 3.4349,0 c 1.8892,0 4.5922,-0.44 6.0066,-0.97777 l 2.5717,-0.97777 -0.2566,-71.77223 -0.2566,-71.77223 -23.5,-0.5 -23.5,-0.5 -0.2629,-11 -0.2628,-11 13.1794,-8.5 c 18.6174,-12.00721 19.5441,-12.23896 8.9275,-2.23252 -5.8519,5.51557 -9.1431,9.32336 -8.6909,10.05498 0.5551,0.89816 58.3534,1.17754 243.60971,1.17754 185.2562,0 243.0546,-0.27938 243.6097,-1.17754 0.452,-0.73138 -2.841,-4.55021 -8.691,-10.07878 -5.1803,-4.89567 -8.7437,-8.57819 -7.9187,-8.18337 0.825,0.39482 7.9198,4.81777 15.7663,9.82877 l 14.2664,9.11092 -0.2664,11 -0.2663,11 -22.9529,0.26929 c -16.8318,0.19748 -23.1614,0.59751 -23.7347,1.5 -0.43,0.67689 -0.7887,33.07935 -0.7971,72.00546 l -0.015,70.77475 2.5651,0.97525 c 1.4108,0.53639 4.1108,0.97525 6,0.97525 l 3.4349,0 0,5.37756 c 0,3.18107 0.5288,5.81643 1.2946,6.45204 0.7121,0.59097 4.6496,1.20857 8.75,1.37245 l 7.4554,0.29795 0,5 0,5 -238.2806,0.25207 c -203.23341,0.21499 -238.35941,0.0466 -238.81661,-1.14484 z M 544.38479,375.68142 c -34.6746,-3.00841 -58.4729,-9.09764 -65.5,-16.75936 -7.1601,-7.80676 1.6946,-30.72695 18.8253,-48.72831 12.772,-13.42126 26.3743,-22.299 43.4247,-28.34176 4.2625,-1.51067 7.75,-3.2953 7.75,-3.96585 0,-0.67055 -3.4875,-4.78343 -7.75,-9.13973 -16.88,-17.25145 -23.9253,-41.01803 -18.3991,-62.06715 4.9652,-18.91172 20.529,-33.74882 39.6491,-37.79758 8.8262,-1.869 14.1737,-1.869 23,0 19.12,4.04876 34.6839,18.88586 39.649,37.79758 5.5263,21.04912 -1.519,44.8157 -18.399,62.06715 -4.2625,4.3563 -7.75,8.46918 -7.75,9.13973 0,0.67055 3.4875,2.45518 7.75,3.96585 28.7152,10.17689 53.9183,33.47284 62.221,57.51268 3.2137,9.30516 3.2238,16.07408 0.029,19.55739 -8.0419,8.76812 -38.8288,15.69082 -76,17.08925 l -15.5,0.58312 12.25,-12.37932 c 7.8607,-7.94368 12.25,-13.13301 12.25,-14.48278 0,-1.1569 -4.966,-14.10513 -11.0356,-28.77384 l -11.0356,-26.67037 3.5356,-4.31472 c 1.9446,-2.37309 3.5356,-4.71837 3.5356,-5.21172 0,-0.49336 -5.85,-0.89701 -13,-0.89701 -7.15,0 -13,0.40365 -13,0.89701 0,0.49335 1.591,2.83863 3.5356,5.21172 l 3.5356,4.31472 -11.0356,26.67037 c -6.0696,14.66871 -11.0356,27.61694 -11.0356,28.77384 0,1.35506 4.3531,6.46707 12.235,14.3679 l 12.235,12.26444 -10.985,-0.1681 c -6.0418,-0.0925 -12.785,-0.32428 -14.985,-0.51515 z m 15.658,-232.37035 c -21.0511,-3.76895 -41.4065,-19.39709 -51.1119,-39.24198 -7.1923,-14.70598 -9.2048,-34.31083 -5.1318,-49.991148 9.0243,-34.741797 44.0136,-58.6636674 78.7058,-53.8104574 36.9944,5.1752602 63.4881,35.0528824 63.4881,71.5971754 0,32.78808 -20.5141,60.31188 -52.1447,69.96267 -6.5355,1.99406 -26.1474,2.85483 -33.8055,1.48374 z m 12.5241,-11.02851 c 0.7761,-0.77614 1.6676,-0.71643 3.1529,0.21117 4.1156,2.5702 25.8713,-3.28999 26.9062,-7.24753 0.3292,-1.25877 1.39,-1.88153 3.205,-1.88153 5.1553,0 20.9503,-16.50017 19.475,-20.34455 -0.4261,-1.11051 -0.1147,-1.65546 0.9461,-1.65546 4.3913,0 11.3204,-26.220866 7.5455,-28.553851 -0.7828,-0.483823 -0.7828,-0.976174 0,-1.759017 3.4861,-3.48606 -3.0278,-27.687131 -7.4522,-27.687131 -1.0503,0 -1.3344,-0.673205 -0.9495,-2.25 1.022,-4.186688 -15.5182,-21.154586 -20.0111,-20.528639 -1.1717,0.163235 -2.4142,-0.524344 -3,-1.660157 -2.0986,-4.0687 -23.8965,-10.1369299 -27.0404,-7.52767 -0.9513,0.78951 -1.9009,0.80065 -3.3241,0.039 -4.3621,-2.3345199 -25.7959,3.91296 -26.8167,7.81647 -0.3342,1.277914 -1.1085,1.717245 -2.4215,1.37389 -4.3802,-1.14544 -21.5042,16.041577 -20.412,20.487116 0.3878,1.578375 0.1054,2.25 -0.9459,2.25 -4.4293,0 -11.2472,25.208478 -7.4523,27.55385 0.7829,0.483823 0.7829,0.976174 0,1.759017 -1.7205,1.720481 -1.2718,8.876597 1.0239,16.331792 2.686,8.722746 4.5628,12.35534 6.3833,12.35534 0.8607,0 1.2146,0.59499 0.8771,1.47462 -1.5025,3.91534 14.4989,20.52539 19.7732,20.52539 1.9173,0 2.8554,0.51127 2.8554,1.55623 0,4.11447 24.4319,10.61181 27.6821,7.36166 z m 13.5518,-30.63423 c -4.8027,-3.274674 -5.1327,-3.738064 -3.75,-5.265904 0.8338,-0.921386 1.5161,-2.021916 1.5161,-2.445626 0,-0.42371 -2.5875,-5.11327 -5.75,-10.421259 l -5.75,-9.650881 -0.3099,-19.297519 -0.3099,-19.297518 -2.4627,-0.936307 -2.4626,-0.936308 3.0369,-6.016173 c 1.6703,-3.308897 3.474,-6.016176 4.0082,-6.016176 0.5341,0 2.3378,2.707279 4.0081,6.016176 l 3.037,6.016173 -2.5226,0.959076 -2.5225,0.959075 0,18.053538 0,18.053539 5.7131,9.971212 c 5.0858,8.876342 6.0191,9.971212 8.5,9.971212 2.4752,0 2.7881,0.36342 2.7979,3.25 0.01,1.787496 0.2899,4.937496 0.6308,7 0.7916,4.78938 -0.425,4.79491 -7.4079,0.0337 z"
       id="path4150"
       inkscape:connector-curvature="0"
       transform="matrix(0.1015866,0,0,0.1015866,-41.682703,-11.881807)" /></g><g
     id="g4154"
     transform="matrix(0.72534761,0,0,0.72534761,6.7056479,5.8595896)"><path
       style="fill:#000000"
       inkscape:connector-curvature="0"
       id="path4"
       d="m 7.9929089,25.640456 c -4.016,4.016 -4.106,10.438 -0.2,14.344 3.9050001,3.904 10.3260001,3.814 14.3430001,-0.201 l 8.99,-8.992 -14.141,-14.142 -8.9920001,8.991 z" /><path
       style="fill:#d3d3d3"
       inkscape:connector-curvature="0"
       id="path6"
       d="m 40.319909,7.4564555 c -3.907,-3.906 -10.326,-3.816 -14.344,0.202 l -8.991,8.9910005 14.141,14.141 8.99,-8.991 c 4.018,-4.016 4.108,-10.437 0.204,-14.3430005 z" /><rect
       style="fill:#696969"
       id="rect8"
       height="1.9999808"
       width="19.998808"
       transform="matrix(-0.70710678,-0.70710678,0.70710678,-0.70710678,0,0)"
       y="0.23738489"
       x="-43.781948" /><path
       style="fill:#e0f7fa;fill-opacity:1"
       inkscape:connector-curvature="0"
       id="path10"
       d="m 18.912909,18.577456 -9.1920001,9.191 c 0,0 -5.143,5.144 0,10.285 0.4470001,0.446 0.9450001,0.812 1.4740001,1.099 -4.0450001,-3.668 1.097,-8.812 1.097,-8.812 l 9.192,-9.192 -2.571,-2.571 z" /><path
       style="fill:#eef7fa;fill-opacity:1"
       inkscape:connector-curvature="0"
       id="path12"
       d="m 31.319909,11.313456 c 0,0 4.5,-4.4990005 8.356,-0.643 -0.287,-0.528 -0.649,-1.0280005 -1.097,-1.4750005 -5.332,-4.954 -9.832,-0.454 -9.832,-0.454 l -9.834,9.8360005 2.571,2.571 9.836,-9.835 z" /><rect
       style="fill:#808080;fill-opacity:0.73913042"
       id="rect14"
       height="1.9999808"
       width="3.6359651"
       transform="matrix(-0.70710678,-0.70710678,0.70710678,-0.70710678,0,0)"
       y="0.23661886"
       x="-30.145031" /></g></svg>