<?xml version="1.0" encoding="UTF-8" standalone="no"?>
<svg
   xmlns:dc="http://purl.org/dc/elements/1.1/"
   xmlns:cc="http://creativecommons.org/ns#"
   xmlns:rdf="http://www.w3.org/1999/02/22-rdf-syntax-ns#"
   xmlns:svg="http://www.w3.org/2000/svg"
   xmlns="http://www.w3.org/2000/svg"
   xmlns:sodipodi="http://sodipodi.sourceforge.net/DTD/sodipodi-0.dtd"
   xmlns:inkscape="http://www.inkscape.org/namespaces/inkscape"
   version="1.0"
   x="0px"
   y="0px"
   viewBox="0 0 48 48"
   enable-background="new 0 0 48 48"
   xml:space="preserve"
   id="svg2"
   inkscape:version="0.91 r13725"
   sodipodi:docname="hub-panel-control.svg"><metadata
     id="metadata12"><rdf:RDF><cc:Work
         rdf:about=""><dc:format>image/svg+xml</dc:format><dc:type
           rdf:resource="http://purl.org/dc/dcmitype/StillImage" /></cc:Work></rdf:RDF></metadata><defs
     id="defs10" /><sodipodi:namedview
     pagecolor="#ffffff"
     bordercolor="#666666"
     borderopacity="1"
     objecttolerance="10"
     gridtolerance="10"
     guidetolerance="10"
     inkscape:pageopacity="0"
     inkscape:pageshadow="2"
     inkscape:window-width="1855"
     inkscape:window-height="1056"
     id="namedview8"
     showgrid="false"
     inkscape:zoom="19.145833"
     inkscape:cx="24"
     inkscape:cy="24"
     inkscape:window-x="65"
     inkscape:window-y="24"
     inkscape:window-maximized="1"
     inkscape:current-layer="svg2" /><ellipse
     style="opacity:0.96700003;fill:#00d1b2;fill-opacity:1;stroke:none;stroke-width:2.70000005;stroke-miterlimit:4;stroke-dasharray:none;stroke-opacity:0.90196078"
     id="path5981"
     cx="23.921656"
     cy="23.921654"
     rx="23.890522"
     ry="23.974215" /><g
     id="g4146"
     transform="matrix(0.77781115,0,0,0.77781115,5.1773824,4.0352468)"><path
       style="fill:#696969"
       id="path4"
       d="m 39.6,27.2 c 0.1,-0.7 0.2,-1.4 0.2,-2.2 0,-0.8 -0.1,-1.5 -0.2,-2.2 l 4.5,-3.2 c 0.4,-0.3 0.6,-0.9 0.3,-1.4 L 40,10.8 c -0.3,-0.5 -0.8,-0.7 -1.3,-0.4 l -5,2.3 C 32.5,11.8 31.3,11.1 29.9,10.5 L 29.4,5 C 29.3,4.5 28.9,4.1 28.4,4.1 l -8.6,0 c -0.5,0 -1,0.4 -1,0.9 l -0.5,5.5 c -1.4,0.6 -2.7,1.3 -3.8,2.2 l -5,-2.3 C 9,10.2 8.4,10.4 8.2,10.8 l -4.3,7.4 c -0.3,0.5 -0.1,1.1 0.3,1.4 l 4.5,3.2 c -0.1,0.7 -0.2,1.4 -0.2,2.2 0,0.8 0.1,1.5 0.2,2.2 L 4,30.4 C 3.6,30.7 3.4,31.3 3.7,31.8 L 8,39.2 c 0.3,0.5 0.8,0.7 1.3,0.4 l 5,-2.3 c 1.2,0.9 2.4,1.6 3.8,2.2 l 0.5,5.5 c 0.1,0.5 0.5,0.9 1,0.9 l 8.6,0 c 0.5,0 1,-0.4 1,-0.9 l 0.5,-5.5 c 1.4,-0.6 2.7,-1.3 3.8,-2.2 l 5,2.3 c 0.5,0.2 1.1,0 1.3,-0.4 l 4.3,-7.4 c 0.3,-0.5 0.1,-1.1 -0.3,-1.4 L 39.6,27.2 Z M 24,35 c -5.5,0 -10,-4.5 -10,-10 0,-5.5 4.5,-10 10,-10 5.5,0 10,4.5 10,10 0,5.5 -4.5,10 -10,10 z"
       inkscape:connector-curvature="0" /><path
       style="fill:#000000"
       id="path6"
       d="m 24,13 c -6.6,0 -12,5.4 -12,12 0,6.6 5.4,12 12,12 6.6,0 12,-5.4 12,-12 0,-6.6 -5.4,-12 -12,-12 z m 0,17 c -2.8,0 -5,-2.2 -5,-5 0,-2.8 2.2,-5 5,-5 2.8,0 5,2.2 5,5 0,2.8 -2.2,5 -5,5 z"
       inkscape:connector-curvature="0" /></g></svg>