<?xml version="1.0" encoding="UTF-8" standalone="no"?>
<svg
   xmlns:dc="http://purl.org/dc/elements/1.1/"
   xmlns:cc="http://creativecommons.org/ns#"
   xmlns:rdf="http://www.w3.org/1999/02/22-rdf-syntax-ns#"
   xmlns:svg="http://www.w3.org/2000/svg"
   xmlns="http://www.w3.org/2000/svg"
   xmlns:sodipodi="http://sodipodi.sourceforge.net/DTD/sodipodi-0.dtd"
   xmlns:inkscape="http://www.inkscape.org/namespaces/inkscape"
   version="1.1"
   x="0px"
   y="0px"
   width="48px"
   height="48px"
   viewBox="0 0 48 48"
   enable-background="new 0 0 48 48"
   xml:space="preserve"
   id="svg2"
   inkscape:version="0.91 r13725"
   sodipodi:docname="icono-pedido-dam.svg"><metadata
     id="metadata18"><rdf:RDF><cc:Work
         rdf:about=""><dc:format>image/svg+xml</dc:format><dc:type
           rdf:resource="http://purl.org/dc/dcmitype/StillImage" /><dc:title></dc:title></cc:Work></rdf:RDF></metadata><defs
     id="defs16" /><sodipodi:namedview
     pagecolor="#ffffff"
     bordercolor="#666666"
     borderopacity="1"
     objecttolerance="10"
     gridtolerance="10"
     guidetolerance="10"
     inkscape:pageopacity="0"
     inkscape:pageshadow="2"
     inkscape:window-width="1920"
     inkscape:window-height="1043"
     id="namedview14"
     showgrid="false"
     inkscape:zoom="18.229167"
     inkscape:cx="24"
     inkscape:cy="24"
     inkscape:window-x="1920"
     inkscape:window-y="0"
     inkscape:window-maximized="1"
     inkscape:current-layer="svg2" /><ellipse
     style="clip-rule:evenodd;opacity:0.96700003;fill:#00d1b2;fill-opacity:1;fill-rule:evenodd;stroke:none;stroke-width:2.70000005;stroke-linejoin:round;stroke-miterlimit:4;stroke-dasharray:none;stroke-opacity:0.90196078"
     id="path5981"
     cx="23.869423"
     cy="23.973885"
     rx="23.890522"
     ry="23.974215" /><polygon
     style="fill:#d3d3d3"
     points="40,45 8,45 8,3 30,3 40,13 "
     id="polygon4"
     transform="matrix(0.71377179,0,0,0.71377179,7.312669,5.9184607)" /><polygon
     style="fill:#ccf6f0;fill-opacity:1"
     points="29,4.5 38.5,14 29,14 "
     id="polygon6"
     transform="matrix(0.71377179,0,0,0.71377179,7.312669,5.9184607)" /><g
     id="g8"
     transform="matrix(0.71377179,0,0,0.71377179,7.312669,5.9184607)"
     style="fill:#696969"><rect
       style="fill:#696969;fill-opacity:0.647343"
       x="14"
       y="9"
       width="11"
       height="5"
       id="rect10" /><path
       style="fill:#8e8e8e;fill-opacity:1"
       inkscape:connector-curvature="0"
       d="m 34.869518,31.72433 -16.695614,0 0,-1.045945 16.695614,0 0,1.045945 z m 0,-3.137836 -16.695614,0 0,1.045946 16.695614,0 0,-1.045946 z m 0,6.275671 -16.695614,0 0,1.045945 16.695614,0 0,-1.045945 z m 0,2.09189 -16.695614,0 0,1.045945 16.695614,0 0,-1.045945 z m 0,-4.18378 -16.695614,0 0,1.045945 16.695614,0 0,-1.045945 z M 14,29.63244 l 2.086952,0 0,-1.045946 -2.086952,0 0,1.045946 z m 0,2.09189 2.086952,0 0,-1.045945 -2.086952,0 0,1.045945 z M 14,38 l 2.086952,0 0,-1.045945 -2.086952,0 L 14,38 Z m 0,-4.18378 2.086952,0 0,-1.045945 -2.086952,0 0,1.045945 z m 0,2.09189 2.086952,0 0,-1.045945 -2.086952,0 0,1.045945 z"
       id="path12" /></g><text
     xml:space="preserve"
     style="font-style:normal;font-weight:normal;font-size:32.16519928px;line-height:125%;font-family:sans-serif;letter-spacing:0px;word-spacing:0px;fill:#4a4a4a;fill-opacity:1;stroke:none;stroke-width:1px;stroke-linecap:butt;stroke-linejoin:miter;stroke-opacity:1"
     x="22.472731"
     y="19.063652"
     id="text4163"
     sodipodi:linespacing="125%"
     transform="scale(0.75260266,1.3287224)"><tspan
       sodipodi:role="line"
       id="tspan4165"
       x="22.472731"
       y="19.063652"
       style="font-style:normal;font-variant:normal;font-weight:normal;font-stretch:normal;font-size:8.04129982px;font-family:'Arial Black';-inkscape-font-specification:'Arial Black, ';letter-spacing:0.53733033px;fill:#4a4a4a;fill-opacity:1">DAM</tspan></text>
</svg>