<?xml version="1.0" encoding="UTF-8" standalone="no"?>
<svg
   xmlns:dc="http://purl.org/dc/elements/1.1/"
   xmlns:cc="http://creativecommons.org/ns#"
   xmlns:rdf="http://www.w3.org/1999/02/22-rdf-syntax-ns#"
   xmlns:svg="http://www.w3.org/2000/svg"
   xmlns="http://www.w3.org/2000/svg"
   xmlns:sodipodi="http://sodipodi.sourceforge.net/DTD/sodipodi-0.dtd"
   xmlns:inkscape="http://www.inkscape.org/namespaces/inkscape"
   version="1.1"
   x="0px"
   y="0px"
   width="48px"
   height="48px"
   viewBox="0 0 48 48"
   enable-background="new 0 0 48 48"
   xml:space="preserve"
   id="svg2"
   inkscape:version="0.91 r13725"
   sodipodi:docname="icono-monitor-caduc.svg"><metadata
     id="metadata44"><rdf:RDF><cc:Work
         rdf:about=""><dc:format>image/svg+xml</dc:format><dc:type
           rdf:resource="http://purl.org/dc/dcmitype/StillImage" /><dc:title /></cc:Work></rdf:RDF></metadata><defs
     id="defs42" /><sodipodi:namedview
     pagecolor="#ffffff"
     bordercolor="#666666"
     borderopacity="1"
     objecttolerance="10"
     gridtolerance="10"
     guidetolerance="10"
     inkscape:pageopacity="0"
     inkscape:pageshadow="2"
     inkscape:window-width="1855"
     inkscape:window-height="1056"
     id="namedview40"
     showgrid="false"
     inkscape:zoom="11.03"
     inkscape:cx="8.3155032"
     inkscape:cy="24"
     inkscape:window-x="65"
     inkscape:window-y="24"
     inkscape:window-maximized="1"
     inkscape:current-layer="svg2" /><ellipse
     style="opacity:0.96700003;fill:#00d1b2;fill-opacity:1;stroke:none;stroke-width:2.70000005;stroke-miterlimit:4;stroke-dasharray:none;stroke-opacity:0.90196078"
     id="path5981"
     cx="23.950352"
     cy="23.965588"
     rx="23.890522"
     ry="23.974215" /><path
     style="fill:#00d1b2;fill-opacity:0.96862745"
     inkscape:connector-curvature="0"
     d="m 27.260738,12.702976 -5.826276,0 c -0.689165,0 -1.248487,-0.583245 -1.248487,-1.301886 0,-0.718641 0.559322,-1.301886 1.248487,-1.301886 l 5.826276,0 c 0.689165,0 1.248487,0.583245 1.248487,1.301886 0,0.718641 -0.559322,1.301886 -1.248487,1.301886"
     id="path8" /><ellipse
     style="opacity:0.96700003;fill:#ffffff;fill-opacity:0.81642516;stroke:none;stroke-width:2.70000005;stroke-miterlimit:4;stroke-dasharray:none;stroke-opacity:0.61176471"
     id="path4219"
     ry="3.4904804"
     rx="1.9038985"
     cy="11.055304"
     cx="17.225748" /><ellipse
     style="opacity:0.96700003;fill:#ffffff;fill-opacity:0.81642516;stroke:none;stroke-width:2.70000005;stroke-miterlimit:4;stroke-dasharray:none;stroke-opacity:0.61176471"
     id="path4219-3"
     ry="3.4904804"
     rx="1.9038985"
     cy="11.281958"
     cx="24.116047" /><ellipse
     style="opacity:0.96700003;fill:#ffffff;fill-opacity:0.81642516;stroke:none;stroke-width:2.70000005;stroke-miterlimit:4;stroke-dasharray:none;stroke-opacity:0.61176471"
     id="path4219-6"
     ry="3.4904804"
     rx="1.9038985"
     cy="11.126019"
     cx="30.618313" /><g
     id="g4214"
     transform="matrix(0.89166435,0,0,0.89166435,2.90307,2.7662218)"><rect
       y="13.457842"
       x="10.154125"
       height="24.388033"
       width="27.017225"
       id="rect4212"
       style="opacity:0.96700003;fill:#ffffff;fill-opacity:0.81642516;stroke:none;stroke-width:2.70000005;stroke-miterlimit:4;stroke-dasharray:none;stroke-opacity:0.61176471" /><path
       inkscape:connector-curvature="0"
       d="m 32.110773,12.935846 c 0.465651,-0.376608 0.494796,-0.544659 0.559391,-3.2252408 L 32.738324,6.8826679 32.113946,6.2582898 C 31.372514,5.5168636 30.925172,5.4750557 30.274461,6.086364 29.81451,6.5184674 29.792853,6.6728598 29.792853,9.5198112 c 0,2.7035458 0.03873,3.0197318 0.416174,3.3971738 0.524434,0.524432 1.267541,0.531805 1.901757,0.01885 z m -7.30651,-0.02442 c 0.390951,-0.39095 0.41751,-0.643542 0.364154,-3.4633676 -0.05722,-3.0228793 -0.06096,-3.0442141 -0.61168,-3.4550225 -0.722678,-0.53909 -1.518296,-0.3479404 -1.939141,0.4658855 -0.232731,0.4500448 -0.315917,1.291191 -0.315917,3.1942842 0,2.2984344 0.04757,2.6438374 0.431277,3.1316444 0.529416,0.673042 1.467514,0.730367 2.071307,0.126582 z m -7.908288,0.211187 c 0.568845,-0.304447 0.826933,-1.489975 0.814868,-3.7431277 -0.01298,-2.388972 -0.295172,-3.3501231 -1.063427,-3.619545 -0.680114,-0.2385121 -1.544678,0.249855 -1.846181,1.042876 -0.327064,0.8602435 -0.247785,4.9996387 0.108959,5.6895137 0.428334,0.828307 1.173718,1.064889 1.985786,0.630283 z m 13.729212,7.798203 0,-1.776282 1.995678,0.05954 1.995678,0.05954 0.03319,1.716806 0.03319,1.716805 -2.028851,-8.1e-5 -2.02886,-8.3e-5 0,-1.776279 z m -5.990936,0.05954 0.06044,-1.716725 2.028859,-0.05954 2.028855,-0.05953 0,1.776278 0,1.776279 -2.089293,0 -2.089292,0 0.06044,-1.716723 z m -5.870516,0.104046 4.52e-4,-1.716721 2.08088,0 2.080875,0 0,1.650883 0,1.650881 -2.08133,0.06584 -2.081331,0.06585 4.58e-4,-1.716723 z m -4.005236,1.665642 -2.028856,-0.06804 0,-1.657165 0,-1.657169 2.080881,0 2.080875,0 0,1.768747 c 0,0.97281 -0.02349,1.749147 -0.05202,1.725193 -0.02875,-0.0238 -0.965005,-0.07416 -2.080877,-0.111558 z m 15.866688,3.596108 0,-1.776278 2.089293,0 2.089294,0 -0.06044,1.716722 -0.06044,1.716724 -2.028855,0.05954 -2.028856,0.05954 0,-1.776278 z m -5.895815,1.622487 c -0.07629,-0.07628 -0.138731,-0.866015 -0.138731,-1.754926 l 0,-1.616198 2.08133,-0.06584 2.081331,-0.06584 -4.14e-4,1.820769 -4.17e-4,1.820767 -1.942153,0 c -1.068183,0 -2.00458,-0.06242 -2.080876,-0.13873 z m -5.965637,-1.674507 -4.58e-4,-1.828302 2.08952,0.06602 2.089523,0.06602 -0.06022,1.702725 -0.06022,1.702732 -2.028856,0.05954 -2.02886,0.05954 -4.53e-4,-1.828303 z m -5.895363,1.674507 c -0.07628,-0.07628 -0.138731,-0.866015 -0.138731,-1.754926 l 0,-1.616198 2.08133,-0.06584 2.081331,-0.06584 -4.57e-4,1.820769 -4.48e-4,1.820767 -1.942153,0 c -1.068184,0 -2.004578,-0.06242 -2.080876,-0.13873 z m 17.756815,3.579706 0,-1.776282 2.089293,0 2.089294,0 -0.06044,1.716727 -0.06044,1.716722 -2.028855,0.05954 -2.028856,0.05953 0,-1.776282 z m -5.895815,1.622487 c -0.07629,-0.07628 -0.138731,-0.872234 -0.138731,-1.76875 l 0,-1.630019 2.080879,0 2.080877,0 0,1.768746 0,1.768747 -1.94215,0 c -1.068188,0 -2.004581,-0.06242 -2.080879,-0.138731 z m -5.965185,-1.630023 0,-1.768746 2.08088,0 2.080875,0 0,1.768746 0,1.768747 -2.080875,0 -2.08088,0 0,-1.768747 z m -5.863186,-4.85e-4 -0.06729,-1.769231 2.028856,4.17e-4 2.028855,4.15e-4 0,1.768749 0,1.768742 -1.961543,0 -1.961546,0 -0.06729,-1.769231 z m 23.122239,5.417089 c 0.330789,-0.171063 0.693004,-0.597355 0.822019,-0.967447 0.156875,-0.449979 0.23066,-3.977693 0.23066,-11.027648 0,-10.035602 -0.01298,-10.372875 -0.402497,-10.581422 -0.555643,-0.297366 -25.27459,-0.297366 -25.830236,0 -0.390103,0.208775 -0.402291,0.546725 -0.395878,10.976626 0.0071,11.286432 -0.0065,11.11739 0.92978,11.654365 0.299222,0.17162 3.73718,0.24046 12.235485,0.245004 9.999291,0.0056 11.910377,-0.04077 12.41068,-0.299469 z M 11.168987,39.506089 C 10.095594,39.125524 9.4072532,38.511752 8.8742722,37.459966 l -0.51447,-1.015257 0,-12.186969 0,-12.186961 0.497728,-0.981502 c 0.27375,-0.539823 0.68893,-1.1542712 0.92262,-1.3654357 0.6086158,-0.5499517 1.8566678,-0.9489181 3.0015178,-0.959496 l 0.988418,-0.00901 0,-1.0541196 c 0,-2.2065765 1.609129,-3.612105 3.322725,-2.9023135 0.880816,0.3648468 1.293778,1.1348471 1.414373,2.6371958 l 0.105905,1.3192373 1.403882,0 1.403886,0 0.08653,-1.3588316 c 0.07499,-1.1773482 0.171095,-1.4433675 0.719959,-1.9922227 1.746867,-1.7468667 4.028017,-0.3831553 4.028017,2.4080134 l 0,0.9430797 1.248527,0 1.248527,0 0,-0.9430797 c 0,-1.2865597 0.464356,-2.2949855 1.288025,-2.7971655 1.820124,-1.1096972 3.497991,0.168684 3.497991,2.6651623 l 0,1.0191611 1.456393,0.1042065 c 1.913,0.1368761 2.950162,0.7911721 3.655505,2.3060952 l 0.502405,1.079064 0.0019,12.097349 0.0021,12.097344 -0.575336,1.116221 c -0.475636,0.922796 -0.770577,1.215387 -1.702014,1.688466 l -1.126599,0.57224 -11.979751,-0.01639 c -7.89288,-0.01083 -12.192822,-0.09196 -12.604112,-0.237769 z"
       style="fill:#000000"
       id="path4305" /><rect
       y="24.615402"
       x="24.515242"
       height="3.2616475"
       width="4.3488626"
       id="rect4157"
       style="opacity:0.96700003;fill:#ff0000;fill-opacity:1;stroke:none;stroke-width:2.70000005;stroke-miterlimit:4;stroke-dasharray:none;stroke-opacity:0.61176471" /></g></svg>