<?xml version="1.0" encoding="UTF-8" standalone="no"?><!DOCTYPE svg PUBLIC "-//W3C//DTD SVG 1.1//EN" "http://www.w3.org/Graphics/SVG/1.1/DTD/svg11.dtd"><svg width="100%" height="100%" viewBox="0 0 48 48" version="1.1" xmlns="http://www.w3.org/2000/svg" xmlns:xlink="http://www.w3.org/1999/xlink" xml:space="preserve" style="fill-rule:evenodd;clip-rule:evenodd;stroke-linejoin:round;stroke-miterlimit:1.41421;"><g id="Capa2"><path d="M45,36c0,0.553 -0.447,1 -1,1l-40,0c-0.553,0 -1,-0.447 -1,-1l0,-24c0,-0.553 0.447,-1 1,-1l40,0c0.553,0 1,0.447 1,1l0,24Z" style="fill:#cfd8dc;fill-rule:nonzero;"/><rect x="5" y="13" width="38" height="22" style="fill:#fff;"/><rect x="8" y="18" width="18" height="2" style="fill:#cfd8dc;"/><rect x="8" y="22" width="12" height="2" style="fill:#cfd8dc;"/><g><rect x="30" y="23" width="10" height="4" style="fill:#f44336;"/><rect x="33" y="20" width="4" height="10" style="fill:#f44336;"/></g><path d="M11.637,24c-0.445,0 -1.019,0.328 -1.524,0.969c-0.506,0.64 -0.913,1.61 -0.913,2.931c0,0.614 0.197,1.319 0.563,1.887c0.093,0.145 0.202,0.277 0.318,0.4c-0.453,0.579 -0.825,1.019 -0.825,1.019c-0.051,0.038 -0.081,0.098 -0.081,0.161c0,0.11 0.091,0.2 0.2,0.2c0.068,0 0.132,-0.035 0.169,-0.092c0,0 0.377,-0.444 0.837,-1.031c0.288,0.213 0.62,0.356 1,0.356c0.621,0 1.209,-0.306 1.719,-0.738c0.093,-0.078 0.168,-0.181 0.256,-0.268c0.157,0.12 0.337,0.206 0.544,0.206c0.317,0 0.595,-0.158 0.837,-0.363c0.243,-0.204 0.459,-0.463 0.65,-0.718c0.192,-0.255 0.361,-0.503 0.5,-0.682c0.061,-0.077 0.114,-0.127 0.157,-0.168c0.013,0.124 0.006,0.321 -0.007,0.518c-0.012,0.198 -0.031,0.398 -0.031,0.563c0.001,0.083 0.006,0.155 0.025,0.231c0.01,0.038 0.019,0.079 0.056,0.125c0.038,0.047 0.12,0.094 0.194,0.094c0.244,0 0.43,-0.141 0.594,-0.306c0.164,-0.165 0.321,-0.368 0.487,-0.563c0.333,-0.388 0.693,-0.731 1.238,-0.731c0.001,0 0.002,0 0.003,0c0.11,0 0.2,-0.09 0.2,-0.2c0,-0.11 -0.09,-0.2 -0.2,-0.2c-0.001,0 -0.002,0 -0.003,0c-0.715,0 -1.192,0.457 -1.544,0.869c-0.176,0.205 -0.328,0.402 -0.462,0.537c-0.08,0.081 -0.129,0.084 -0.188,0.113c0.001,-0.134 0.02,-0.316 0.032,-0.507c0.012,-0.202 0.018,-0.405 0,-0.581c-0.01,-0.088 -0.02,-0.173 -0.063,-0.256c-0.043,-0.083 -0.154,-0.175 -0.275,-0.175c-0.133,0 -0.221,0.068 -0.3,0.137c-0.079,0.07 -0.154,0.152 -0.231,0.25c-0.154,0.197 -0.323,0.449 -0.507,0.694c-0.183,0.245 -0.379,0.486 -0.581,0.656c-0.201,0.171 -0.398,0.263 -0.581,0.263c-0.101,0 -0.192,-0.026 -0.275,-0.081c0.284,-0.323 0.544,-0.663 0.75,-1.019c0.327,-0.567 0.542,-1.129 0.594,-1.588c0.026,-0.229 0.018,-0.441 -0.075,-0.618c-0.093,-0.177 -0.294,-0.294 -0.513,-0.294c-0.439,0 -0.843,0.288 -1.131,0.712c-0.288,0.425 -0.469,1.002 -0.469,1.65c0,0.421 0.09,0.81 0.275,1.113c0.008,0.013 0.023,0.019 0.031,0.031c-0.083,0.084 -0.162,0.182 -0.25,0.256c-0.464,0.394 -0.967,0.638 -1.456,0.638c-0.28,0 -0.531,-0.11 -0.756,-0.275c0.185,-0.246 0.347,-0.431 0.544,-0.725c0.809,-1.207 1.631,-2.752 1.631,-4.163c0,-0.159 -0.016,-0.449 -0.175,-0.725c-0.159,-0.275 -0.49,-0.512 -0.988,-0.512Zm0,0.4c0.383,0 0.537,0.138 0.638,0.313c0.101,0.174 0.125,0.404 0.125,0.524c0,1.25 -0.778,2.76 -1.569,3.938c-0.178,0.266 -0.318,0.43 -0.487,0.656c-0.08,-0.091 -0.175,-0.154 -0.244,-0.262c-0.319,-0.496 -0.5,-1.143 -0.5,-1.669c0,-1.239 0.382,-2.118 0.831,-2.687c0.45,-0.57 0.992,-0.813 1.206,-0.813Zm2.744,2c0.106,0 0.123,0.018 0.156,0.081c0.034,0.064 0.059,0.198 0.038,0.382c-0.042,0.366 -0.242,0.904 -0.55,1.437c-0.182,0.315 -0.405,0.62 -0.65,0.906c-0.117,-0.219 -0.194,-0.512 -0.194,-0.843c0,-0.572 0.163,-1.075 0.4,-1.425c0.238,-0.351 0.54,-0.538 0.8,-0.538Zm-5.381,6l0,0.4l10,0l0,-0.4l-10,0Z" style="fill-rule:nonzero;stroke:#000;stroke-width:0.5px;"/></g></svg>