<svg version="1.1" xmlns="http://www.w3.org/2000/svg" xmlns:xlink="http://www.w3.org/1999/xlink" x="0px" y="0px" width="48px" height="48px" viewBox="0 0 48 48" enable-background="new 0 0 48 48" xml:space="preserve">
<path fill="#FFC107" d="M43,36H29V14h10.559c0.86,0,1.625,0.551,1.897,1.368L45,26v8C45,35.105,44.105,36,43,36"></path>
<path fill="#009688" d="M29,36H5c-1.105,0-2-0.895-2-2V9c0-1.105,0.895-2,2-2h22c1.105,0,2,0.895,2,2V36z"></path>
<g>
	<path fill="#5D4037" d="M42,36c0,2.761-2.238,5-5,5s-5-2.239-5-5s2.238-5,5-5S42,33.239,42,36"></path>
	<path fill="#5D4037" d="M18,36c0,2.761-2.239,5-5,5s-5-2.239-5-5s2.239-5,5-5S18,33.239,18,36"></path>
</g>
<g>
	<path fill="#BCAAA4" d="M39,36c0,1.105-0.895,2-2,2s-2-0.895-2-2s0.895-2,2-2S39,34.895,39,36"></path>
	<path fill="#BCAAA4" d="M15,36c0,1.105-0.895,2-2,2s-2-0.895-2-2s0.895-2,2-2S15,34.895,15,36"></path>
</g>
<path fill="#795548" d="M41,25h-7c-0.552,0-1-0.448-1-1v-7c0-0.552,0.448-1,1-1h5c0.432,0,0.813,0.275,0.949,0.684l2,6
	C41.982,22.786,42,22.893,42,23v1C42,24.552,41.552,25,41,25"></path>
<rect x="3" y="17" fill="#4DB6AC" width="26" height="8"></rect>
</svg>