<?xml version="1.0" encoding="UTF-8" standalone="no"?>
<svg
   xmlns:dc="http://purl.org/dc/elements/1.1/"
   xmlns:cc="http://creativecommons.org/ns#"
   xmlns:rdf="http://www.w3.org/1999/02/22-rdf-syntax-ns#"
   xmlns:svg="http://www.w3.org/2000/svg"
   xmlns="http://www.w3.org/2000/svg"
   xmlns:sodipodi="http://sodipodi.sourceforge.net/DTD/sodipodi-0.dtd"
   xmlns:inkscape="http://www.inkscape.org/namespaces/inkscape"
   version="1.1"
   x="0px"
   y="0px"
   viewBox="0 0 48 48"
   enable-background="new 0 0 48 48"
   xml:space="preserve"
   id="svg2"
   inkscape:version="0.91 r13725"
   sodipodi:docname="icono-pedidos-alt.svg"><metadata
     id="metadata32"><rdf:RDF><cc:Work
         rdf:about=""><dc:format>image/svg+xml</dc:format><dc:type
           rdf:resource="http://purl.org/dc/dcmitype/StillImage" /></cc:Work></rdf:RDF></metadata><defs
     id="defs30" /><sodipodi:namedview
     pagecolor="#ffffff"
     bordercolor="#666666"
     borderopacity="1"
     objecttolerance="10"
     gridtolerance="10"
     guidetolerance="10"
     inkscape:pageopacity="0"
     inkscape:pageshadow="2"
     inkscape:window-width="1855"
     inkscape:window-height="1056"
     id="namedview28"
     showgrid="false"
     inkscape:zoom="13.538149"
     inkscape:cx="22.172689"
     inkscape:cy="33.297098"
     inkscape:window-x="1985"
     inkscape:window-y="24"
     inkscape:window-maximized="1"
     inkscape:current-layer="svg2" /><ellipse
     style="clip-rule:evenodd;opacity:0.96700003;fill:#00d1b2;fill-opacity:1;fill-rule:evenodd;stroke:none;stroke-width:2.70000005;stroke-linejoin:round;stroke-miterlimit:4;stroke-dasharray:none;stroke-opacity:0.90196078"
     id="path5981"
     cx="23.973885"
     cy="23.869425"
     rx="23.890522"
     ry="23.974215" /><g
     id="g4166"
     transform="matrix(0.72588311,0,0,0.72588311,4.4985393,7.0976548)"><path
       id="path4"
       d="m 13.1,33 c -0.7,0 -1.2,-0.5 -1.3,-1.2 L 9.2,9.7 C 9,8.1 7.7,7 6.2,7 L 5,7 5,9 6.2,9 c 0.5,0 0.9,0.4 1,0.9 l 2.6,22.2 c 0.2,1.7 1.6,2.9 3.3,2.9 l 10.9,0 0,-2 -10.9,0 z"
       inkscape:connector-curvature="0"
       style="fill:#696969" /><rect
       id="rect6"
       height="4"
       width="29"
       y="31"
       x="14"
       style="fill:#dcdcdc" /><g
       id="g8"><circle
         id="circle10"
         r="3"
         cy="38"
         cx="38"
         style="fill:#000000" /><circle
         id="circle12"
         r="3"
         cy="38"
         cx="19"
         style="fill:#000000" /></g><g
       id="g14"><circle
         id="circle16"
         r="1"
         cy="38"
         cx="38"
         style="fill:#607d8b" /><circle
         id="circle18"
         r="1"
         cy="38"
         cx="19"
         style="fill:#607d8b" /></g><path
       id="path20"
       d="m 38,31 -20,0 c -1.1,0 -2,-0.9 -2,-2 L 16,9 c 0,-1.1 0.9,-2 2,-2 l 20,0 c 1.1,0 2,0.9 2,2 l 0,20 c 0,1.1 -0.9,2 -2,2 z"
       inkscape:connector-curvature="0"
       style="fill:#c0c0c0" /><path
       id="path22"
       d="m 30,11 -4,0 c -0.6,0 -1,-0.4 -1,-1 l 0,0 c 0,-0.6 0.4,-1 1,-1 l 4,0 c 0.6,0 1,0.4 1,1 l 0,0 c 0,0.6 -0.4,1 -1,1 z"
       inkscape:connector-curvature="0"
       style="fill:#808080" /><path
       id="path24"
       d="m 30,24 -4,0 c -0.6,0 -1,-0.4 -1,-1 l 0,0 c 0,-0.6 0.4,-1 1,-1 l 4,0 c 0.6,0 1,0.4 1,1 l 0,0 c 0,0.6 -0.4,1 -1,1 z"
       inkscape:connector-curvature="0"
       style="fill:#808080" /><rect
       id="rect26"
       height="2"
       width="24"
       y="18"
       x="16"
       style="fill:#808080" /></g></svg>