<?xml version="1.0" encoding="UTF-8" standalone="no"?>
<!-- Generator: Adobe Illustrator 18.0.0, SVG Export Plug-In . SVG Version: 6.00 Build 0)  -->

<svg
   xmlns:dc="http://purl.org/dc/elements/1.1/"
   xmlns:cc="http://creativecommons.org/ns#"
   xmlns:rdf="http://www.w3.org/1999/02/22-rdf-syntax-ns#"
   xmlns:svg="http://www.w3.org/2000/svg"
   xmlns="http://www.w3.org/2000/svg"
   xmlns:sodipodi="http://sodipodi.sourceforge.net/DTD/sodipodi-0.dtd"
   xmlns:inkscape="http://www.inkscape.org/namespaces/inkscape"
   version="1.1"
   id="Capa_1"
   x="0px"
   y="0px"
   viewBox="0 0 90.2 95.2"
   xml:space="preserve"
   sodipodi:docname="icono-dispensacion.svg"
   inkscape:version="0.92.2 (5c3e80d, 2017-08-06)"><metadata
     id="metadata3894"><rdf:RDF><cc:Work
         rdf:about=""><dc:format>image/svg+xml</dc:format><dc:type
           rdf:resource="http://purl.org/dc/dcmitype/StillImage" /></cc:Work></rdf:RDF></metadata><defs
     id="defs3892" /><sodipodi:namedview
     pagecolor="#ffffff"
     bordercolor="#666666"
     borderopacity="1"
     objecttolerance="10"
     gridtolerance="10"
     guidetolerance="10"
     inkscape:pageopacity="0"
     inkscape:pageshadow="2"
     inkscape:window-width="1920"
     inkscape:window-height="1017"
     id="namedview3890"
     showgrid="false"
     inkscape:zoom="9.9159667"
     inkscape:cx="34.323045"
     inkscape:cy="55.886185"
     inkscape:window-x="-8"
     inkscape:window-y="-8"
     inkscape:window-maximized="1"
     inkscape:current-layer="Capa_1" /><style
     type="text/css"
     id="style3867">
	.st0{fill:#589CDF;}
</style><path
     style="fill:#ffffff;stroke:#000000;stroke-width:0;stroke-linecap:butt;stroke-linejoin:miter;stroke-miterlimit:4;stroke-dasharray:none;stroke-opacity:1"
     d="M -0.0474574,0.10084746 H 40.552543 L 58.852542,18.400847 v 56.9 H -0.0474574 Z"
     id="path3910"
     inkscape:connector-curvature="0" /><g
     id="g3887"
     transform="translate(-5.6474574,0.10084746)"><path
       d="M 46.2,0 H 5.6 V 75.2 H 64.5 V 18.3 Z M 47,4.3 60.3,17.6 H 47 Z M 8.1,72.7 V 2.5 H 44.4 V 20 H 62 V 72.6 H 8.1 Z"
       id="path3869"
       inkscape:connector-curvature="0"
       style="fill:#589cdf" /><path
       class="st0"
       d="m 50.7,26.3 h -20 c -0.7,0 -1.3,0.6 -1.3,1.3 0,0.7 0.6,1.3 1.3,1.3 h 20 c 0.7,0 1.3,-0.6 1.3,-1.3 0,-0.7 -0.6,-1.3 -1.3,-1.3 z"
       id="path3871"
       inkscape:connector-curvature="0"
       style="fill:#589cdf" /><path
       class="st0"
       d="m 26.2,22.8 -5.4,4.3 -1.7,-1.7 c -0.5,-0.5 -1.3,-0.5 -1.8,0 -0.5,0.5 -0.5,1.3 0,1.8 l 2.5,2.5 c 0.2,0.2 0.6,0.4 0.9,0.4 0.3,0 0.6,-0.1 0.8,-0.3 l 6.3,-5 C 28.3,24.4 28.4,23.6 28,23 27.5,22.5 26.7,22.4 26.2,22.8 Z"
       id="path3873"
       inkscape:connector-curvature="0"
       style="fill:#589cdf" /><path
       class="st0"
       d="m 50.7,40.1 h -20 c -0.7,0 -1.3,0.6 -1.3,1.3 0,0.7 0.6,1.3 1.3,1.3 h 20 c 0.7,0 1.3,-0.6 1.3,-1.3 0,-0.8 -0.6,-1.3 -1.3,-1.3 z"
       id="path3875"
       inkscape:connector-curvature="0"
       style="fill:#589cdf" /><path
       class="st0"
       d="m 26.2,36.6 -5.4,4.3 -1.7,-1.7 c -0.5,-0.5 -1.3,-0.5 -1.8,0 -0.5,0.5 -0.5,1.3 0,1.8 l 2.5,2.5 c 0.2,0.2 0.6,0.4 0.9,0.4 0.3,0 0.6,-0.1 0.8,-0.3 l 6.3,-5 c 0.5,-0.4 0.6,-1.2 0.2,-1.8 -0.5,-0.5 -1.3,-0.6 -1.8,-0.2 z"
       id="path3877"
       inkscape:connector-curvature="0"
       style="fill:#589cdf" /><path
       class="st0"
       d="m 50.7,53.9 h -20 c -0.7,0 -1.3,0.6 -1.3,1.3 0,0.7 0.6,1.3 1.3,1.3 h 20 c 0.7,0 1.3,-0.6 1.3,-1.3 0,-0.8 -0.6,-1.3 -1.3,-1.3 z"
       id="path3879"
       inkscape:connector-curvature="0"
       style="fill:#589cdf" /><path
       class="st0"
       d="M 26.2,50.4 20.8,54.7 19.1,53 c -0.5,-0.5 -1.3,-0.5 -1.8,0 -0.5,0.5 -0.5,1.3 0,1.8 l 2.5,2.5 c 0.2,0.2 0.6,0.4 0.9,0.4 0.3,0 0.6,-0.1 0.8,-0.3 l 6.3,-5 C 28.3,52 28.4,51.2 28,50.6 27.5,50 26.7,50 26.2,50.4 Z"
       id="path3881"
       inkscape:connector-curvature="0"
       style="fill:#589cdf" /><rect
       x="18.143"
       y="10.143"
       width="8.5710001"
       height="3.4289999"
       style="fill:#f44336"
       id="rect3883" /><rect
       x="20.714001"
       y="7.5710001"
       width="3.4289999"
       height="8.5710001"
       style="fill:#f44336"
       id="rect3885" /></g></svg>