<?xml version="1.0" encoding="UTF-8" standalone="no"?><!DOCTYPE svg PUBLIC "-//W3C//DTD SVG 1.1//EN" "http://www.w3.org/Graphics/SVG/1.1/DTD/svg11.dtd"><svg width="100%" height="100%" viewBox="0 0 48 48" version="1.1" xmlns="http://www.w3.org/2000/svg" xmlns:xlink="http://www.w3.org/1999/xlink" xml:space="preserve" style="fill-rule:evenodd;clip-rule:evenodd;"><path d="M30.888,36.569l-25,0l0,-33l17,0l8,8l0,25Z" style="fill:#1565c0;fill-rule:nonzero;"/><path d="M29.388,12.569l-7.5,0l0,-7.5l7.5,7.5Z" style="fill:#e1f5fe;fill-rule:nonzero;"/><path d="M34.888,39.569l-25,0l0,-33l17,0l8,8l0,25Z" style="fill:#42a5f5;fill-rule:nonzero;"/><path d="M33.388,15.569l-7.5,0l0,-7.5l7.5,7.5Z" style="fill:#e1f5fe;fill-rule:nonzero;"/><path d="M38.888,42.569l-25,0l0,-33l17,0l8,8l0,25Z" style="fill:#90caf9;fill-rule:nonzero;"/><path d="M37.388,18.569l-7.5,0l0,-7.5l7.5,7.5Z" style="fill:#e1f5fe;fill-rule:nonzero;"/><g><rect x="18.888" y="22.569" width="15" height="2" style="fill:#1976d2;"/><rect x="18.888" y="26.569" width="11" height="2" style="fill:#1976d2;"/><rect x="18.888" y="30.569" width="15" height="2" style="fill:#1976d2;"/><rect x="18.888" y="34.569" width="11" height="2" style="fill:#1976d2;"/></g><path d="M40.215,45.129l1.702,-1.703c0.259,-0.259 0.259,-0.681 0,-0.94l-0.802,-0.801l-2.642,2.642l0.802,0.802c0.259,0.259 0.68,0.259 0.94,0" style="fill:#e57373;fill-rule:nonzero;"/><path d="M39.795,40.364l-11.875,-11.875l-2.642,2.642l11.875,11.875l2.642,-2.642Z" style="fill:#f4b404;"/><path d="M26.598,29.81l12.093,12.093" style="fill:#9d770c;fill-rule:nonzero;stroke:#dc7900;stroke-width:1.4px;"/><path d="M37.152,43.006l1.321,1.321l2.642,-2.644l-1.322,-1.321l-2.641,2.644Z" style="fill:#b0bec5;"/><path d="M27.919,28.488l-3.531,-0.888l0.889,3.531l2.642,-2.643Z" style="fill:#ffe598;fill-rule:nonzero;"/><path d="M26.154,28.031l-1.785,-0.45l0.45,1.785l1.335,-1.335Z" style="fill:#37474f;fill-rule:nonzero;"/></svg>